<?xml version="1.0" standalone="no"?>
<!DOCTYPE svg PUBLIC "-//W3C//DTD SVG 20010904//EN"
 "http://www.w3.org/TR/2001/REC-SVG-20010904/DTD/svg10.dtd">
<svg version="1.0" xmlns="http://www.w3.org/2000/svg"
 width="1300.000000pt" height="1300.000000pt" viewBox="0 0 1300.000000 1300.000000"
 preserveAspectRatio="xMidYMid meet">
<metadata>
Created by potrace 1.15, written by Peter Selinger 2001-2017
</metadata>
<g transform="translate(0.000000,1300.000000) scale(0.100000,-0.100000)"
fill="#000000" stroke="none">
<path d="M7366 11450 c-80 -102 -147 -160 -386 -337 -179 -132 -262 -203 -479
-409 -132 -126 -218 -201 -273 -241 -27 -19 -48 -39 -48 -44 0 -5 -4 -9 -8 -9
-5 0 -46 -25 -92 -56 -106 -70 -222 -129 -326 -164 l-82 -28 -53 77 c-85 121
-135 185 -412 528 -177 218 -308 417 -341 519 -25 76 -68 114 -131 114 -28 0
-60 -50 -155 -240 -125 -250 -264 -635 -414 -1150 -36 -124 -85 -292 -109
-375 l-44 -150 -219 2 c-120 0 -343 11 -494 22 -455 35 -775 46 -949 34 -147
-11 -154 -12 -184 -39 l-32 -29 25 29 c23 26 23 28 5 23 -11 -3 -42 -8 -70
-12 -27 -4 -79 -14 -114 -22 l-64 -16 7 -81 c14 -172 84 -524 146 -738 74
-254 90 -305 196 -613 115 -336 187 -565 180 -572 -2 -2 -109 -31 -237 -64
-129 -33 -241 -63 -249 -66 -8 -3 -25 -7 -37 -9 -12 -1 -122 -32 -245 -69
-266 -79 -531 -177 -684 -252 l-112 -54 9 -36 c11 -52 35 -80 125 -147 43 -33
120 -103 169 -155 165 -175 269 -276 389 -376 66 -55 141 -118 167 -140 25
-22 84 -71 130 -110 116 -98 379 -327 514 -447 l114 -101 -67 -74 c-97 -107
-208 -204 -475 -416 -200 -159 -325 -270 -461 -407 -138 -140 -141 -146 -115
-189 27 -44 86 -68 199 -80 152 -16 346 -93 595 -236 50 -28 167 -94 260 -145
199 -109 397 -230 449 -274 l37 -31 -41 -99 c-22 -55 -67 -181 -99 -280 -83
-253 -83 -255 -77 -272 3 -8 2 -13 -3 -9 -5 3 -28 -71 -50 -164 -46 -191 -45
-185 -28 -175 6 4 4 -2 -6 -13 -10 -12 -26 -65 -39 -129 l-21 -109 35 -75 c20
-41 45 -83 56 -94 23 -20 12 -23 192 44 47 17 114 39 150 50 36 10 135 39 220
63 169 49 540 132 770 171 172 30 560 86 593 86 48 0 118 -121 213 -365 107
-275 228 -474 384 -636 85 -87 125 -105 222 -96 71 6 131 39 246 131 139 111
431 319 564 402 67 41 70 42 103 28 109 -45 347 -55 495 -19 117 28 313 136
296 163 -3 5 1 9 8 9 8 0 56 -36 107 -79 52 -44 148 -116 213 -160 65 -45 182
-129 260 -188 140 -105 246 -173 318 -203 l38 -16 38 57 c50 76 142 271 190
407 61 170 139 369 169 430 23 47 30 53 52 50 14 -3 73 -12 131 -20 137 -21
510 -95 675 -135 180 -43 586 -127 725 -150 63 -10 155 -26 204 -34 49 -9 123
-16 165 -16 83 0 181 23 181 43 0 7 -23 84 -51 172 -27 88 -52 171 -55 185 -3
14 -30 109 -61 212 -49 161 -59 186 -71 175 -13 -10 -13 -9 -2 9 11 18 4 50
-53 245 -139 471 -209 727 -205 746 3 15 184 103 329 161 41 16 124 50 184 75
61 25 234 95 385 155 526 211 850 351 850 367 0 12 -81 167 -114 220 -94 146
-237 307 -456 510 -238 220 -349 335 -444 459 -101 133 -99 121 -30 183 32 29
120 99 194 155 224 171 330 258 430 353 52 50 113 102 135 115 38 23 179 131
291 223 29 23 88 70 133 104 76 59 150 143 151 171 0 24 -96 73 -225 113 -71
23 -182 65 -245 94 -63 29 -131 57 -150 63 -56 18 -229 45 -250 39 -11 -3 -18
-1 -15 3 3 5 -19 16 -49 24 -58 17 -162 69 -291 146 -44 26 -156 83 -250 126
-265 121 -325 162 -325 218 0 75 44 315 86 466 55 202 101 413 110 506 3 38
19 112 34 164 36 118 42 153 80 420 17 118 49 301 70 405 66 316 79 432 64
563 -5 37 -11 52 -22 52 -33 0 -172 -43 -166 -51 3 -5 -1 -6 -9 -4 -23 10
-350 -95 -972 -310 -529 -183 -1100 -365 -1110 -353 -4 6 -208 342 -240 398
-18 30 -61 105 -97 165 -100 172 -247 426 -333 580 -43 77 -106 190 -140 250
-34 61 -74 133 -88 160 -22 43 -31 52 -75 68 -75 26 -84 23 -136 -43z m111
-398 c-33 -35 -34 -41 -2 -37 34 3 60 -43 51 -90 -6 -30 -10 -33 -47 -37 -44
-4 -80 9 -87 31 -3 9 0 11 7 6 9 -5 9 -1 0 14 -13 19 -14 19 -34 3 -11 -9 -8
-3 8 14 15 17 24 35 20 40 -5 5 -4 6 0 2 5 -3 29 14 55 38 53 49 70 59 29 16z
m-163 -163 c-17 -18 -17 -21 -2 -18 9 2 24 -5 32 -16 l16 -20 -7 20 c-6 18 -5
18 10 6 19 -15 23 -72 7 -102 -8 -15 -21 -19 -60 -19 -28 0 -52 5 -56 12 -11
17 -12 48 -2 42 4 -3 5 2 2 11 -6 14 -11 12 -37 -12 -24 -22 -23 -18 8 17 36
42 95 99 104 100 2 0 -4 -9 -15 -21z m284 -31 c9 -9 12 -9 12 3 1 10 3 10 11
-3 13 -23 31 -24 22 -2 -5 14 -3 15 17 4 18 -10 21 -17 16 -42 -3 -17 -6 -38
-6 -47 0 -19 -53 -47 -58 -31 -3 7 -9 7 -18 -1 -25 -21 -54 16 -54 68 0 41 2
44 23 39 12 -3 16 -3 9 0 -6 3 -10 10 -6 15 7 12 18 11 32 -3z m-581 -275 c0
-10 -5 -24 -11 -32 -8 -12 -8 -13 2 -7 7 4 16 16 20 26 5 13 12 16 30 9 12 -5
22 -16 22 -25 0 -14 -2 -15 -17 -3 -12 10 -11 5 4 -17 l22 -31 -32 -31 c-18
-18 -40 -32 -48 -32 -20 0 -59 28 -59 43 0 7 4 6 10 -3 5 -8 10 -10 10 -5 -1
6 -7 18 -14 28 -12 16 -17 14 -55 -28 -38 -41 -40 -46 -29 -71 7 -14 14 -21
16 -15 2 7 -1 18 -7 25 -13 15 -5 26 19 26 32 0 54 -71 35 -113 -6 -14 -10
-15 -21 -6 -12 10 -13 9 -8 -5 3 -9 1 -16 -5 -16 -6 0 -11 5 -11 12 0 9 -3 9
-12 0 -16 -16 -28 -15 -28 3 0 18 -16 20 -24 3 -3 -7 -5 4 -4 24 2 20 -2 41
-6 45 -5 4 -6 2 -2 -4 5 -8 1 -13 -10 -13 -16 0 -16 1 1 20 10 11 21 17 26 15
4 -3 10 -1 13 4 4 5 1 13 -5 17 -8 5 -9 3 -4 -6 5 -9 4 -11 -4 -6 -6 4 -9 12
-5 17 3 5 9 7 13 5 10 -7 105 92 123 128 12 23 16 26 21 12 5 -12 3 -15 -6
-10 -6 4 -9 4 -5 -1 4 -4 3 -17 -3 -29 -8 -17 -6 -16 10 4 11 14 18 27 15 29
-3 4 15 31 21 31 1 0 2 -8 2 -17z m-2289 -15 c16 -16 15 -45 0 -51 -8 -3 -6
-6 5 -6 18 -1 25 -41 7 -41 -5 0 -10 -6 -10 -13 0 -18 -92 -9 -107 11 -7 9
-13 31 -13 50 0 27 3 33 16 28 12 -4 14 -1 9 14 -6 18 -2 20 37 20 24 0 49 -5
56 -12z m2056 -7 c16 -18 16 -66 -1 -96 -8 -15 -23 -21 -52 -22 -45 -2 -59 10
-40 33 11 13 10 15 -7 12 -15 -2 -19 3 -19 22 0 17 5 25 17 24 10 -1 14 4 11
13 -3 8 -12 12 -21 8 -12 -4 -13 -3 -3 9 17 21 96 19 115 -3z m478 -178 c66
-104 174 -303 165 -303 -1 0 -43 9 -92 19 -93 20 -261 45 -377 56 l-67 7 66
81 c67 82 148 178 193 230 13 15 27 27 31 27 4 0 40 -53 81 -117z m-627 37
c20 -17 19 -31 -2 -24 -17 5 -17 5 0 -6 11 -7 16 -22 15 -40 -2 -33 -34 -52
-81 -48 -29 3 -65 33 -53 45 4 4 12 1 17 -7 9 -13 10 -12 6 2 -3 9 -1 19 6 22
7 2 5 5 -4 5 -25 1 -32 31 -12 52 21 21 82 20 108 -1z m3805 -105 c-9 -11 -27
-15 -56 -14 -59 4 -81 -17 -77 -72 3 -43 -11 -73 -32 -66 -6 3 -18 -1 -28 -7
-14 -11 -11 -17 28 -56 44 -43 53 -42 46 3 0 4 8 7 18 7 11 0 23 4 26 10 4 6
-1 7 -11 3 -12 -4 -15 -3 -10 5 9 15 62 14 94 -1 29 -14 31 -74 2 -107 -11
-13 -20 -18 -20 -13 0 6 -7 14 -16 17 -12 5 -15 2 -10 -10 5 -14 4 -15 -9 -4
-12 10 -13 16 -3 29 9 12 7 12 -7 -2 -19 -17 -18 -18 33 -69 51 -51 52 -52 69
-33 17 18 17 18 1 6 -16 -12 -18 -11 -18 6 0 26 19 43 47 43 17 0 23 -6 23
-21 0 -13 -4 -18 -12 -13 -7 5 -8 3 -4 -5 5 -7 5 -33 1 -58 -5 -33 -9 -42 -16
-32 -4 8 -13 14 -19 14 -5 0 -10 5 -10 10 -1 17 -114 126 -127 121 -8 -3 -10
1 -6 11 5 12 3 14 -7 8 -8 -5 -11 -4 -7 2 4 6 -23 39 -59 73 l-65 63 -38 -37
c-30 -29 -40 -34 -44 -22 -3 8 -1 17 6 20 9 3 9 5 0 5 -6 1 -15 -5 -20 -11 -7
-13 -9 -18 -12 -37 0 -5 -10 -13 -21 -16 -11 -3 -20 -12 -20 -20 0 -7 -6 -15
-14 -18 -18 -7 -10 30 12 55 13 16 12 17 -7 13 -25 -5 -26 1 -7 21 11 11 16
11 19 1 3 -6 6 -3 6 7 1 17 7 18 50 13 39 -5 52 -2 65 12 15 16 13 21 -21 62
-20 24 -26 34 -12 22 26 -24 45 -31 34 -12 -4 6 1 17 11 25 18 15 18 15 1 10
-11 -3 -16 -2 -12 4 3 6 17 7 29 4 16 -4 25 0 29 10 7 18 42 21 53 5 4 -7 18
0 38 19 26 24 38 29 74 27 25 -2 42 1 42 8 0 6 3 7 6 4 4 -4 1 -14 -6 -22z
m-5375 -229 c39 -49 87 -108 108 -133 l38 -46 -128 -54 c-70 -30 -163 -72
-206 -94 -44 -22 -80 -39 -81 -37 -2 2 3 62 10 133 38 377 46 451 50 463 4 14
78 -69 209 -232z m-346 193 c27 -10 31 -15 31 -48 0 -52 -20 -75 -65 -75 -66
0 -100 75 -52 115 26 21 42 23 86 8z m755 -212 c-2 -23 -3 -46 -3 -51 -1 -4
-8 -5 -17 -2 -8 3 -13 2 -10 -2 3 -4 -10 -8 -29 -8 -19 0 -32 3 -29 7 2 4 -6
9 -18 11 -20 3 -23 10 -25 46 -1 23 3 42 8 42 6 0 7 4 4 10 -3 6 1 7 9 4 9 -3
16 -1 16 4 0 6 17 12 38 14 45 4 59 -15 56 -75z m4386 54 c3 -2 -4 -1 -15 2
-18 6 -17 5 3 -13 26 -22 28 -77 3 -72 -8 2 -11 -3 -8 -12 7 -17 -12 -26 -53
-26 -36 0 -50 18 -54 69 -3 39 -1 43 31 56 18 8 41 11 50 8 12 -5 14 -3 8 8
-7 12 -6 12 11 -1 10 -8 21 -16 24 -19z m-5290 8 c0 -5 5 -7 10 -4 19 12 31
-45 18 -81 -10 -29 -17 -34 -55 -40 -36 -5 -47 -3 -58 12 -19 26 -19 89 1 108
17 18 84 22 84 5z m3216 2 c-3 -5 2 -8 12 -7 14 1 17 -8 18 -46 2 -42 -1 -48
-18 -48 -17 0 -18 -3 -8 -15 10 -12 10 -15 -3 -15 -9 0 -19 5 -22 10 -3 6 -12
10 -18 10 -7 0 -6 -4 3 -11 11 -8 8 -9 -15 -4 -16 3 -34 11 -40 16 -16 16 -13
93 5 106 17 14 94 18 86 4z m300 -22 l-6 -31 19 23 19 23 -2 -49 c-2 -40 -5
-50 -19 -49 -9 1 -15 -3 -14 -10 3 -17 -61 -20 -78 -3 -8 8 -11 17 -8 21 4 3
1 6 -5 6 -19 0 -14 61 6 80 9 9 34 18 56 18 38 2 38 2 32 -29z m2070 -28 c-2
-15 -6 -33 -10 -40 -4 -6 -2 -11 5 -11 7 0 4 -6 -7 -14 -17 -13 -20 -13 -25 1
-4 14 -7 14 -20 1 -8 -8 -24 -13 -36 -12 -21 3 -47 -18 -49 -40 0 -6 -2 -19
-2 -29 -1 -10 -6 -16 -10 -13 -4 2 -13 -3 -19 -13 -9 -14 -8 -18 3 -18 7 0 10
5 7 11 -4 6 2 4 12 -4 18 -14 17 -15 -5 -18 -16 -3 -19 -6 -10 -12 7 -4 -9 -7
-36 -5 -39 3 -54 -1 -72 -18 -14 -13 -20 -27 -16 -39 4 -12 0 -18 -11 -18 -10
0 -34 -13 -55 -30 -35 -27 -50 -30 -50 -7 0 5 8 6 18 3 14 -5 14 -4 -2 9 -18
14 -15 20 9 15 6 -1 6 2 2 7 -12 11 -30 11 -40 -2 -5 -5 -5 1 -2 15 10 36 32
57 46 43 7 -7 21 -8 40 -3 20 6 29 5 29 -3 1 -7 16 5 34 26 31 34 56 51 41 26
-4 -6 2 -5 14 3 12 7 17 14 11 16 -5 2 -10 8 -10 14 0 5 8 7 19 3 12 -4 21 0
25 11 5 14 4 15 -8 5 -11 -9 -15 -8 -20 5 -6 16 -20 12 -22 -7 -1 -5 -2 -13
-3 -17 0 -5 -12 -14 -25 -20 -22 -10 -23 -9 -23 29 0 21 5 44 12 49 18 15 99
24 90 10 -13 -20 22 -9 45 15 12 13 26 22 30 20 4 -3 15 4 25 15 19 21 41 28
29 9 -4 -8 0 -8 15 0 27 15 26 17 -3 16 -13 0 -33 -9 -45 -19 -12 -11 -21 -16
-21 -11 0 15 50 54 64 49 7 -3 16 2 19 10 10 25 17 18 13 -13z m-5709 -107 c7
-10 8 -25 3 -42 -4 -15 -9 -34 -11 -42 -9 -37 -79 -43 -103 -8 -21 30 -21 98
-1 98 8 0 15 4 15 9 0 15 84 2 97 -15z m231 14 c10 -10 14 -10 21 0 4 7 15 10
24 6 13 -4 17 -19 17 -54 0 -72 -6 -80 -55 -80 -39 0 -45 3 -59 32 -21 40 -20
63 1 88 20 23 34 25 51 8z m5020 -4 c22 -15 28 -47 16 -92 -4 -15 -12 -21 -21
-18 -8 3 -11 1 -8 -4 8 -13 -41 -13 -64 0 -22 11 -45 64 -37 85 3 8 12 15 21
15 8 0 15 7 15 15 0 20 49 20 78 -1z m-3016 -52 c3 7 9 9 14 4 5 -5 4 -11 -4
-13 -10 -4 -10 -8 -1 -19 9 -11 9 -14 0 -14 -7 0 -9 -5 -5 -11 10 -16 20 4 19
38 0 20 -5 28 -18 27 -10 -1 -17 5 -17 17 0 16 8 19 49 19 73 0 77 -3 73 -60
-4 -47 -6 -50 -25 -44 -20 6 -20 5 -8 -10 12 -15 12 -16 -5 -10 -13 5 -7 -5
16 -30 l35 -38 9 26 c11 28 63 47 76 27 3 -7 14 -9 22 -6 21 8 32 -12 30 -53
-3 -34 -21 -62 -41 -62 -19 0 -12 -15 23 -49 l33 -32 7 26 c6 24 10 26 41 21
20 -4 36 -2 40 4 5 8 11 8 21 -1 20 -16 15 -94 -7 -118 -17 -18 -16 -20 17
-52 22 -22 34 -28 35 -18 1 7 2 21 3 29 1 18 81 27 100 11 7 -6 12 -23 9 -39
-3 -23 -2 -24 6 -7 9 19 10 18 10 -5 0 -29 -16 -53 -43 -63 -18 -7 -17 -10 9
-37 27 -28 53 -42 41 -21 -20 32 97 46 122 13 30 -39 6 -81 -45 -77 -15 2 -20
-2 -16 -12 5 -12 7 -12 14 -2 4 8 11 10 16 6 4 -5 2 -11 -5 -16 -8 -5 1 -19
28 -46 38 -37 40 -38 38 -15 -2 17 4 27 22 37 15 7 26 9 28 3 5 -13 32 -13 32
0 0 6 5 10 11 10 5 0 7 -4 4 -10 -3 -5 1 -10 9 -10 11 0 17 -10 18 -32 3 -75
-10 -102 -37 -74 -9 9 -22 16 -28 16 -7 0 -6 -4 3 -10 25 -16 3 -23 -35 -10
-27 9 -34 16 -30 29 4 12 -14 36 -59 79 -62 60 -99 85 -60 41 19 -22 19 -22
-3 -10 -22 11 -27 21 -24 46 0 6 -21 33 -48 59 -47 46 -57 76 -26 76 8 0 17 4
20 10 4 6 -2 7 -18 1 -17 -7 -29 -6 -38 2 -11 10 -11 9 0 -5 8 -11 9 -23 4
-33 -8 -14 -11 -14 -28 1 -20 15 -20 16 0 10 19 -6 19 -5 3 8 -10 7 -18 17
-18 22 0 14 -73 84 -88 84 -21 0 -64 37 -52 45 5 3 10 1 10 -5 0 -7 5 -6 14 2
9 9 10 15 3 20 -6 4 -14 5 -18 3 -3 -3 -29 18 -58 46 -28 29 -49 55 -46 58 8
14 -12 31 -29 25 -16 -6 -16 -8 0 -25 9 -11 12 -19 7 -19 -12 0 -27 29 -24 44
4 17 -93 106 -115 106 -13 0 -29 11 -40 28 -15 23 -15 25 -1 13 32 -26 17 4
-25 49 l-43 45 41 -38 c29 -27 43 -35 46 -25z m-398 -73 c-18 -20 -18 -20 6
-15 15 4 33 0 44 -9 16 -12 17 -17 6 -30 -11 -13 -10 -14 4 -9 15 6 17 2 12
-26 -6 -41 -19 -50 -78 -50 -40 0 -46 3 -41 17 4 10 2 14 -4 10 -6 -4 -9 3 -7
18 3 33 -3 32 -45 -7 -27 -26 -25 -22 9 17 24 28 48 52 52 53 5 2 5 9 1 15 -4
7 2 5 13 -3 10 -8 16 -10 11 -5 -6 8 19 45 31 45 3 0 -3 -9 -14 -21z m-294
-21 c0 -9 4 -8 10 2 8 13 10 12 11 -5 1 -17 2 -17 6 -2 5 21 17 22 32 3 17
-20 24 -66 10 -66 -6 0 -9 -7 -6 -15 4 -8 2 -17 -4 -20 -5 -4 -7 -12 -3 -18 3
-7 -1 -4 -9 6 -13 16 -15 16 -21 1 -7 -18 -48 -13 -75 9 -17 14 -9 96 10 108
20 13 39 11 39 -3z m1517 0 c11 -18 15 -39 13 -72 -1 -44 -15 -55 -58 -49 -63
10 -71 17 -65 65 7 57 18 68 64 68 21 0 41 -6 46 -12z m1469 -3 c16 -13 17
-16 4 -25 -10 -6 -11 -10 -2 -10 20 0 14 -51 -10 -71 -26 -23 -28 -23 -78 -1
-36 15 -40 20 -34 42 3 14 7 31 7 38 0 7 7 10 14 8 8 -3 12 -2 8 3 -3 5 1 12
7 15 7 3 2 3 -12 0 -19 -4 -22 -3 -10 5 22 16 83 13 106 -4z m1107 -47 c-40
-179 -195 -611 -411 -1148 -186 -462 -332 -862 -332 -909 0 -27 91 -107 152
-134 29 -13 91 -36 138 -52 100 -33 247 -100 329 -150 96 -58 268 -126 591
-235 329 -111 453 -159 453 -175 0 -10 -241 -165 -257 -165 -5 0 -17 -6 -25
-14 -9 -8 -99 -58 -201 -111 -102 -53 -192 -100 -200 -105 -8 -4 -53 -27 -100
-50 -47 -23 -88 -47 -92 -54 -4 -6 -8 -8 -8 -3 0 27 -572 -310 -680 -401 l-34
-29 119 -120 c228 -228 488 -424 975 -730 172 -109 385 -246 408 -264 l22 -17
-32 -19 c-147 -85 -521 -207 -848 -277 -41 -8 -140 -29 -220 -46 -287 -61
-652 -151 -669 -166 -10 -9 79 -325 199 -704 134 -424 167 -542 205 -731 32
-158 32 -157 -7 -127 -32 23 -155 97 -428 258 -412 242 -580 348 -740 468 -52
39 -98 72 -102 72 -4 0 -21 -29 -38 -65 -96 -205 -325 -554 -548 -835 -124
-155 -177 -210 -204 -210 -19 0 -72 59 -127 141 l-37 55 9 95 c12 125 2 425
-17 519 -50 245 -129 399 -246 476 -102 68 -277 89 -505 60 -287 -35 -483
-112 -611 -240 -80 -80 -135 -177 -159 -279 -33 -147 -45 -491 -24 -698 5 -57
11 -113 12 -123 1 -14 -25 -41 -93 -93 -52 -40 -98 -73 -101 -73 -12 0 -67
190 -88 300 -11 58 -36 197 -56 310 -51 301 -79 418 -130 543 -11 26 -41 21
-73 -14 -27 -29 -38 -32 -198 -59 -308 -51 -611 -141 -1154 -341 -127 -47
-490 -169 -502 -169 -15 0 -2 78 34 195 45 147 140 330 330 635 69 111 161
298 155 314 -4 9 -28 30 -54 46 -46 29 -108 51 -288 99 -44 12 -102 33 -128
46 -27 14 -105 36 -175 50 -153 31 -204 46 -479 136 -233 76 -454 139 -489
139 -33 0 -37 15 -15 58 23 46 108 121 206 184 39 25 126 92 194 149 68 57
142 119 164 137 22 18 62 52 88 75 134 121 375 289 506 352 46 22 83 46 83 53
0 25 -115 134 -185 175 -38 22 -95 57 -125 77 -30 21 -104 66 -165 102 -393
231 -400 234 -419 219 -14 -11 -13 -16 1 -37 8 -13 20 -24 27 -24 6 0 18 -5
26 -10 13 -9 13 -11 0 -20 -12 -8 -12 -10 -1 -10 11 0 11 -3 1 -15 -14 -17
-35 -21 -25 -5 3 6 1 10 -4 10 -6 0 -11 -7 -11 -16 0 -14 -1 -14 -16 0 -17 18
-34 21 -34 6 0 -5 -7 -7 -15 -4 -8 4 -15 12 -15 19 0 27 -18 23 -51 -11 -19
-20 -27 -34 -19 -33 31 6 60 -24 60 -63 0 -47 -29 -70 -80 -62 -45 8 -59 20
-53 47 5 18 -2 15 -36 -18 -40 -38 -41 -40 -19 -46 19 -4 23 -11 21 -42 -1
-20 3 -37 8 -37 11 0 12 -27 1 -34 -5 -3 -34 14 -65 37 -31 23 -52 44 -46 48
6 3 10 10 10 15 -1 5 5 9 12 9 6 0 11 -6 9 -13 -1 -6 3 -12 9 -12 6 0 9 6 6
14 -3 7 14 32 39 57 24 24 44 51 44 61 0 18 38 50 50 43 12 -7 102 94 95 106
-10 15 13 38 34 32 15 -4 50 23 40 30 -2 2 -42 25 -89 52 -105 60 -241 150
-340 225 -81 62 -202 131 -264 150 -28 9 -35 15 -25 21 25 16 282 97 394 124
149 36 140 32 124 53 -12 15 -11 15 8 -1 20 -18 26 -17 205 17 100 19 287 54
413 76 127 23 272 51 322 62 110 25 108 8 20 208 -122 277 -263 646 -421 1100
-53 151 -116 331 -140 400 -106 302 -143 410 -140 410 2 0 50 -17 106 -39 114
-42 319 -143 443 -216 44 -26 141 -81 215 -122 74 -41 136 -76 138 -78 1 -1
-5 -18 -13 -38 -23 -56 -18 -125 15 -224 36 -104 73 -286 95 -468 34 -270 95
-534 123 -528 5 1 8 -6 5 -17 -10 -40 80 -140 253 -281 44 -35 125 -104 182
-154 160 -141 263 -223 302 -242 21 -11 58 -18 91 -18 50 0 64 5 115 40 32 22
117 101 189 175 260 269 357 355 537 479 43 29 75 58 71 64 -3 5 -1 7 4 4 6
-4 62 18 126 48 190 92 359 125 607 120 176 -3 307 -25 462 -75 239 -79 437
-196 546 -324 35 -42 42 -57 42 -93 0 -230 -195 -459 -482 -567 -73 -28 -221
-70 -281 -81 -34 -5 -37 -8 -25 -23 12 -16 11 -16 -7 -1 -30 25 -83 13 -130
-30 l-40 -36 32 35 33 36 -73 -8 c-189 -18 -377 -4 -533 42 -107 32 -203 39
-247 19 -30 -14 -35 -39 -43 -244 -7 -163 3 -345 41 -735 24 -243 34 -362 55
-660 21 -299 54 -525 111 -752 40 -162 41 -163 102 -177 105 -22 253 -33 382
-26 157 7 590 62 625 78 30 15 99 148 134 262 41 131 57 240 63 428 l6 177
126 0 c431 0 908 134 1256 353 44 27 90 56 102 64 92 56 283 237 378 358 54
70 144 252 185 374 39 118 95 384 119 571 41 312 66 706 48 729 -8 10 -8 13
-1 8 27 -16 32 303 9 548 -25 257 -61 452 -131 710 -68 246 -136 392 -264 566
l-77 106 171 81 c94 44 216 101 271 125 55 25 125 56 155 70 30 14 89 39 130
56 41 18 82 39 91 47 8 8 18 12 21 9 3 -3 29 5 59 18 30 14 115 50 189 82 74
32 139 62 145 67 16 14 23 9 18 -14z m-3954 -85 c-12 -15 -12 -16 3 -10 11 4
22 0 28 -11 11 -16 11 -16 6 1 -7 21 16 23 33 3 11 -13 9 -85 -3 -105 -8 -12
-58 -11 -74 2 -9 7 -11 6 -6 -8 6 -15 4 -16 -14 -6 -12 7 -23 16 -23 21 -1 6
-3 15 -4 20 -1 6 -3 15 -4 22 0 6 -16 -1 -33 -18 l-33 -29 35 40 c19 22 39 42
43 46 5 3 8 10 8 15 -1 5 3 9 9 9 5 0 15 6 22 13 18 18 23 15 7 -5z m1236 -20
c29 -72 8 -122 -50 -115 -19 2 -35 8 -35 14 0 5 -4 7 -9 3 -6 -3 -15 3 -20 14
-29 53 2 99 65 100 31 1 44 -4 49 -16z m1763 -8 c15 -32 15 -55 2 -55 -5 0 -9
-10 -7 -22 2 -20 -4 -23 -44 -28 -55 -7 -69 5 -76 61 -5 35 -3 41 15 46 12 3
19 9 16 14 -3 5 15 9 39 9 37 0 46 -4 55 -25z m1124 5 c5 -12 7 -12 7 3 2 40
39 11 46 -36 5 -29 1 -43 -14 -63 l-21 -27 -1 24 c-1 16 -3 18 -6 7 -5 -20
-30 -31 -39 -16 -4 7 -9 6 -15 -3 -6 -10 -9 -11 -9 -1 0 6 -7 12 -15 12 -18 0
-20 30 -2 31 10 0 10 2 0 6 -18 7 -16 43 3 64 19 21 56 21 66 -1z m-4542 -130
c27 5 43 3 50 -5 16 -19 23 -72 11 -79 -6 -4 -11 -13 -11 -19 0 -7 4 -6 10 3
6 9 10 10 10 3 0 -7 -8 -17 -18 -22 -20 -11 -104 -3 -113 11 -10 16 -9 88 1
88 6 0 10 8 11 18 0 9 3 12 5 6 3 -7 18 -9 44 -4z m631 -8 c20 -17 21 -98 1
-94 -6 1 -12 -4 -12 -11 0 -15 -78 -11 -99 6 -15 12 -10 79 7 100 14 16 83 15
103 -1z m-475 -101 c-17 -18 -24 -31 -17 -35 6 -4 15 -5 19 -2 5 3 19 -2 31
-10 17 -12 21 -24 19 -55 -1 -22 -6 -43 -10 -45 -16 -10 -98 -12 -98 -3 0 5
-8 10 -17 10 -16 1 -16 2 -1 6 16 4 16 5 0 22 -13 13 -21 15 -32 7 -8 -6 -4 2
10 18 14 15 24 31 23 34 -2 4 1 7 5 7 4 0 26 17 48 37 46 45 60 50 20 9z
m-1136 -48 c0 -7 5 -13 10 -13 13 0 13 -41 0 -75 -9 -24 -14 -26 -62 -23 l-53
3 -3 54 c-2 36 1 57 10 63 21 13 98 6 98 -9z m-2200 -141 c21 -20 30 -86 13
-103 -6 -6 -30 -13 -53 -16 -36 -5 -42 -4 -37 9 4 12 1 14 -14 11 -16 -5 -19
0 -19 29 0 19 5 39 12 46 7 7 8 12 4 12 -5 0 -4 6 2 13 16 19 71 19 92 -1z
m881 -4 c22 -24 25 -88 7 -106 -16 -16 -79 -15 -101 2 -14 11 -17 25 -15 58 2
28 7 42 16 41 6 -2 12 1 12 6 0 9 20 17 49 20 7 0 22 -9 32 -21z m2631 6 c20
-11 30 -107 11 -100 -7 3 -12 0 -10 -6 1 -6 -4 -13 -12 -15 -10 -4 -12 3 -7
28 l5 34 -11 -32 c-12 -35 -33 -42 -69 -23 -27 15 -26 82 2 108 21 20 62 23
91 6z m1714 8 c-2 -4 7 -8 22 -7 15 0 27 -5 27 -12 0 -6 3 -15 8 -19 14 -14 7
-67 -10 -80 -10 -7 -35 -14 -55 -14 -44 0 -58 19 -58 81 0 37 2 41 21 36 15
-4 19 -2 15 9 -4 9 1 14 15 14 11 0 18 -4 15 -8z m334 -5 c16 -13 21 -25 28
-76 3 -23 1 -32 -7 -27 -6 4 -14 0 -17 -8 -8 -22 -72 -22 -81 0 -4 12 -8 13
-14 3 -5 -9 -10 -4 -15 15 -8 34 10 76 36 83 11 3 17 9 14 14 -8 14 39 10 56
-4z m-2530 -122 c-10 -12 -10 -15 0 -15 9 0 7 -7 -6 -22 -18 -22 -18 -22 8 1
24 21 56 22 43 0 -4 -5 1 -9 9 -9 12 0 16 -10 16 -36 0 -44 -21 -63 -70 -64
-30 0 -38 5 -54 35 -19 34 -20 35 -40 18 -33 -28 21 36 63 74 39 35 51 42 31
18z m-3156 -74 c9 -40 7 -45 -15 -62 -28 -22 -55 -24 -93 -6 -22 10 -26 17
-21 37 6 24 12 58 14 72 1 10 33 14 71 8 32 -5 36 -9 44 -49z m2034 47 c7 -7
12 -33 12 -60 0 -37 -4 -50 -19 -58 -27 -14 -74 -13 -65 2 4 7 3 8 -5 4 -23
-14 -42 15 -39 61 1 35 6 44 22 48 12 2 30 6 41 8 35 8 41 7 53 -5z m2347 -5
c11 -7 14 -13 8 -13 -8 0 -8 -9 -1 -35 12 -38 -3 -70 -29 -61 -8 3 -11 1 -8
-4 9 -15 -61 -12 -72 3 -11 14 -11 97 0 114 10 15 77 13 102 -4z m883 -5 c6
-6 12 -27 12 -48 0 -29 -6 -41 -25 -54 -27 -18 -75 -22 -75 -6 0 6 -9 10 -20
10 -17 0 -19 5 -15 48 2 26 4 50 5 54 1 19 93 16 118 -4z m870 7 c3 -2 7 -26
10 -53 4 -46 3 -49 -24 -59 -41 -15 -77 -15 -71 1 3 8 -3 12 -17 12 -11 -1
-21 5 -20 12 1 6 2 29 3 50 1 28 4 33 11 22 8 -13 10 -13 10 2 0 9 8 19 18 21
18 6 72 0 80 -8z m-6044 -146 c-4 -8 1 -9 15 -4 33 10 51 -11 49 -56 -2 -50
-16 -61 -73 -56 -53 4 -63 15 -61 67 2 48 12 60 47 60 20 0 28 -4 23 -11z
m3555 -8 c22 -17 24 -22 15 -62 -7 -33 -14 -43 -27 -41 -9 2 -17 -2 -17 -7 0
-12 -59 -3 -77 12 -20 15 -16 94 5 106 27 16 75 12 101 -8z m882 3 c14 -17 13
-93 -1 -108 -12 -12 -90 -9 -106 5 -13 11 -13 87 1 109 10 16 91 12 106 -6z
m877 4 c11 -14 9 -88 -2 -107 -9 -14 -103 -12 -114 3 -5 6 -9 28 -11 48 -1 28
4 40 21 52 27 19 91 21 106 4z m-2771 -140 c4 -7 8 -25 9 -40 1 -15 5 -43 8
-63 6 -31 9 -34 26 -25 16 8 19 5 25 -21 8 -36 22 -43 57 -30 22 8 27 7 31
-11 4 -12 2 -29 -3 -38 -5 -10 -7 -19 -5 -22 3 -3 -10 -5 -29 -6 -23 -1 -42 6
-58 21 -14 13 -30 21 -36 19 -8 -2 -11 9 -8 36 2 22 0 46 -5 53 -5 8 -9 10 -9
5 0 -19 -70 58 -71 78 -1 17 -2 17 -6 4 -2 -9 1 -26 7 -37 11 -21 -3 -31 -15
-11 -4 6 -11 8 -16 5 -5 -4 -9 5 -9 19 0 14 -8 30 -17 36 -15 8 -13 9 10 4 17
-4 27 -2 27 6 0 6 -4 8 -10 5 -5 -3 -10 -2 -10 4 0 5 9 9 19 8 11 0 17 -5 15
-9 -3 -4 0 -8 6 -8 6 0 13 7 16 15 7 18 40 20 51 3z m1157 -7 c21 -18 21 -35
-1 -27 -16 6 -16 6 0 -12 37 -41 13 -84 -44 -81 -63 3 -69 7 -69 50 0 24 5 39
12 39 9 0 9 3 0 12 -30 30 66 48 102 19z m1174 -4 c16 -13 15 -77 -2 -100 -11
-14 -25 -17 -58 -15 -43 3 -43 3 -43 41 0 41 -11 50 -18 15 -3 -16 -5 -13 -6
11 -1 26 2 32 14 27 10 -3 15 1 15 13 0 11 6 21 13 24 16 6 69 -3 85 -16z
m578 10 c13 -12 14 -106 1 -114 -22 -14 -85 -12 -98 3 -22 27 -21 81 2 103 21
19 79 24 95 8z m529 2 c4 -5 19 -7 35 -4 22 5 28 2 33 -14 3 -11 0 -22 -7 -25
-6 -2 -3 -5 7 -5 9 -1 17 -8 17 -16 0 -8 5 -15 11 -15 13 0 -9 -23 -38 -38
-35 -19 -97 -15 -123 8 -13 11 -18 20 -12 20 7 0 12 7 12 15 0 8 5 14 12 13 6
-2 14 6 16 17 2 11 9 23 16 27 7 5 3 8 -9 8 -17 0 -17 2 -5 10 19 13 27 12 35
-1z m1521 -14 c13 -14 18 -25 11 -26 -9 0 -9 -2 1 -6 19 -8 14 -40 -10 -63
-28 -25 -78 -27 -79 -2 -1 16 -2 16 -6 -1 -9 -33 -33 2 -33 48 0 44 10 59 45
68 38 9 48 7 71 -18z m-5270 0 c-3 -10 -2 -14 5 -10 7 5 9 -11 7 -47 l-3 -53
-42 -3 c-49 -4 -83 22 -83 63 0 45 18 61 73 64 42 2 49 0 43 -14z m1764 -1 c0
-8 5 -12 10 -9 6 4 10 -10 10 -34 0 -23 -5 -41 -11 -41 -6 0 -17 -7 -25 -15
-24 -24 -81 -19 -95 7 -9 17 -9 23 1 26 9 3 9 6 -1 13 -12 8 -12 10 0 18 11 7
11 9 0 13 -12 4 -12 7 0 21 19 23 111 24 111 1z m1760 -10 c0 -18 -12 -37 -37
-60 -21 -18 -33 -33 -27 -34 5 0 23 14 39 30 35 36 45 38 45 6 0 -46 -32 -63
-96 -50 -46 9 -68 72 -42 114 10 16 24 20 65 20 51 0 53 -1 53 -26z m447 -126
c15 -12 18 -68 4 -68 -5 0 -16 7 -25 15 -18 19 -33 20 -17 2 6 -8 7 -18 3 -22
-4 -5 -1 -5 7 0 18 10 33 -15 19 -32 -8 -10 -14 -11 -25 -2 -7 7 -16 9 -20 5
-3 -3 -1 -6 6 -6 7 0 10 -4 6 -10 -3 -5 -12 -7 -20 -4 -8 4 -12 10 -9 15 3 5
-5 9 -17 9 -18 0 -19 -2 -9 -15 18 -22 3 -18 -20 5 -12 12 -15 20 -7 20 8 0 8
3 -2 9 -8 5 -12 15 -9 22 3 8 6 19 8 24 6 27 23 46 36 41 8 -3 17 1 20 9 4 11
12 12 32 4 14 -6 32 -15 39 -21z m-3797 -50 c0 -27 -4 -47 -9 -44 -5 3 -7 16
-3 28 3 14 2 19 -7 14 -6 -4 -9 -12 -6 -17 4 -5 1 -9 -6 -9 -8 0 -8 -4 -2 -12
6 -7 12 -22 15 -34 4 -17 1 -20 -22 -19 -29 2 -100 41 -100 55 0 5 5 12 11 16
6 3 9 18 6 33 -8 37 4 51 39 46 17 -2 36 0 44 5 24 15 40 -9 40 -62z m-306 38
c3 -14 3 -32 0 -41 -4 -9 -1 -20 6 -25 9 -6 8 -12 -4 -26 -13 -15 -27 -18 -66
-16 -28 2 -48 8 -45 12 3 5 1 11 -5 15 -13 8 -13 46 0 79 8 23 15 26 59 26 43
0 50 -3 55 -24z m1744 8 c21 -21 22 -57 2 -66 -12 -5 -12 -7 3 -7 21 -1 22
-14 1 -32 -17 -14 -93 -14 -107 0 -13 13 -12 88 2 105 18 21 78 21 99 0z m862
5 c0 -5 4 -8 9 -4 14 8 31 -29 30 -67 0 -27 -2 -30 -9 -13 -8 18 -9 17 -9 -7
-1 -27 -3 -28 -52 -28 -27 0 -48 4 -45 9 3 5 -1 11 -9 15 -24 9 -19 72 7 90
25 18 78 21 78 5z m612 -12 c9 -17 8 -19 -6 -14 -9 4 -16 2 -16 -3 0 -6 4 -10
9 -10 17 0 23 -52 8 -68 -17 -17 -76 -19 -105 -3 -17 9 -20 19 -17 52 5 56 19
69 72 67 33 -1 47 -6 55 -21z m276 11 c6 -1 12 -4 12 -8 0 -3 -6 -12 -12 -19
-11 -11 -9 -11 10 -2 12 7 22 8 21 4 -4 -26 2 -42 16 -37 8 4 12 10 9 15 -9
15 3 10 16 -7 8 -8 9 -14 4 -13 -22 4 -35 -2 -28 -13 4 -7 3 -8 -4 -4 -8 4
-12 0 -12 -11 0 -20 -34 -46 -62 -48 -21 -2 -24 15 -6 33 8 8 8 12 1 12 -6 0
-16 -7 -24 -16 -12 -14 -14 -14 -21 6 -4 12 -12 19 -16 16 -5 -3 -9 11 -10 31
-2 50 23 77 63 69 16 -4 36 -7 43 -8z m296 -1 c7 -7 13 -19 14 -27 1 -8 4 -26
7 -40 8 -35 -27 -58 -78 -52 -29 3 -37 8 -33 19 4 11 2 13 -9 9 -18 -7 -20 5
-3 22 9 9 9 12 -1 12 -10 0 -11 3 -2 14 9 11 9 15 -1 18 -10 4 -10 8 1 21 16
20 86 23 105 4z m-3614 -175 c-15 -5 -12 -21 5 -39 9 -8 13 -18 10 -21 -3 -4
-10 0 -15 8 -7 11 -12 9 -29 -11 -11 -13 -20 -27 -21 -31 0 -5 -12 -8 -26 -8
-14 0 -23 4 -19 10 8 14 2 13 -31 -5 -26 -13 -29 -13 -35 3 -4 9 -2 25 3 35 5
10 6 27 3 37 -8 26 13 47 45 45 14 -1 34 1 45 5 12 5 30 2 48 -9 15 -8 23 -17
17 -19z m2011 27 c13 -7 16 -19 11 -56 -6 -58 -16 -73 -51 -73 -21 0 -23 2
-11 10 11 8 7 9 -14 4 -19 -5 -31 -2 -37 7 -13 21 -11 88 4 104 13 15 71 17
98 4z m1140 -1 c0 -10 2 -10 6 0 8 21 25 13 19 -10 -3 -13 -3 -17 0 -10 7 14
24 16 24 3 0 -5 -8 -17 -17 -27 -16 -16 -16 -16 4 -10 30 10 36 -25 9 -59 -17
-21 -27 -26 -44 -21 -19 6 -20 11 -11 29 10 22 10 22 -10 0 -22 -26 -46 -31
-38 -9 4 11 1 13 -10 9 -12 -5 -15 -2 -10 10 4 10 2 17 -5 17 -15 0 -3 71 14
82 20 12 68 9 69 -4z m251 2 c5 17 73 -2 73 -21 0 -8 6 -18 13 -22 17 -11 15
-62 -2 -76 -20 -17 -102 -10 -98 7 1 8 -2 11 -8 7 -5 -3 -15 -3 -21 1 -8 4 -7
9 2 15 8 5 9 9 3 9 -8 0 -6 14 4 46 9 27 18 41 22 34 6 -10 8 -10 12 0z m348
0 c0 -5 5 -9 12 -7 8 1 12 -14 13 -45 0 -33 -4 -48 -12 -48 -7 0 -13 3 -13 8
-1 12 -40 55 -46 49 -3 -3 8 -20 25 -38 38 -39 36 -51 -9 -56 -59 -6 -80 3
-80 37 0 17 -5 30 -12 30 -10 0 -10 2 0 9 7 4 12 12 11 17 -3 20 2 23 26 14
14 -5 25 -6 25 -1 0 5 -7 12 -16 15 -8 3 -13 9 -10 14 7 12 86 14 86 2z
m-3680 -128 c34 -1 40 1 25 8 -17 7 -17 9 -3 9 24 1 42 -37 39 -79 -2 -40 -48
-90 -82 -90 -11 0 -17 -4 -14 -10 3 -5 2 -10 -4 -10 -20 0 -24 43 -5 57 10 7
13 13 8 13 -6 0 -15 -5 -22 -12 -6 -6 -15 -8 -19 -3 -5 4 -2 10 5 12 6 3 12 9
12 14 0 6 -4 7 -10 4 -16 -10 -11 17 7 37 33 37 70 8 39 -31 -9 -11 -8 -13 4
-9 19 6 21 54 4 69 -11 9 -20 7 -39 -5 -31 -20 -32 -20 -38 6 -9 32 11 53 32
35 9 -8 36 -14 61 -15z m3570 -9 c8 -7 6 -121 -3 -129 -4 -4 -32 -11 -62 -14
-73 -8 -87 4 -87 74 -1 77 10 87 86 79 33 -3 63 -8 66 -10z m-5591 -4 c28 -10
31 -15 31 -54 0 -48 -16 -67 -62 -72 -23 -2 -37 3 -55 23 -13 15 -22 33 -19
41 3 8 6 23 6 34 0 13 7 19 23 19 18 0 19 2 7 10 -22 14 28 13 69 -1z m1471
-6 c21 -18 27 -76 12 -101 -9 -13 -92 -19 -111 -8 -6 4 -11 28 -11 54 0 39 4
49 23 58 33 17 65 16 87 -3z m273 10 c4 -3 2 -12 -4 -20 -8 -9 -8 -13 -1 -13
6 0 16 8 22 18 9 15 10 14 8 -8 -2 -16 2 -24 10 -22 8 1 12 -11 12 -38 0 -26
5 -42 17 -49 16 -9 16 -11 1 -43 -15 -29 -17 -30 -17 -10 -1 13 -5 20 -11 17
-5 -3 -10 -1 -10 4 0 6 5 11 10 11 6 0 10 5 10 11 0 6 -7 9 -15 5 -8 -3 -15
-1 -15 5 0 5 -12 7 -27 3 -19 -4 -24 -3 -14 4 8 6 9 12 3 16 -5 3 -12 0 -15
-8 -3 -7 -17 -16 -30 -18 -20 -4 -26 0 -30 19 -2 13 0 26 5 29 5 3 7 13 4 21
-4 9 -1 22 5 29 6 8 8 14 3 14 -4 0 1 7 12 15 20 15 56 20 67 8z m2657 -13
c27 -27 26 -104 -1 -97 -12 3 -16 0 -12 -9 4 -11 -6 -14 -41 -14 -39 0 -48 4
-57 24 -7 14 -9 40 -5 60 5 28 12 36 29 36 18 0 19 2 7 10 -11 7 -5 10 23 10
24 0 44 -7 57 -20z m534 8 c-6 -10 -4 -10 7 0 18 17 32 15 25 -4 -4 -11 -1
-14 12 -10 16 5 19 -1 21 -43 2 -49 2 -50 -34 -60 -40 -11 -90 1 -99 24 -3 8
-1 28 4 44 5 17 6 31 2 31 -3 0 3 7 14 15 24 18 58 20 48 3z m329 -5 c-2 -6 7
-15 18 -18 18 -6 20 -12 14 -43 -3 -21 -14 -43 -23 -49 -20 -16 -72 -17 -72
-2 0 6 -6 9 -14 6 -32 -13 -30 69 2 106 18 20 79 20 75 0z m867 6 c0 -5 5 -7
10 -4 6 3 10 1 10 -5 0 -6 3 -9 8 -7 4 3 7 -17 7 -44 0 -34 -4 -48 -12 -45 -7
3 -10 0 -7 -7 3 -9 -16 -12 -66 -12 -71 -1 -79 2 -59 22 5 5 11 24 11 40 1 21
6 30 17 29 9 -1 17 8 19 22 3 17 10 22 33 22 16 0 29 -5 29 -11z m892 -7 c-1
-7 5 -15 13 -18 11 -4 13 -16 9 -42 -3 -21 -10 -42 -14 -47 -13 -15 -79 -18
-96 -4 -18 14 -19 100 -2 117 17 17 94 12 90 -6z m-1145 -117 c-21 -15 -9 -28
13 -14 8 5 32 9 53 9 20 0 37 5 37 10 0 6 10 2 22 -9 l21 -20 -62 -61 c-34
-33 -66 -60 -71 -60 -6 0 -10 25 -10 55 0 42 -3 55 -15 55 -8 0 -15 5 -15 10
0 6 -7 10 -16 8 -32 -6 -26 22 8 36 39 17 65 3 35 -19z m-216 -1 c40 3 41 2
37 -26 -3 -16 -1 -31 4 -34 4 -3 8 4 8 16 0 12 4 19 9 15 15 -9 4 -46 -19 -62
-11 -8 -25 -24 -31 -36 -9 -17 -3 -14 23 11 38 36 48 39 48 16 0 -11 6 -14 20
-9 11 4 20 2 20 -4 0 -6 -7 -11 -15 -11 -8 0 -15 -4 -15 -10 0 -5 -6 -10 -14
-10 -7 0 -17 -10 -21 -22 -6 -20 -8 -20 -12 -5 -2 9 -14 17 -25 17 -11 0 -27
8 -34 18 -13 16 -14 16 -7 -3 6 -17 5 -18 -9 -5 -15 14 -14 17 10 37 15 12 33
22 40 23 6 0 12 5 12 10 0 15 -8 12 -44 -15 -38 -29 -43 -30 -62 -11 -9 9 -10
17 -4 21 5 3 10 16 10 29 0 28 24 81 28 62 2 -10 15 -13 43 -12z m-525 1 c-3
-9 0 -15 8 -15 10 0 13 -14 10 -55 -5 -91 -37 -123 -69 -67 -13 22 -15 23 -10
5 4 -14 2 -23 -4 -23 -6 0 -11 4 -11 10 0 5 -6 7 -14 4 -17 -7 -40 54 -30 82
13 35 26 47 36 32 6 -11 10 -10 17 1 5 8 15 11 23 8 8 -3 21 3 29 14 16 23 23
25 15 4z m249 5 c-4 -6 6 -10 23 -10 30 0 42 -14 42 -51 0 -10 5 -19 10 -19 6
0 10 -4 10 -10 0 -5 -7 -10 -15 -10 -8 0 -15 -5 -15 -11 0 -18 -44 -48 -71
-49 -30 0 -69 47 -69 83 0 28 40 70 47 50 3 -7 9 -13 14 -13 6 0 7 5 4 10 -4
6 -1 17 5 25 14 17 24 20 15 5z m-3761 -16 c11 -4 16 -19 16 -51 0 -27 -4 -42
-10 -38 -5 3 -10 2 -10 -4 0 -16 23 -61 31 -61 4 0 15 -3 25 -7 12 -4 15 -3
10 5 -4 7 -3 12 3 12 5 0 13 -4 16 -10 7 -12 26 -14 23 -2 -5 12 11 15 43 8
29 -6 31 -8 25 -38 -4 -18 -7 -44 -8 -57 0 -18 -2 -21 -9 -10 -7 12 -9 12 -10
-1 -1 -8 -1 -19 0 -23 1 -5 -3 -6 -8 -3 -5 4 -12 2 -16 -4 -7 -12 -30 -1 -62
30 -27 25 -31 15 -5 -13 13 -16 14 -19 2 -15 -8 2 -19 18 -24 34 -5 16 -11 36
-14 44 -3 8 -4 21 -3 27 1 7 -4 11 -11 9 -7 -1 -10 -1 -5 1 19 11 3 21 -44 27
-63 9 -74 20 -75 71 -1 73 42 86 93 28 18 -20 33 -31 33 -24 0 7 -12 22 -26
33 -20 16 -23 23 -12 29 16 10 13 10 32 3z m-1830 -16 c-5 -7 -3 -8 7 -2 25
15 52 15 46 0 -4 -10 0 -12 16 -8 19 5 20 3 9 -10 -9 -11 -10 -18 -2 -23 28
-17 -11 -76 -55 -82 -56 -8 -102 90 -57 123 21 17 46 18 36 2z m4750 -4 c22
-21 20 -77 -2 -98 -19 -16 -92 -19 -92 -3 0 4 -7 7 -15 7 -10 0 -15 10 -15 28
1 30 23 66 34 55 4 -4 4 0 0 10 -5 14 0 17 34 17 24 0 47 -7 56 -16z m296 3
c21 -16 25 -77 7 -101 -21 -28 -80 -27 -107 2 -23 24 -25 43 -8 60 9 9 9 12
-2 12 -9 0 -8 5 5 20 21 23 81 27 105 7z m2042 2 c17 -9 18 -13 7 -20 -10 -6
-11 -9 -1 -9 18 0 15 -56 -5 -75 -21 -22 -91 -14 -110 11 -17 23 -18 68 -1 58
7 -4 8 -3 4 5 -4 7 -5 18 -2 26 7 18 77 20 108 4z m-1677 -140 c4 -6 19 -9 33
-8 15 2 36 -2 47 -8 17 -10 18 -15 8 -31 -6 -11 -9 -29 -6 -40 4 -17 1 -20
-19 -16 -12 2 -17 2 -10 -2 6 -3 12 -12 12 -20 0 -19 -49 -18 -77 1 -21 15
-72 92 -52 79 8 -4 9 1 4 16 -6 19 -5 21 13 11 28 -15 37 -14 23 2 -11 13 -6
27 10 27 4 0 11 -5 14 -11z m671 -9 c0 -11 -7 -20 -16 -20 -10 0 -11 -3 -4 -8
19 -12 26 -50 13 -70 -17 -26 -126 -25 -141 2 -11 20 0 98 16 108 6 4 38 8 71
8 54 0 61 -2 61 -20z m-195 -117 c13 3 28 -1 37 -9 13 -14 10 -20 -29 -61 -24
-25 -35 -41 -24 -35 11 6 27 20 35 31 21 30 28 26 28 -14 0 -47 -20 -67 -53
-55 -18 7 -25 6 -26 -3 0 -6 -4 -3 -9 8 -8 19 -9 19 -9 1 -1 -14 -4 -16 -14
-7 -8 6 -17 7 -23 1 -6 -6 -15 -6 -24 0 -13 8 -12 10 3 10 16 0 18 7 16 50 -2
43 1 54 22 74 17 17 28 21 36 14 7 -6 23 -8 34 -5z m-4106 -13 c4 -6 13 -9 20
-8 8 2 13 1 12 -2 -1 -3 6 -18 16 -33 12 -19 16 -35 11 -50 -5 -12 -7 -25 -6
-29 1 -5 -1 -7 -5 -6 -5 1 -18 -3 -30 -10 -13 -7 -23 -9 -23 -5 0 4 -4 3 -8
-4 -5 -8 -12 -8 -27 3 -17 13 -18 16 -5 24 12 8 11 10 -6 10 -17 0 -21 6 -20
28 1 15 8 33 16 40 13 10 13 11 -2 6 -28 -10 -21 9 10 28 33 20 39 21 47 8z
m-1442 -15 c12 -11 17 -12 20 -2 3 6 6 -1 7 -18 1 -26 3 -27 10 -10 6 15 8 9
8 -25 0 -25 -2 -37 -5 -27 -7 29 -24 19 -17 -10 4 -22 3 -25 -5 -13 -9 13 -11
13 -11 -2 0 -14 -8 -18 -36 -18 -23 0 -42 6 -50 18 -17 22 -18 76 -2 102 15
24 60 27 81 5z m1754 9 c13 -4 20 -10 17 -15 -3 -5 -1 -9 4 -9 18 0 21 -74 4
-92 -19 -23 -79 -23 -104 -1 -22 20 -25 81 -3 89 8 4 15 12 15 20 0 15 29 18
67 8z m3521 -14 c24 -15 32 -27 32 -47 0 -47 -13 -56 -40 -28 -40 42 -45 28
-5 -16 20 -22 35 -42 33 -44 -10 -10 -82 16 -95 34 -8 12 -19 19 -24 16 -5 -4
-9 7 -9 24 0 16 -3 36 -6 44 -3 10 4 18 23 25 41 15 55 14 91 -8z m897 6 c16
-16 18 -72 3 -103 -9 -18 -20 -23 -50 -23 -22 0 -38 5 -38 12 0 6 -3 8 -7 5
-12 -13 -33 16 -33 47 0 42 13 59 47 64 15 2 30 5 32 8 9 8 33 4 46 -10z m587
-10 c13 -19 9 -83 -6 -95 -8 -7 -30 -14 -49 -18 -48 -7 -81 27 -73 77 7 47 31
63 81 54 22 -3 43 -12 47 -18z m271 12 c46 -27 51 -69 10 -104 -32 -28 -60
-30 -91 -9 -32 23 -26 95 9 112 31 16 44 16 72 1z m-1586 -190 c1 -47 -3 -65
-15 -74 -9 -7 -21 -9 -27 -5 -18 14 -46 21 -40 11 3 -6 1 -10 -4 -10 -6 0 -11
5 -11 10 0 6 -6 10 -13 10 -26 0 -14 30 12 31 14 0 35 4 46 9 14 6 7 7 -22 3
-29 -4 -48 -1 -64 11 -13 9 -18 16 -11 16 6 0 12 7 12 15 0 10 10 15 33 15 17
0 39 5 47 10 8 5 24 10 36 10 18 0 20 -6 21 -62z m-735 -121 c35 -45 10 -107
-43 -107 -17 0 -28 4 -24 10 3 6 -1 7 -9 4 -9 -3 -13 -11 -9 -18 4 -6 -1 -5
-10 3 -9 7 -14 17 -11 22 3 5 0 9 -5 9 -19 0 -12 51 10 82 19 26 26 29 53 24
17 -4 39 -16 48 -29z m573 8 c24 -25 35 -75 15 -75 -5 0 -7 -6 -4 -14 6 -15
-23 -26 -68 -26 -28 0 -58 31 -58 60 0 8 9 30 20 48 24 40 59 42 95 7z m860
13 c14 -6 25 -18 25 -25 0 -8 5 -11 10 -8 20 12 11 -65 -10 -82 -20 -17 -19
-18 13 -53 l32 -35 -40 38 c-24 21 -51 37 -65 37 -32 0 -54 15 -46 29 4 6 2
11 -3 11 -6 0 -11 14 -11 30 0 17 5 30 10 30 6 0 10 7 10 16 0 8 4 13 8 10 4
-2 14 -1 22 5 19 11 14 11 45 -3z m1487 -6 c16 -16 13 -103 -4 -113 -18 -12
-70 -11 -88 1 -8 5 -10 10 -5 10 6 0 5 4 -1 8 -6 4 -15 26 -19 50 -6 35 -4 42
9 42 9 0 16 4 16 9 0 13 78 7 92 -7z m-7593 -24 c11 -24 10 -34 -3 -63 -15
-30 -22 -35 -53 -35 -45 0 -73 24 -73 62 0 50 19 68 71 67 40 -2 47 -6 58 -31z
m141 -123 c14 -17 4 -119 -11 -109 -5 3 -9 0 -9 -5 0 -15 -73 -14 -88 1 -7 7
-12 34 -12 61 0 39 3 48 14 44 10 -4 13 -1 9 9 -7 20 80 20 97 -1z m4650 6
c14 -4 25 -12 25 -18 0 -6 3 -15 8 -19 4 -4 7 -20 7 -36 0 -24 -6 -32 -35 -44
-68 -28 -95 -11 -95 61 0 37 3 46 14 42 10 -4 13 -1 9 9 -6 15 22 18 67 5z
m318 -11 c28 -27 29 -79 2 -103 -47 -40 -120 -6 -120 57 0 26 4 36 15 36 9 0
18 7 21 15 9 22 57 18 82 -5z m521 11 c9 -6 22 -6 32 -1 26 14 40 -11 38 -64
-3 -53 -21 -75 -44 -56 -10 9 -15 9 -15 1 0 -14 -33 -9 -54 8 -20 17 -19 101
2 101 6 0 12 5 12 10 0 12 10 13 29 1z m348 -5 c-4 -10 -1 -13 9 -9 11 4 14
-6 14 -47 0 -41 -3 -51 -14 -47 -10 4 -13 1 -9 -9 4 -11 -5 -14 -40 -14 -56 0
-62 8 -69 85 -2 20 1 29 10 28 6 -2 11 0 11 5 -3 19 4 22 47 22 36 0 45 -3 41
-14z m2145 -118 c-17 -17 -15 -27 6 -23 9 1 12 0 5 -2 -6 -2 -14 -10 -17 -18
-4 -10 4 -9 29 5 35 20 35 20 35 -1 0 -12 4 -17 11 -14 7 5 8 -5 3 -32 -9 -49
-13 -56 -30 -49 -8 3 -17 -1 -21 -10 -4 -11 -13 -14 -32 -9 -38 10 -56 26 -39
37 9 6 10 10 2 16 -6 4 -13 13 -15 20 -3 8 -21 -5 -49 -33 -42 -42 -43 -45
-20 -45 15 0 20 -3 14 -8 -9 -5 -8 -11 2 -20 12 -10 14 -10 14 2 0 9 6 13 14
10 11 -4 14 -22 7 -56 0 -3 -9 -9 -18 -11 -14 -4 -13 -5 4 -6 13 -1 20 -7 19
-16 -4 -28 -20 -35 -48 -21 -15 8 -29 12 -32 8 -3 -3 -6 0 -6 6 0 6 -7 9 -17
5 -12 -5 -14 -3 -8 7 6 10 4 12 -11 7 -18 -7 -18 -7 0 8 11 8 14 15 7 15 -7 0
-10 4 -6 10 3 5 13 7 23 4 10 -4 13 -2 7 3 -24 20 -7 48 78 133 51 49 94 90
96 90 3 0 0 -5 -7 -12z m-8152 -35 c0 -9 3 -14 6 -10 10 10 34 -20 34 -42 0
-30 -39 -71 -69 -71 -37 0 -71 37 -71 77 0 23 4 32 12 27 7 -4 8 -3 4 4 -12
20 4 32 45 32 30 0 39 -4 39 -17z m4703 -1 c21 -18 12 -81 -15 -104 -25 -22
-61 -23 -81 -3 -8 8 -17 11 -21 8 -10 -10 -7 33 4 63 9 24 9 25 -5 14 -19 -16
-20 -2 -1 19 18 20 97 21 119 3z m298 -9 c5 -14 8 -41 7 -61 -1 -37 -1 -37 -8
8 l-7 45 -1 -41 c-2 -32 -7 -43 -26 -54 -52 -27 -109 25 -90 83 11 36 28 46
72 45 36 -1 45 -5 53 -25z m273 21 c8 -3 18 -22 22 -41 5 -29 2 -39 -22 -64
-35 -37 -64 -37 -92 1 -27 35 -28 59 -4 88 17 22 62 29 96 16z m302 -7 c3 -3
8 -23 11 -45 4 -32 1 -44 -16 -61 -23 -23 -61 -28 -61 -8 0 9 -2 9 -9 -1 -6
-10 -10 -10 -21 3 -16 19 -21 85 -6 85 6 0 4 5 -4 10 -13 9 -13 11 0 20 15 10
95 8 106 -3z m589 -4 c16 -39 16 -86 -1 -104 -20 -22 -71 -25 -96 -5 -23 17
-24 81 -3 90 8 3 15 11 14 18 0 10 -2 10 -6 1 -2 -7 -9 -13 -15 -13 -6 0 -6 6
2 15 18 22 96 20 105 -2z m1735 7 c0 -5 8 -10 18 -10 14 0 15 -2 2 -10 -10 -6
-11 -10 -2 -10 15 0 16 -44 2 -70 -13 -24 -71 -36 -99 -20 -19 9 -22 19 -20
62 2 40 7 52 23 58 29 12 76 12 76 0z m-8735 -173 c4 5 5 1 1 -7 -4 -8 -1 -6
8 4 8 10 13 22 11 27 -3 4 0 11 6 15 8 4 9 3 5 -4 -4 -7 -3 -12 3 -12 5 0 13
5 16 10 11 17 63 12 69 -7 21 -76 12 -129 -19 -117 -8 4 -15 2 -15 -3 0 -13
55 -64 63 -58 4 3 5 2 2 -2 -3 -3 1 -13 7 -21 17 -20 19 -42 2 -35 -8 3 -11 9
-8 14 8 13 -85 109 -101 103 -7 -3 -16 0 -20 5 -3 6 -11 8 -17 5 -7 -4 -8 -2
-4 5 4 6 2 18 -4 26 -7 8 -9 15 -4 15 5 0 -18 28 -51 62 -50 52 -51 55 -9 15
27 -26 54 -44 59 -40z m968 30 c20 -8 34 -17 30 -20 -3 -4 -1 -7 5 -7 18 0 15
-66 -4 -84 -19 -19 -74 -21 -98 -3 -10 8 -19 30 -22 57 -2 25 -1 39 2 33 3 -7
10 -13 15 -13 6 0 7 5 4 10 -9 15 2 40 17 40 7 0 30 -6 51 -13z m4942 2 c4 -5
17 -9 28 -8 35 3 57 -11 57 -37 0 -13 -5 -24 -11 -24 -6 0 -8 -8 -4 -19 13
-41 -94 -60 -115 -21 -12 22 -10 90 2 90 4 0 8 7 8 15 0 17 26 20 35 4z m3569
-12 c14 -13 23 -27 19 -31 -4 -3 -7 -21 -7 -38 -1 -29 -5 -33 -39 -41 -55 -13
-87 5 -87 50 0 20 5 33 13 33 8 0 7 4 -3 10 -13 8 -13 10 2 10 11 0 15 5 12
15 -10 26 60 19 90 -8z m-3367 -139 c16 -20 22 -57 11 -64 -7 -4 -7 -9 0 -13
7 -4 5 -13 -4 -26 -17 -23 -84 -26 -109 -5 -16 13 -21 80 -6 80 5 0 11 9 14
20 4 16 14 20 45 20 22 0 44 -6 49 -12z m598 -4 c8 -9 15 -23 15 -32 0 -15 -2
-15 -10 -2 -7 11 -10 2 -10 -31 0 -48 -12 -59 -60 -59 -45 1 -78 90 -45 123
19 19 91 20 110 1z m2621 8 c16 -10 24 -84 8 -78 -7 3 -14 -4 -17 -14 -3 -14
-1 -17 12 -13 13 5 14 3 3 -8 -15 -17 -90 -13 -109 6 -16 17 -18 79 -1 69 7
-4 8 -3 4 5 -16 25 3 41 46 41 24 0 48 -4 54 -8z m-3682 -144 c-5 -7 -2 -9 9
-5 23 9 35 -12 34 -58 -1 -45 -18 -64 -59 -65 -20 0 -28 5 -29 18 0 10 -3 12
-6 5 -2 -7 -11 -13 -19 -13 -15 0 -16 3 -19 62 -2 39 15 64 37 56 7 -3 22 -2
33 3 27 10 27 11 19 -3z m622 -12 c8 -12 10 -27 3 -48 -4 -17 -6 -34 -4 -39
14 -22 -66 -35 -102 -17 -26 13 -31 55 -8 64 8 4 15 11 15 16 0 6 -7 7 -16 4
-24 -9 -11 17 14 30 31 15 83 10 98 -10z m-6895 -141 c27 -14 30 -20 26 -56
-5 -51 -18 -63 -70 -65 -55 -2 -68 9 -56 45 5 15 8 38 7 51 -2 19 2 25 14 24
10 -1 15 2 12 7 -9 15 35 10 67 -6z m6115 6 c-4 -5 3 -7 14 -4 11 3 27 0 35
-7 19 -16 20 -84 0 -100 -14 -12 -100 -18 -111 -8 -3 3 -7 29 -9 57 -4 46 -2
51 15 51 11 0 20 5 20 10 0 6 9 10 21 10 11 0 18 -4 15 -9z m927 -8 c9 -6 5
-99 -6 -109 -13 -13 -82 -12 -101 2 -14 10 -16 14 -6 14 12 0 12 2 2 9 -17 11
-12 87 6 84 6 -2 12 2 12 8 0 12 72 5 93 -8z m2287 6 c0 -5 7 -9 16 -9 8 0 12
4 9 10 -3 6 1 7 9 4 16 -6 18 -14 20 -72 1 -40 -6 -47 -60 -56 -37 -5 -44 -3
-59 20 -9 15 -13 24 -7 20 5 -3 13 1 16 10 4 12 2 15 -9 10 -22 -8 -20 50 2
62 20 12 63 12 63 1z m-2730 -156 c29 -25 24 -108 -6 -96 -9 3 -14 0 -12 -8 2
-9 -8 -15 -26 -17 -18 -2 -26 0 -21 7 3 6 1 11 -6 11 -17 0 -49 40 -49 61 0
26 11 50 20 44 5 -3 11 -1 15 5 10 16 63 12 85 -7z m2635 -3 c34 -28 6 -100
-39 -100 -17 0 -18 -2 -6 -10 12 -8 9 -10 -13 -10 -16 0 -26 4 -23 9 3 5 -1
12 -10 15 -10 4 -13 2 -8 -7 5 -8 4 -9 -3 -2 -16 16 -24 113 -10 119 20 9 96
-1 112 -14z m-3400 -134 c38 -14 40 -16 39 -55 0 -51 -9 -60 -61 -64 -50 -4
-73 17 -73 67 0 23 7 38 23 49 27 20 24 20 72 3z m1499 -6 c7 -7 7 -16 0 -28
-6 -9 -8 -26 -4 -37 7 -18 8 -18 12 5 4 20 6 21 7 4 2 -37 -22 -57 -73 -59
-56 -3 -74 17 -57 66 6 18 6 27 1 24 -20 -13 -9 13 13 29 24 17 82 15 101 -4z
m1986 9 c0 -6 8 -8 18 -5 32 10 47 -10 47 -63 1 -38 -3 -50 -15 -50 -8 -1 -30
-3 -48 -5 -38 -5 -72 21 -72 53 0 36 19 73 35 67 8 -3 15 -1 15 4 0 6 5 10 10
10 6 0 10 -5 10 -11z m-611 -16 c-3 -20 2 -34 10 -28 10 5 6 -33 -3 -43 -3 -3
-14 6 -25 19 l-20 24 -36 -35 c-20 -19 -46 -48 -58 -65 -20 -29 -20 -29 -1
-12 23 19 59 23 70 6 11 -18 11 -103 0 -114 -6 -6 -28 -11 -48 -11 -28 0 -38
4 -38 15 0 13 -2 13 -9 2 -5 -7 -11 -9 -14 -4 -3 5 -2 15 4 23 14 24 10 35 -6
14 -12 -16 -14 -16 -15 -3 0 23 24 41 37 28 7 -7 12 -6 16 4 11 30 -46 8 -89
-34 -44 -43 -58 -74 -29 -63 9 4 15 0 15 -10 0 -9 7 -16 16 -16 9 0 12 5 8 13
-5 8 -2 8 9 -2 23 -18 22 -66 -2 -90 -23 -23 -94 -34 -86 -13 3 10 0 12 -10 8
-8 -3 -15 -1 -15 3 0 5 6 12 13 14 7 3 5 6 -5 6 -10 1 -18 8 -18 17 0 8 4 13
8 10 5 -3 9 1 9 9 0 17 -37 -7 -81 -54 l-30 -31 26 0 c14 0 31 -7 38 -15 16
-19 20 -85 7 -102 -12 -17 -103 -17 -113 -1 -12 19 -12 48 -1 55 6 4 7 1 2 -8
-5 -8 -4 -11 0 -6 5 4 9 17 10 28 1 16 -12 7 -59 -38 l-61 -58 53 55 c28 31
52 61 52 68 0 7 4 11 8 8 12 -7 294 279 285 289 -5 4 -3 5 3 2 6 -4 39 23 74
58 34 36 66 62 71 59 5 -3 9 -2 8 3 -3 15 1 23 11 23 6 0 9 -3 9 -7z m121
-153 c5 8 10 19 10 23 0 10 43 -2 51 -15 3 -5 9 -2 12 7 11 27 50 0 44 -31 -2
-13 0 -24 5 -24 12 0 0 -40 -18 -61 -12 -14 -12 -18 4 -32 19 -18 37 -23 28
-9 -3 5 0 9 7 10 7 1 24 4 39 8 19 4 32 0 48 -16 l22 -22 -7 24 c-7 22 -6 22
11 6 15 -15 16 -22 6 -55 -6 -21 -14 -48 -18 -61 -3 -13 -9 -21 -12 -17 -11
11 -11 39 0 52 7 9 7 17 -2 28 -12 14 -15 13 -30 -9 -13 -21 -19 -23 -30 -13
-9 8 -8 4 2 -13 9 -14 23 -24 32 -24 9 1 14 -2 11 -6 -3 -5 -17 -7 -31 -6 -29
3 -48 28 -49 63 -1 30 -53 83 -82 83 -13 0 -23 5 -23 11 0 6 7 9 15 6 8 -4 17
-2 19 2 5 7 -12 8 -47 2 -5 0 -5 -7 -1 -13 5 -9 2 -9 -9 1 -18 14 -23 26 -8
17 5 -4 11 -1 13 5 2 7 15 13 29 15 13 1 27 3 32 3 4 1 7 5 7 10 0 10 -43 9
-51 -1 -3 -4 -27 16 -55 45 -27 28 -34 38 -16 22 28 -25 34 -27 42 -15z
m-3404 16 c17 -18 18 -43 2 -49 -10 -4 -10 -8 0 -15 17 -12 12 -44 -7 -50 -10
-3 -12 0 -8 12 4 10 3 15 -3 11 -6 -3 -10 -12 -10 -19 0 -7 -8 -13 -17 -14
-32 -1 -73 9 -73 19 0 6 5 7 10 4 6 -3 10 -1 10 4 0 6 -5 11 -11 11 -11 0 -8
52 5 81 9 21 82 24 102 5z m886 -13 c10 -12 9 -21 -5 -45 -15 -25 -15 -29 -2
-24 18 7 20 -11 3 -27 -17 -16 -91 -15 -111 1 -34 28 -8 120 29 105 7 -2 15 0
18 5 8 13 53 3 68 -15z m-586 3 c16 -17 19 -40 3 -30 -7 4 -7 -1 1 -16 9 -18
9 -28 -1 -46 -9 -18 -15 -21 -21 -12 -6 10 -8 10 -8 1 0 -18 -35 -16 -70 2
-32 17 -38 43 -20 89 8 23 15 26 55 26 27 0 52 -6 61 -14z m880 0 c18 -19 18
-75 -1 -100 -8 -11 -15 -15 -15 -9 0 8 -10 8 -35 0 -29 -9 -38 -7 -55 8 -23
20 -28 83 -8 103 17 17 96 15 114 -2z m-1846 -91 c7 -9 19 -14 27 -11 7 3 13
1 13 -4 0 -5 -13 -8 -30 -8 -16 1 -27 5 -23 11 3 5 -4 4 -15 -2 -27 -14 -35
-28 -21 -36 7 -5 2 -16 -13 -32 -13 -14 -17 -23 -9 -21 19 4 23 -38 5 -53 -9
-8 -39 -13 -70 -12 -45 0 -57 -3 -65 -19 -8 -15 -8 -19 0 -14 17 11 13 -10 -4
-24 -12 -10 -15 -9 -15 5 0 13 -3 15 -13 6 -8 -6 -18 -7 -23 -3 -4 4 -3 0 4
-9 6 -9 8 -19 4 -23 -4 -4 0 -6 8 -4 11 2 15 -6 15 -27 0 -27 -4 -30 -32 -33
-20 -2 -33 1 -33 8 0 6 4 9 8 6 5 -3 9 1 9 8 0 7 -6 13 -13 13 -7 0 -11 -4 -8
-9 3 -4 -3 -8 -13 -8 -15 0 -16 -2 -3 -11 13 -9 13 -10 -1 -6 -11 4 -27 -6
-44 -24 -20 -23 -30 -28 -39 -20 -10 8 -13 6 -12 -12 1 -12 6 -28 10 -36 7
-11 5 -13 -7 -8 -8 3 -21 0 -27 -8 -10 -12 -8 -13 9 -10 35 7 43 15 30 31 -11
14 -10 15 12 18 6 0 16 9 23 18 10 14 12 12 13 -18 1 -31 -1 -33 -15 -22 -14
11 -14 10 1 -11 15 -23 15 -25 -1 -37 -20 -16 -46 -18 -37 -4 3 6 -3 10 -15
10 -12 0 -19 -4 -16 -8 2 -4 -11 -7 -29 -7 -21 0 -30 4 -26 10 5 6 7 30 6 54
-2 27 0 39 5 30 5 -7 12 -10 16 -6 4 3 1 13 -5 21 -10 11 -8 15 6 20 21 6 43
4 60 -7 6 -4 25 4 42 19 24 20 29 29 21 39 -8 9 -8 15 0 20 5 3 10 20 10 36 0
16 6 32 13 34 29 10 77 12 77 4 0 -5 14 3 31 18 17 16 36 27 41 25 5 -1 6 3 2
9 -4 8 -3 9 5 5 6 -4 9 -11 6 -16 -3 -4 1 -10 8 -13 8 -3 13 2 12 11 0 10 -4
17 -7 17 -3 0 -16 9 -29 20 -14 12 -19 13 -11 4 10 -14 10 -18 -2 -22 -11 -5
-14 2 -11 29 4 44 23 68 40 54 8 -7 16 -7 19 -2 3 5 15 12 26 15 11 3 18 1 15
-3 -3 -5 1 -10 7 -13 9 -3 3 -16 -17 -38 l-30 -34 33 29 c17 17 31 35 30 40
-3 13 31 66 42 66 4 0 13 -7 20 -15z m697 -122 c-1 26 4 41 18 51 19 15 19 15
-5 11 -24 -4 -24 -4 -5 11 37 28 147 2 118 -27 -7 -7 -10 -24 -7 -38 5 -31 -3
-46 -33 -55 -19 -6 -22 -4 -16 11 3 10 11 24 16 31 7 9 6 11 -6 6 -9 -3 -17
-14 -19 -25 -4 -27 -20 -26 -36 2 -13 24 -13 23 -7 -6 4 -17 30 -54 63 -87 56
-58 73 -61 67 -12 -1 14 2 21 8 17 6 -4 8 4 5 18 -3 20 0 24 21 26 14 2 41 0
59 -3 29 -4 32 -8 32 -39 0 -18 -3 -35 -7 -38 -5 -2 -2 -2 5 -1 23 6 12 -23
-13 -34 -32 -15 -48 -15 -40 -2 3 6 1 10 -4 10 -6 0 -11 -5 -11 -11 0 -7 -10
-9 -27 -4 -23 5 -25 4 -14 -9 37 -45 -9 -1 -149 142 -85 86 -123 126 -83 88
l72 -69 -2 36z m-1046 72 c13 -9 11 -89 -3 -103 -19 -19 -104 -15 -114 6 -12
28 -15 82 -4 82 5 0 10 6 10 14 0 12 11 14 51 11 28 -3 55 -7 60 -10z m587
-13 c16 -22 15 -53 -4 -80 -11 -16 -25 -22 -55 -22 -50 0 -65 15 -66 60 0 48
30 73 77 65 19 -3 41 -14 48 -23z m868 11 c17 -22 18 -85 2 -101 -20 -20 -91
-15 -111 8 -21 25 -22 64 -2 87 22 26 93 29 111 6z m369 -133 c-4 -6 5 -5 20
2 22 10 28 9 43 -8 17 -19 30 -80 15 -71 -5 3 -15 1 -23 -5 -12 -8 -12 -9 2
-4 10 3 20 1 23 -3 16 -27 -96 -49 -117 -24 -22 27 -18 92 6 108 24 17 40 20
31 5z m2669 -2 c-3 -4 2 -5 10 -2 9 3 21 0 29 -8 17 -17 17 -94 0 -90 -7 1
-13 -3 -13 -10 0 -6 -2 -9 -6 -6 -3 3 -20 2 -38 -2 -44 -10 -56 -1 -63 46 -6
48 17 81 58 81 16 0 26 -4 23 -9z m-7740 -150 c-5 -7 -2 -9 9 -5 11 4 14 2 10
-9 -3 -7 0 -14 6 -14 15 0 14 -52 -1 -72 -16 -19 -56 -30 -64 -16 -3 5 -12 7
-20 4 -25 -10 -46 24 -39 63 4 20 11 42 17 49 14 16 92 17 82 0z m3810 6 c9
-3 16 -12 16 -20 0 -8 5 -23 12 -34 20 -31 -6 -66 -53 -74 -62 -10 -75 2 -71
68 2 31 8 54 13 50 5 -3 9 0 9 5 0 12 48 15 74 5z m889 -23 c21 -35 22 -58 3
-77 -8 -7 -16 -19 -19 -26 -4 -10 -7 -11 -18 0 -7 6 -18 12 -23 12 -6 0 -4 -5
4 -10 12 -7 8 -10 -14 -10 -24 0 -27 -2 -16 -15 23 -28 4 -15 -31 21 -18 19
-27 34 -19 32 10 -2 14 8 15 39 0 23 4 45 9 50 5 5 6 3 2 -4 -4 -7 -2 -13 3
-13 6 0 11 7 11 15 0 11 11 15 38 15 31 0 41 -5 55 -29z m294 17 c29 -37 25
-108 -6 -108 -9 0 -22 -5 -28 -11 -7 -7 -17 -7 -29 -1 -11 6 -27 13 -36 16
-20 6 -26 76 -7 76 6 0 9 7 6 14 -4 10 -1 13 9 9 7 -3 14 0 14 6 0 15 65 14
77 -1z m584 2 c1 -5 2 -14 3 -19 0 -5 4 -13 9 -17 12 -12 8 -26 -5 -18 -10 6
-10 5 0 -8 10 -12 10 -18 -2 -28 -9 -6 -21 -8 -27 -4 -7 4 -9 3 -5 -4 6 -9
-20 -24 -49 -27 -24 -3 -45 29 -45 68 0 26 6 44 18 53 20 16 101 19 103 4z
m1747 -8 c11 -10 23 -34 27 -53 6 -31 3 -38 -19 -52 -29 -19 -68 -22 -97 -7
-14 8 -19 21 -19 53 0 49 12 73 30 62 9 -5 11 -4 6 3 -12 20 48 14 72 -6z
m-6881 -141 c12 -11 24 -17 27 -14 3 4 6 -9 6 -28 0 -52 -24 -79 -70 -79 -33
0 -41 4 -54 32 -21 42 -20 65 4 71 13 3 18 10 14 21 -9 24 47 21 73 -3z m3217
10 c11 -4 21 -16 24 -27 8 -35 2 -88 -11 -96 -20 -13 -77 -9 -93 6 -17 18 -19
92 -1 111 13 15 50 18 81 6z m602 -15 c6 -6 14 -30 17 -53 5 -41 0 -48 -25
-44 -5 0 -8 -3 -8 -9 0 -15 -63 -12 -85 3 -14 11 -17 22 -12 56 3 24 13 49 24
57 20 15 70 10 89 -10z m277 2 c-3 -17 -2 -19 5 -9 18 25 35 1 29 -41 -7 -52
-22 -68 -66 -68 -45 0 -58 8 -66 43 -15 58 15 95 77 96 22 1 25 -2 21 -21z
m601 1 c14 -13 19 -99 6 -99 -6 0 -9 -3 -7 -8 3 -4 -16 -8 -41 -9 -57 -2 -82
17 -82 63 0 33 24 69 40 59 5 -3 11 -1 15 5 7 11 54 3 69 -11z m-1303 -167 c7
-18 6 -28 -3 -34 -10 -6 -10 -8 0 -8 6 0 12 -5 12 -11 0 -19 -24 -36 -61 -43
-27 -5 -41 -2 -57 13 -24 20 -30 71 -9 71 9 0 8 3 -2 9 -24 15 22 37 69 33 33
-3 43 -9 51 -30z m3729 27 c0 -8 4 -8 13 -1 21 18 55 3 61 -27 6 -35 2 -69
-11 -82 -15 -15 -94 -20 -110 -8 -15 13 -10 94 8 115 14 17 39 19 39 3z
m-3884 -154 c15 -15 6 -101 -12 -115 -7 -6 -30 -10 -51 -8 -30 2 -41 9 -51 31
-10 20 -11 32 -3 41 6 7 8 15 5 19 -3 3 -3 15 1 27 6 18 13 21 53 19 26 -2 52
-8 58 -14z m214 3 c0 17 36 15 65 -4 19 -13 25 -25 25 -54 0 -46 -19 -64 -68
-65 -55 -1 -76 28 -57 80 5 16 5 17 -4 5 -7 -10 -11 -11 -11 -3 0 7 8 22 17
33 13 14 19 16 25 7 6 -9 8 -9 8 1z m4312 -145 c18 -16 22 -87 5 -101 -6 -5
-31 -13 -55 -17 -36 -6 -46 -4 -57 12 -17 21 -20 47 -5 38 6 -3 10 4 10 17 0
19 -2 20 -11 8 -8 -12 -9 -9 -3 9 3 14 11 30 17 36 14 15 80 13 99 -2z m-8490
-295 c9 -7 18 -31 20 -52 3 -34 0 -39 -19 -41 -27 -2 -39 -12 -29 -22 4 -4 11
-1 16 7 7 11 12 12 21 3 13 -13 -13 -23 -51 -19 -14 2 -31 4 -37 5 -22 2 -36
92 -19 119 10 16 78 15 98 0z m4402 -3 c14 -11 17 -22 12 -47 -3 -18 -5 -36
-3 -39 1 -3 -5 -14 -13 -23 -11 -14 -23 -17 -54 -11 -22 3 -44 11 -48 18 -11
17 -10 75 2 98 13 23 75 26 104 4z m4386 -12 c22 -29 24 -80 3 -75 -7 1 -12
-4 -10 -10 1 -7 -6 -12 -15 -10 -10 2 -18 -1 -18 -7 0 -11 -19 -9 -39 3 -11 7
-12 6 -6 -5 8 -12 6 -12 -9 0 -12 10 -13 16 -6 21 8 5 7 9 -4 13 -18 7 -23 67
-5 67 5 0 8 4 5 9 -8 12 11 19 51 20 23 1 37 -6 53 -26z m-4844 -419 c-4 -9
-2 -13 5 -8 18 11 27 -15 21 -60 -6 -48 -14 -56 -64 -56 -41 0 -53 12 -50 50
1 23 1 23 -7 5 -8 -17 -10 -15 -10 13 -1 42 16 60 65 65 21 2 41 4 43 5 2 1 0
-5 -3 -14z m-3942 -146 c27 -11 28 -13 21 -62 -7 -59 -16 -67 -68 -64 -43 2
-52 10 -60 56 -13 64 39 98 107 70z m416 -149 c0 -5 4 -8 9 -5 16 10 33 -23
29 -54 -3 -16 0 -30 5 -30 22 0 -18 -30 -48 -36 -51 -9 -83 17 -81 65 0 21 7
45 15 54 15 19 71 23 71 6z m6723 -2 c-4 -7 1 -6 11 2 15 13 18 12 23 -7 3
-12 9 -22 14 -22 5 0 9 -7 9 -15 0 -8 -5 -15 -11 -15 -7 0 -9 -10 -5 -25 5
-20 3 -23 -11 -18 -10 4 -14 3 -9 -5 4 -7 -6 -13 -29 -18 -27 -5 -41 -2 -55
11 -24 22 -27 81 -5 105 18 20 80 26 68 7z m-6549 -140 c19 -14 36 -109 20
-106 -21 4 -35 -2 -29 -11 8 -13 -46 -13 -79 0 -21 8 -26 16 -26 44 0 28 6 38
29 52 17 10 28 21 25 26 -8 13 41 9 60 -5z m6720 0 c25 -19 34 -98 12 -116 -9
-8 -16 -9 -16 -3 0 6 6 13 13 15 9 4 9 6 -1 6 -7 1 -15 -6 -18 -14 -9 -22 -57
-18 -83 6 -17 16 -21 27 -16 48 4 14 8 31 8 38 0 7 3 12 6 11 20 -2 31 3 26
12 -9 15 48 12 69 -3z m-6290 -150 c23 -17 38 -93 21 -107 -7 -6 -21 -7 -30
-3 -13 4 -16 3 -11 -5 9 -15 -23 -16 -59 -2 -23 9 -26 15 -24 55 2 25 5 49 8
53 15 23 69 28 95 9z m298 4 c11 -1 24 -55 20 -84 -2 -19 -12 -31 -28 -38 -66
-24 -106 2 -100 66 4 46 25 64 69 59 18 -1 35 -3 39 -3z m5859 -12 c0 -5 1
-27 1 -49 0 -59 -1 -62 -12 -55 -5 3 -10 1 -10 -4 0 -15 -63 -14 -84 2 -13 10
-17 24 -14 62 l3 50 40 5 c45 6 75 2 76 -11z m286 6 c19 -4 21 -11 18 -49 -1
-24 -6 -49 -9 -55 -10 -15 -87 -13 -108 3 -20 15 -23 54 -7 88 10 24 36 27
106 13z m-6575 -144 c3 0 6 -16 6 -35 0 -19 3 -39 6 -45 4 -6 -2 -19 -12 -29
-23 -23 -82 -19 -83 7 0 12 -2 11 -8 -4 -8 -19 -8 -19 -20 3 -12 22 -11 78 2
99 6 10 68 12 109 4z m208 -295 c0 6 14 11 30 12 34 1 36 -5 15 -35 -10 -14
-22 -20 -33 -16 -13 4 -13 2 3 -10 20 -15 19 -16 -19 -56 -25 -26 -40 -51 -41
-68 -2 -35 -23 -75 -35 -68 -6 3 -7 -1 -4 -9 4 -12 0 -14 -19 -10 -14 2 -29 0
-32 -6 -4 -6 -11 -8 -16 -4 -6 3 -19 -2 -29 -11 -15 -14 -18 -26 -13 -60 6
-45 -5 -62 -35 -50 -14 5 -14 7 -2 15 9 6 18 5 23 -3 6 -8 7 -8 4 3 -2 8 -11
14 -21 12 -9 -2 -16 2 -16 8 0 5 4 10 9 10 5 0 12 7 15 16 3 8 2 13 -3 9 -5
-3 -16 2 -24 10 -22 21 -23 19 -22 -17 1 -18 -5 -40 -13 -50 -11 -13 -11 -17
0 -24 7 -4 10 -4 6 1 -8 9 9 35 22 35 5 0 7 -7 6 -16 -3 -20 -32 -38 -47 -28
-18 11 -57 -34 -51 -61 2 -14 1 -37 -3 -52 -5 -21 -8 -24 -15 -13 -5 8 -15 15
-22 16 -33 3 -38 5 -38 15 0 6 8 8 19 4 11 -3 21 0 24 8 3 8 0 14 -6 15 -7 0
-22 3 -34 6 -13 2 -25 0 -29 -5 -3 -5 -2 -8 3 -7 4 2 9 0 11 -4 6 -19 1 -28
-15 -29 -16 -1 -16 -2 1 -6 16 -4 12 -11 -25 -50 -24 -24 -36 -41 -26 -37 14
5 17 1 17 -25 0 -17 -5 -40 -12 -50 -10 -16 -14 -17 -25 -5 -8 8 -11 20 -8 26
4 7 -1 4 -9 -6 -9 -11 -19 -17 -22 -13 -4 4 -1 14 6 23 16 18 21 54 8 54 -5 0
-8 -8 -7 -17 3 -32 -1 -37 -14 -19 -12 16 -14 16 -14 2 0 -9 4 -16 9 -16 5 0
6 -5 2 -11 -9 -15 -23 8 -19 30 2 9 4 20 4 24 1 5 6 5 11 2 7 -4 9 2 7 17 -2
12 -2 17 0 10 3 -8 9 -10 16 -4 16 12 47 23 47 16 0 -2 -10 -9 -22 -14 -22 -8
-22 -9 -2 -9 27 -1 64 39 59 64 -18 92 -18 92 64 101 42 4 45 3 27 -11 -11 -8
-17 -17 -15 -20 8 -8 79 55 79 71 0 8 5 14 10 14 6 0 10 4 10 10 0 15 -28 0
-33 -18 -3 -10 -5 -5 -6 11 0 15 4 27 10 27 7 0 9 10 7 25 -6 30 4 38 54 41
30 2 36 -1 30 -14 -4 -12 1 -11 25 6 16 11 36 29 44 38 12 16 12 17 -2 12 -13
-5 -16 -2 -11 15 2 12 9 28 15 35 7 8 5 12 -7 12 -15 0 -15 2 0 25 15 24 53
37 38 14 -5 -8 -1 -8 14 0 27 14 29 14 36 -5 4 -11 2 -15 -8 -11 -20 8 -27 -3
-16 -24 7 -12 7 -20 0 -24 -5 -3 -10 -1 -10 5 0 6 -5 8 -11 4 -8 -4 -7 -9 2
-15 15 -9 42 8 33 22 -3 5 21 33 52 63 42 40 53 55 43 61 -8 5 -11 5 -7 0 9
-10 -10 -35 -26 -35 -7 0 -12 9 -13 20 -1 11 2 18 8 15 5 -4 9 3 9 15 0 13 -4
19 -12 14 -6 -4 -9 -3 -6 2 3 5 8 18 12 29 6 16 9 17 16 5 6 -8 10 -10 10 -4z
m6728 -726 c9 7 9 7 2 -2 -6 -8 -5 -17 3 -27 10 -14 10 -14 -4 -4 -13 11 -19
9 -34 -7 -11 -12 -20 -30 -22 -42 -5 -30 -23 -49 -44 -46 -23 4 -99 -70 -92
-88 3 -8 0 -14 -7 -14 -6 0 -8 -6 -4 -12 4 -7 -1 -5 -11 4 -16 15 -16 19 -4
34 12 15 12 17 -1 12 -8 -3 -16 -13 -16 -24 -1 -10 -2 -23 -3 -28 -1 -6 -7 -2
-14 9 -11 14 -16 15 -22 5 -6 -10 -9 -9 -16 1 -6 10 -9 10 -9 2 0 -6 4 -14 10
-18 5 -3 7 -13 4 -23 -5 -14 -2 -13 11 3 13 16 17 17 24 6 7 -11 11 -10 20 5
11 18 12 18 9 -1 -2 -13 -11 -20 -25 -20 -26 0 -95 -64 -89 -82 8 -19 -26 -54
-56 -57 -17 -2 -25 1 -21 7 4 6 0 8 -10 4 -22 -8 -57 26 -57 57 0 14 5 26 10
26 6 0 10 6 10 13 0 7 8 13 18 14 9 1 22 2 27 3 32 7 56 -1 54 -17 -3 -33 1
-44 12 -37 8 4 8 9 1 13 -7 4 -8 12 -2 21 8 12 10 12 10 -4 0 -18 2 -18 26 5
l25 24 -20 16 c-21 17 -29 35 -11 24 6 -3 10 -1 10 4 0 6 -4 11 -8 11 -15 0
-12 61 3 76 11 12 15 12 15 2 0 -8 3 -9 8 -3 11 15 82 13 82 -3 0 -7 4 -10 10
-7 6 4 7 -1 3 -12 -4 -11 8 -5 30 16 35 33 36 36 20 53 -11 12 -19 15 -23 7
-5 -6 -9 -3 -13 10 -3 12 0 21 6 21 8 0 8 3 -1 8 -15 10 0 61 18 63 76 6 115
-3 106 -26 -7 -18 5 -20 22 -3 10 10 -56 81 -310 338 l-323 325 325 -323 c240
-238 329 -320 338 -312z m-3041 592 c-23 -24 -26 -33 -19 -53 5 -13 12 -36 16
-51 6 -24 4 -26 -24 -24 -16 1 -33 6 -37 11 -5 4 -2 5 6 0 11 -6 13 -4 8 9 -4
10 -7 25 -7 34 0 11 -12 4 -39 -22 -34 -33 -38 -41 -26 -53 8 -7 20 -12 27
-11 10 2 12 -10 10 -46 -3 -61 -11 -71 -61 -74 -33 -2 -40 0 -35 13 6 13 -6
20 -28 16 -5 0 -8 7 -8 16 0 13 -7 10 -30 -12 -31 -30 -35 -52 -8 -47 9 1 22
-6 29 -15 13 -16 12 -17 -3 -4 -11 8 -18 9 -18 3 0 -6 5 -14 10 -17 18 -11 11
-70 -10 -88 -14 -11 -20 -13 -21 -4 0 9 -2 9 -6 -1 -4 -10 -8 -9 -19 5 -13 17
-13 17 -14 0 0 -15 -3 -16 -21 -6 -12 6 -24 20 -26 30 -3 10 -8 19 -12 19 -13
0 -65 -60 -53 -61 7 -1 16 -2 21 -3 6 0 16 -7 23 -15 10 -10 10 -12 1 -7 -15
8 -18 -10 -4 -18 11 -7 3 -66 -11 -84 -7 -8 -29 -12 -54 -11 -24 2 -42 5 -39
7 2 2 -3 11 -11 19 -18 18 -10 31 8 15 10 -8 13 -4 14 14 2 27 0 28 -25 14
-16 -8 -17 -6 -13 16 2 14 7 22 10 19 3 -2 12 4 19 15 8 11 18 18 23 15 11 -7
111 104 108 120 -2 8 1 14 6 15 14 1 17 -32 4 -47 -7 -9 -7 -13 0 -13 17 0 35
37 21 42 -6 2 14 28 45 59 32 30 58 61 59 69 2 8 8 23 13 34 11 18 12 18 26
-2 l14 -21 14 22 c12 21 12 21 -6 7 -10 -8 -17 -11 -14 -8 13 18 184 188 189
188 2 0 -8 -13 -22 -28z m-276 -4 c0 -10 2 -10 6 -1 3 10 9 10 24 0 22 -14 28
-87 7 -87 -10 0 -9 -3 1 -9 20 -13 -18 -31 -64 -31 -29 0 -37 5 -45 26 -17 43
-12 81 12 98 27 19 58 21 59 4z m1469 2 c-12 -8 -9 -10 13 -10 27 0 28 -1 26
-50 -2 -35 -7 -50 -16 -50 -8 0 -11 -5 -8 -11 5 -7 -9 -9 -41 -7 -45 3 -49 5
-58 35 -9 35 8 98 25 87 5 -3 9 0 9 5 0 6 15 11 33 11 24 0 28 -3 17 -10z
m1485 -15 c48 -47 22 -115 -45 -115 -63 0 -91 62 -52 115 23 32 65 32 97 0z
m-5120 -142 c-2 -7 1 -12 8 -10 8 1 12 -13 12 -43 0 -29 -5 -44 -12 -43 -7 2
-10 -3 -7 -10 7 -18 -67 -22 -78 -4 -4 6 -13 12 -20 12 -18 0 -19 75 -2 95 16
19 107 22 99 3z m4974 1 c20 -14 23 -23 18 -61 -2 -24 -7 -47 -10 -50 -3 -3
-26 -8 -51 -10 -36 -4 -46 -2 -54 13 -16 29 -19 99 -5 99 7 0 18 6 25 13 17
17 49 15 77 -4z m306 -3 c8 -27 3 -101 -7 -95 -4 3 -11 -2 -14 -10 -8 -21 -53
-20 -82 0 -19 13 -23 23 -20 62 3 45 4 47 38 53 64 12 78 10 85 -10z m-3820
-128 c26 -32 55 -44 55 -22 0 5 -5 7 -12 3 -7 -5 -8 -3 -3 5 6 10 78 11 123 2
1 -1 2 -9 2 -18 0 -15 -2 -16 -10 -3 -5 8 -10 11 -10 6 0 -5 7 -17 16 -27 14
-15 14 -20 -1 -54 -14 -35 -14 -40 1 -56 13 -14 20 -16 40 -7 13 6 21 15 18
19 -3 5 2 9 11 9 9 0 13 -4 10 -10 -3 -5 1 -10 10 -10 9 0 13 5 10 10 -9 15
31 12 43 -3 15 -18 10 -109 -6 -115 -7 -2 -28 13 -47 33 -19 20 -32 30 -29 22
3 -9 -3 -16 -15 -20 -14 -3 -18 -1 -14 9 8 21 -73 98 -93 90 -28 -11 -61 19
-62 54 -1 54 -75 115 -123 103 -22 -6 -23 -5 -9 12 8 11 10 16 3 11 -9 -5 -11
-2 -6 10 4 12 3 15 -5 10 -7 -4 -12 -3 -12 3 0 35 58 1 115 -66z m2796 -20
c11 -12 11 -17 2 -20 -9 -3 -9 -9 -1 -22 8 -13 6 -25 -7 -50 -17 -34 -17 -34
-86 -19 -8 2 -19 11 -24 21 -13 20 -7 89 6 81 5 -3 6 2 3 10 -9 24 88 23 107
-1z m877 -8 c21 -46 15 -81 -15 -94 -55 -22 -75 -18 -96 17 -19 33 -17 89 3
77 6 -3 10 1 10 9 0 12 11 16 43 16 37 0 46 -4 55 -25z m-4548 -132 c0 -7 4
-13 10 -13 18 0 23 -67 6 -92 l-16 -22 -1 24 c-1 22 -2 23 -7 5 -8 -24 -47
-31 -78 -14 -20 10 -23 20 -22 60 0 40 4 50 21 55 12 4 23 2 25 -5 2 -6 10
-11 18 -11 7 0 11 6 8 13 -3 8 3 13 16 13 11 0 20 -6 20 -13z m1182 -150 c16
-18 28 -34 26 -36 -2 -2 3 -11 11 -20 7 -10 9 -17 4 -17 -5 0 -10 -7 -10 -16
0 -15 1 -15 12 0 7 8 16 12 20 8 5 -4 5 -2 1 5 -3 6 2 17 11 23 15 10 15 11 1
6 -24 -7 -30 5 -10 21 15 13 15 13 -5 4 -16 -8 -22 -7 -27 4 -4 11 4 20 22 27
15 7 40 23 57 37 l30 26 -23 -26 c-12 -14 -19 -29 -15 -32 3 -4 0 -7 -7 -7 -7
0 -10 -3 -7 -6 4 -4 14 -1 24 7 15 12 16 12 10 -5 -5 -14 -3 -17 8 -12 21 8
28 -30 16 -96 0 -5 -8 -8 -17 -8 -9 0 -12 -5 -8 -12 5 -7 3 -8 -6 -3 -8 5 -28
10 -46 11 -43 3 -57 12 -51 35 6 22 -3 24 -23 7 -8 -7 -7 -4 3 8 9 11 17 25
17 31 0 20 -65 68 -90 67 -32 -2 -50 5 -50 19 0 7 4 7 12 -1 7 -7 17 -12 23
-12 5 0 3 5 -5 10 -13 9 -13 11 0 20 16 10 37 -6 92 -67z m-1317 6 c2 -2 5
-24 8 -50 7 -65 -9 -82 -68 -76 -26 3 -49 7 -51 10 -3 3 -7 21 -9 41 -2 25 1
36 10 36 7 0 16 8 20 18 5 14 4 15 -6 5 -20 -20 -30 -15 -17 7 11 18 21 20 61
17 27 -3 50 -6 52 -8z m1173 -11 c17 -14 15 -83 -3 -98 -8 -7 -15 -9 -15 -4 0
4 -5 3 -12 -4 -20 -20 -65 -14 -82 10 -20 28 -21 76 -1 98 16 17 90 16 113 -2z
m1732 5 c0 -16 2 -16 11 -3 9 12 10 11 6 -7 -6 -27 9 -41 16 -16 3 10 5 2 6
-17 0 -35 -19 -73 -35 -69 -5 1 -22 -1 -37 -6 -53 -14 -88 57 -57 116 15 26
90 28 90 2z m883 0 c-2 -7 4 -13 12 -13 11 0 15 -11 15 -40 0 -30 -4 -40 -16
-40 -8 0 -13 -4 -9 -9 8 -14 -31 -23 -65 -16 -25 6 -30 11 -30 36 0 18 -4 28
-10 24 -5 -3 -10 1 -10 10 0 9 5 13 10 10 6 -3 10 -1 10 4 0 6 -5 11 -12 11
-6 0 -3 9 7 20 14 16 29 20 59 18 26 -2 40 -8 39 -15z m-5958 -173 c127 -125
144 -145 124 -148 -13 -2 -45 -13 -71 -23 -54 -21 -70 -24 -48 -8 12 9 13 12
1 16 -11 5 -11 7 0 14 12 7 12 9 0 9 -8 0 -2 9 13 21 14 11 29 18 34 15 4 -2
13 -1 20 3 8 5 -3 21 -33 51 l-45 44 0 -28 c0 -37 -35 -65 -82 -66 -34 0 -40
4 -37 26 0 4 -5 10 -11 14 -8 5 -9 22 -5 54 l7 46 41 0 41 0 -54 57 c-87 92
-52 59 105 -97z m264 12 c40 -57 9 -116 -57 -108 -43 6 -44 7 -52 60 -8 54 5
71 54 74 28 2 38 -3 55 -26z m6135 15 c19 -19 28 -93 13 -104 -22 -18 -65 -23
-91 -12 -45 21 -47 119 -2 111 9 -2 16 2 16 8 0 14 49 13 64 -3z m-1607 -149
c24 -22 30 -62 13 -88 -5 -8 -10 -10 -10 -5 0 6 -5 2 -11 -8 -8 -14 -18 -16
-47 -11 -51 9 -62 21 -62 65 0 32 5 41 28 53 38 21 62 20 89 -6z m2303 11
c-12 -8 -9 -9 12 -5 23 5 28 2 38 -28 12 -37 5 -85 -14 -87 -79 -10 -116 8
-116 58 0 31 42 73 73 73 18 0 19 -2 7 -11z m-2150 -154 c13 -16 16 -93 4
-105 -19 -19 -82 -24 -98 -8 -26 27 -25 114 2 121 29 8 83 3 92 -8z m-2486
-440 c20 -20 20 -99 -1 -91 -8 3 -11 2 -8 -4 5 -8 -24 -30 -39 -30 -14 0 -4
19 12 23 13 4 12 5 -5 6 -12 0 -26 -6 -30 -14 -9 -15 -20 -11 -42 18 -11 14
-11 20 0 34 10 11 10 14 2 9 -9 -5 -13 -1 -13 13 0 43 90 69 124 36z"/>
</g>
</svg>
