<?xml version="1.0" encoding="utf-8"?>
<!-- Generator: Adobe Illustrator 23.0.2, SVG Export Plug-In . SVG Version: 6.00 Build 0)  -->
<svg version="1.1" id="katman_1" xmlns="http://www.w3.org/2000/svg" xmlns:xlink="http://www.w3.org/1999/xlink" x="0px" y="0px"
	 viewBox="0 0 841.89 595.28" style="enable-background:new 0 0 841.89 595.28;" xml:space="preserve">
<style type="text/css">
	.st0{fill:#318BA3;}
	.st1{fill:#FBCEA9;}
	.st2{fill:#29363B;}
	.st3{fill:#13ABBD;}
	.st4{fill:#F18807;}
	.st5{fill:#EFC0A0;}
	.st6{fill:#191325;}
	.st7{fill:#C7133B;}
	.st8{fill:#F0817D;}
</style>
<path class="st0" d="M347.76,229.04L347.76,229.04c-6.22-6.22-6.22-16.29,0-22.51l44.63-44.63c6.22-6.22,16.29-6.22,22.51,0l0,0
	c6.22,6.22,6.22,16.29,0,22.51l-44.63,44.63C364.06,235.25,353.98,235.25,347.76,229.04z"/>
<path class="st0" d="M540.19,225.64L540.19,225.64c6.22-6.22,6.22-16.29,0-22.51l-41.23-41.23c-6.22-6.22-16.29-6.22-22.51,0v0
	c-6.22,6.22-6.22,16.29,0,22.51l41.23,41.23C523.9,231.86,533.97,231.86,540.19,225.64z"/>
<rect x="430.08" y="139.4" class="st1" width="30.82" height="15.41"/>
<rect x="460.74" y="297.64" class="st2" width="25.77" height="179.55"/>
<rect x="402.38" y="297.64" class="st2" width="25.77" height="179.33"/>
<g>
	<path class="st3" d="M486.51,182.75c0-16.05-13.13-29.18-29.18-29.18h-25.77c-16.05,0-29.18,13.13-29.18,29.18v81.16h84.13V182.75z
		"/>
	<path class="st2" d="M444.44,335.02L444.44,335.02c23.13,0,42.06-18.93,42.06-42.06v-29.05h-84.13v29.05
		C402.38,316.09,421.31,335.02,444.44,335.02z"/>
	<path class="st4" d="M411.09,450.91L411.09,450.91c-9.38,0-17.05,7-17.05,15.54v10.73h34.11v-10.73
		C428.15,457.91,420.47,450.91,411.09,450.91z"/>
	<path class="st4" d="M477.79,450.91L477.79,450.91c-9.38,0-17.05,7-17.05,15.54v10.73h34.11v-10.73
		C494.84,457.91,487.17,450.91,477.79,450.91z"/>
</g>
<path class="st1" d="M539.65,203.68L539.65,203.68c-6.22-6.22-16.29-6.22-22.51,0l-42.07,42.07c-6.22,6.22-6.22,16.29,0,22.51l0,0
	c6.22,6.22,16.29,6.22,22.51,0l42.07-42.07C545.86,219.97,545.86,209.89,539.65,203.68z"/>
<path class="st1" d="M347.64,206.41L347.64,206.41c6.22-6.22,16.29-6.22,22.51,0l39.31,39.31c6.22,6.22,6.22,16.29,0,22.51l0,0
	c-6.22,6.22-16.29,6.22-22.51,0l-39.31-39.31C341.43,222.7,341.43,212.62,347.64,206.41z"/>
<g>
	<ellipse class="st5" cx="416.42" cy="88.15" rx="6.05" ry="6.14"/>
	<ellipse class="st5" cx="474.55" cy="86.94" rx="6.05" ry="6.14"/>
	<path class="st2" d="M446.21,124.52h-1.44c-15.65,0-28.35-12.69-28.35-28.35V56.29c0-15.65,12.69-28.35,28.35-28.35h1.44
		c15.65,0,28.35,12.69,28.35,28.35v39.88C474.55,111.82,461.86,124.52,446.21,124.52z"/>
	<path class="st1" d="M447.3,118.98h-3.63c-12.95,0-23.45-10.5-23.45-23.45V72.14c0-12.95,10.5-23.45,23.45-23.45h3.63
		c12.95,0,23.45,10.5,23.45,23.45v23.39C470.75,108.48,460.25,118.98,447.3,118.98z"/>
	<path class="st2" d="M414.41,119.13v-0.3c0-11.94,9.68-21.61,21.61-21.61h18.92c11.94,0,21.61,9.68,21.61,21.61v0.3
		c0,11.94-9.68,21.61-21.61,21.61h-18.92C424.09,140.75,414.41,131.07,414.41,119.13z"/>
	<path class="st1" d="M428.72,112.59v-0.96c0-6.59,5.34-11.93,11.93-11.93h9.68c6.59,0,11.93,5.34,11.93,11.93v0.96
		c0,6.59-5.34,11.93-11.93,11.93h-9.68C434.06,124.52,428.72,119.18,428.72,112.59z"/>
	<ellipse class="st6" cx="431.66" cy="82.01" rx="2.94" ry="2.49"/>
	<ellipse class="st6" cx="459.32" cy="82.01" rx="2.94" ry="2.49"/>
	<path class="st6" d="M436.6,112.11c1.94-2.09,4.7-3.4,7.77-3.4s5.83,1.31,7.77,3.4c1.29-1.67,2.07-3.76,2.07-6.04
		c0-0.7-0.08-1.39-0.22-2.05h-19.24c-0.14,0.66-0.22,1.35-0.22,2.05C434.53,108.35,435.31,110.44,436.6,112.11z"/>
	<path class="st7" d="M444.37,108.5c-3.07,0-5.83,1.31-7.77,3.4c1.8,2.32,4.6,3.82,7.77,3.82s5.97-1.5,7.77-3.82
		C450.2,109.81,447.44,108.5,444.37,108.5z"/>
	<path class="st2" d="M472.58,70.29L472.58,70.29c-3.46,4.41-9.79,5.14-14.14,1.63l-20.99-16.94c-4.35-3.51-5.07-9.93-1.61-14.34
		l0,0c3.46-4.41,9.79-5.14,14.14-1.63l20.99,16.94C475.32,59.46,476.04,65.88,472.58,70.29z"/>
	<ellipse class="st1" cx="444.37" cy="94.28" rx="4.47" ry="4.53"/>
</g>
<circle class="st8" cx="420.95" cy="256.35" r="6.16"/>
<circle class="st8" cx="465.48" cy="255.69" r="6.16"/>
<rect x="426.98" y="144.26" class="st3" width="37.02" height="32.61"/>
<circle class="st1" cx="409.46" cy="268.22" r="18.69"/>
<circle class="st1" cx="475.07" cy="268.25" r="18.69"/>
</svg>
