<?xml version="1.0" encoding="utf-8"?>
<!-- Generator: Adobe Illustrator 23.0.2, SVG Export Plug-In . SVG Version: 6.00 Build 0)  -->
<svg version="1.1" id="katman_1" xmlns="http://www.w3.org/2000/svg" xmlns:xlink="http://www.w3.org/1999/xlink" x="0px" y="0px"
	 viewBox="0 0 841.89 595.28" style="enable-background:new 0 0 841.89 595.28;" xml:space="preserve">
<style type="text/css">
	.st0{fill:#F1C27D;}
	.st1{fill:#F9C5A8;stroke:#000000;stroke-width:0.7294;stroke-miterlimit:10;}
	.st2{fill:#F18786;stroke:#000000;stroke-width:0.7294;stroke-miterlimit:10;}
	.st3{fill:#F3D0B4;stroke:#000000;stroke-width:1.101;stroke-miterlimit:10;}
	.st4{fill:#191325;stroke:#000000;stroke-width:0.7294;stroke-miterlimit:10;}
	.st5{fill:#EA563C;stroke:#000000;stroke-width:0.7294;stroke-miterlimit:10;}
	.st6{fill:#FFFFFF;stroke:#000000;stroke-width:1.0163;stroke-miterlimit:10;}
	.st7{fill:#191325;stroke:#000000;stroke-width:1.0163;stroke-miterlimit:10;}
	.st8{fill:#C7133B;stroke:#000000;stroke-width:1.0163;stroke-miterlimit:10;}
	.st9{fill:#F18786;stroke:#000000;stroke-width:0.6001;stroke-miterlimit:10;}
	.st10{fill:#161C34;}
	.st11{fill:#53C3F1;}
	.st12{fill:none;}
	.st13{fill:#C71624;}
	.st14{fill:#67378D;}
	.st15{fill:#F28F1A;}
	.st16{fill:#34499A;}
	.st17{fill:#514999;}
	.st18{fill:#F0CFC5;}
</style>
<path class="st0" d="M408.75,215.85L408.75,215.85c-4.6,0-8.34-3.73-8.34-8.34v-6.66c0-4.6,3.73-8.34,8.34-8.34l0,0
	c4.6,0,8.34,3.73,8.34,8.34v6.66C417.09,212.12,413.36,215.85,408.75,215.85z"/>
<ellipse class="st1" cx="451.93" cy="128.14" rx="11.32" ry="12.09"/>
<ellipse class="st2" cx="451.93" cy="128.14" rx="6.2" ry="6.62"/>
<ellipse class="st1" cx="368.54" cy="129" rx="11.32" ry="12.09"/>
<ellipse class="st2" cx="368.54" cy="129" rx="6.2" ry="6.62"/>
<path class="st3" d="M410.8,202.15h-1.64c-21.59,0-39.09-17.5-39.09-39.09v-44.97c0-21.59,17.5-39.09,39.09-39.09h1.64
	c21.59,0,39.09,17.5,39.09,39.09v44.97C449.9,184.65,432.39,202.15,410.8,202.15z"/>
<ellipse class="st4" cx="388.35" cy="123.58" rx="4.27" ry="4.56"/>
<ellipse class="st4" cx="431.61" cy="123.58" rx="4.27" ry="4.56"/>
<path class="st5" d="M392.58,114.89h-8.46c-2.63,0-4.77-2.13-4.77-4.77v-0.32c0-2.63,2.13-4.77,4.77-4.77h8.46
	c2.63,0,4.77,2.13,4.77,4.77v0.32C397.35,112.76,395.22,114.89,392.58,114.89z"/>
<g>
	<path class="st6" d="M409.98,143.72c-6.93,0-12.71,5.68-14.09,13.23h28.18C422.7,149.39,416.91,143.72,409.98,143.72z"/>
	<path class="st7" d="M398.61,170.66c2.84-3.54,6.88-5.76,11.37-5.76c4.5,0,8.54,2.23,11.37,5.76c1.89-2.83,3.03-6.37,3.03-10.23
		c0-1.19-0.11-2.35-0.32-3.47h-28.18c-0.2,1.12-0.32,2.28-0.32,3.47C395.57,164.29,396.71,167.83,398.61,170.66z"/>
	<path class="st8" d="M409.98,165.33c-4.5,0-8.54,2.23-11.37,5.76c2.64,3.94,6.74,6.48,11.37,6.48c4.63,0,8.74-2.54,11.37-6.48
		C418.52,167.56,414.48,165.33,409.98,165.33z"/>
</g>
<path class="st5" d="M435.84,114.89h-8.46c-2.63,0-4.77-2.13-4.77-4.77v-0.32c0-2.63,2.13-4.77,4.77-4.77h8.46
	c2.63,0,4.77,2.13,4.77,4.77v0.32C440.61,112.76,438.48,114.89,435.84,114.89z"/>
<path class="st5" d="M377.87,171.01L377.87,171.01c2.79,2.98,7.32,2.98,10.11,0l19.9-21.25c2.79-2.98,2.79-7.82,0-10.8v0
	c-2.79-2.98-7.32-2.98-10.11,0l-19.9,21.25C375.08,163.19,375.08,168.02,377.87,171.01z"/>
<path class="st5" d="M442.35,172.98L442.35,172.98c-2.79,2.98-7.32,2.98-10.11,0l-19.9-21.25c-2.79-2.98-2.79-7.82,0-10.8h0
	c2.79-2.98,7.32-2.98,10.11,0l19.9,21.25C445.15,165.16,445.15,170,442.35,172.98z"/>
<path class="st9" d="M410.29,147.01h-0.61c-5.29,0-9.58-4.29-9.58-9.58v-16.88c0-5.29,4.29-9.58,9.58-9.58h0.61
	c5.29,0,9.58,4.29,9.58,9.58v16.88C419.86,142.73,415.58,147.01,410.29,147.01z"/>
<g>
	<rect x="381.27" y="332.92" class="st10" width="12.8" height="121.51"/>
	<ellipse class="st10" cx="410.23" cy="316.83" rx="42.81" ry="44.79"/>
	<g>
		<g>
			<path class="st11" d="M398.54,455.63c0-0.41-0.04-0.8-0.06-1.2h-41.19c-0.02,0.4-0.06,0.8-0.06,1.2"/>
			<path class="st11" d="M377.88,435.04L377.88,435.04c-10.96,0-19.96,8.62-20.6,19.39h41.19
				C397.84,443.66,388.83,435.04,377.88,435.04z"/>
		</g>
	</g>
	<g>
		<g>
			<g>
				<g>
					<path class="st0" d="M399.18,212.42c3.53-0.95,7.24-1.46,11.06-1.46h0c2.87,0,5.68,0.29,8.4,0.84"/>
					<path class="st12" d="M408.91,226.84c5.37,0,9.73-4.34,9.73-9.7v-5.35c-2.72-0.55-5.53-0.84-8.4-0.84h0
						c-3.82,0-7.53,0.51-11.06,1.46v4.72C399.18,222.5,403.53,226.84,408.91,226.84z"/>
				</g>
			</g>
			<line class="st0" x1="408.44" y1="197.91" x2="408.44" y2="197.91"/>
		</g>
	</g>
	<g>
		<path class="st13" d="M453.05,254.26c0-20.61-14.85-37.92-34.41-41.84v5.35c0,5.36-4.36,9.7-9.73,9.7s-9.73-4.34-9.73-9.7v-4.72
			c-18.23,4.89-31.75,21.55-31.75,41.22v49.28h85.62V254.26z"/>
	</g>
	<path class="st10" d="M382.38,327.76"/>
	<path class="st10" d="M382.38,449.27"/>
	<path class="st11" d="M377.88,435.04L377.88,435.04c-10.96,0-19.96,8.62-20.6,19.39h41.19
		C397.84,443.66,388.83,435.04,377.88,435.04z"/>
	<path class="st14" d="M377.88,435.04L377.88,435.04c-10.96,0-19.96,8.62-20.6,19.39h41.19
		C397.84,443.66,388.83,435.04,377.88,435.04z"/>
	<path class="st10" d="M419.23,454.22l11.09,0.13c0.94,0.01,1.72-0.74,1.73-1.68l1.39-118.09c0.01-0.94-0.75-1.71-1.69-1.72
		l-11.09-0.13"/>
	<path class="st14" d="M438.1,435.15L438.1,435.15c10.95,0.13,19.86,8.86,20.37,19.63l-41.19-0.48
		C418.03,443.54,427.14,435.02,438.1,435.15z"/>
	<g>
		<path class="st13" d="M305.13,301.06l0.99,1.52c1.95,3,5.98,3.84,8.98,1.88l36.72-24.03c3.02-1.97,3.86-6,1.9-9.02l-0.99-1.52
			c-1.96-3-5.99-3.85-9-1.88l-36.7,24.01C304.01,294,303.16,298.04,305.13,301.06z"/>
		<path class="st13" d="M470.43,276.28l1.48-1.07c2.9-2.1,3.55-6.15,1.43-9.03l-25.91-35.36c-2.13-2.9-6.21-3.55-9.13-1.44
			l-1.48,1.07c-2.91,2.1-3.55,6.16-1.43,9.05l25.89,35.34C463.41,277.75,467.5,278.39,470.43,276.28z"/>
		<path class="st13" d="M346.07,275.76L346.07,275.76c3.3,2.42,7.95,1.7,10.38-1.61l24.86-33.86c2.43-3.31,1.72-7.96-1.58-10.38v0
			c-3.3-2.42-7.95-1.7-10.38,1.61l-24.86,33.86C342.06,268.68,342.77,273.33,346.07,275.76z"/>
		<path class="st13" d="M465.24,272.8L465.24,272.8c0.64,4.04,4.45,6.79,8.51,6.14l41.57-6.63c4.06-0.65,6.84-4.45,6.21-8.49v0
			c-0.64-4.04-4.45-6.79-8.51-6.14l-41.57,6.63C467.38,264.96,464.6,268.76,465.24,272.8z"/>
		<path class="st0" d="M289.52,307.08L289.52,307.08c0.85,2.75,3.79,4.29,6.55,3.43l13.03-4.07c2.74-0.86,4.27-3.76,3.43-6.5l0,0
			c-0.85-2.75-3.79-4.29-6.55-3.43l-13.03,4.07C290.2,301.44,288.67,304.35,289.52,307.08z"/>
		<path class="st0" d="M514.42,265.9L514.42,265.9c0.66,2.81,3.49,4.54,6.3,3.87L534,266.6c2.79-0.67,4.52-3.46,3.86-6.25l0,0
			c-0.66-2.81-3.49-4.54-6.3-3.87l-13.27,3.17C515.49,260.32,513.77,263.11,514.42,265.9z"/>
		<path class="st15" d="M295.03,299.32L295.03,299.32c0.15,1.43,1.44,2.47,2.88,2.31l6.78-0.74c1.43-0.16,2.46-1.43,2.31-2.86v0
			c-0.15-1.43-1.44-2.47-2.88-2.31l-6.78,0.74C295.91,296.62,294.88,297.89,295.03,299.32z"/>
	</g>
	<path class="st15" d="M517.96,261.97L517.96,261.97c0.81,1.2,2.43,1.51,3.63,0.7l5.65-3.82c1.19-0.8,1.5-2.42,0.7-3.6v0
		c-0.81-1.2-2.43-1.51-3.63-0.7l-5.65,3.82C517.47,259.17,517.16,260.79,517.96,261.97z"/>
</g>
<polygon class="st16" points="439.98,252.46 419.19,252.46 420.42,248.81 441.2,248.81 "/>
<g>
	<path class="st17" d="M418.64,211.85v4.07c0,5.36-4.36,9.7-9.73,9.7c-5.37,0-9.73-4.34-9.73-9.7v-4.16
		c-4.87,2.17-8.1,5.94-8.1,10.23c0,6.73,7.94,12.19,17.73,12.19s17.73-5.46,17.73-12.19C426.53,217.76,423.39,214.04,418.64,211.85z
		"/>
	<path class="st18" d="M405.82,209.99c0.42-0.04,0.83-0.09,1.25-0.13C406.65,209.89,406.24,209.94,405.82,209.99z"/>
	<path class="st0" d="M408.91,225.62c5.37,0,9.73-4.34,9.73-9.7v-4.07c-2.81-1.29-6.2-2.05-9.83-2.05c-0.58,0-1.16,0.02-1.73,0.06
		c-0.42,0.03-0.83,0.08-1.25,0.13c-2.42,0.28-4.67,0.89-6.65,1.78v4.16C399.18,221.28,403.53,225.62,408.91,225.62z"/>
</g>
</svg>
