<?xml version="1.0" encoding="utf-8"?>
<!-- Generator: Adobe Illustrator 23.0.2, SVG Export Plug-In . SVG Version: 6.00 Build 0)  -->
<svg version="1.1" id="katman_1" xmlns="http://www.w3.org/2000/svg" xmlns:xlink="http://www.w3.org/1999/xlink" x="0px" y="0px"
	 viewBox="0 0 841.89 595.28" style="enable-background:new 0 0 841.89 595.28;" xml:space="preserve">
<style type="text/css">
	.st0{fill:#009FE3;}
	.st1{fill:#008D36;}
	.st2{fill:#432918;stroke:#000000;stroke-width:2.4399;stroke-miterlimit:10;}
	.st3{fill:#432918;stroke:#000000;stroke-width:3.4254;stroke-miterlimit:10;}
	.st4{fill:#683C11;stroke:#000000;stroke-width:3.0885;stroke-miterlimit:10;}
	.st5{stroke:#000000;stroke-width:2.0677;stroke-miterlimit:10;}
	.st6{fill:#7D4E24;stroke:#000000;stroke-width:1.4487;stroke-miterlimit:10;}
	.st7{fill:#CA9E67;stroke:#000000;stroke-width:1.1372;stroke-miterlimit:10;}
	.st8{stroke:#000000;stroke-width:1.4487;stroke-miterlimit:10;}
	.st9{stroke:#000000;stroke-width:2.1497;stroke-miterlimit:10;}
	.st10{fill:#683C11;stroke:#000000;stroke-width:3.3893;stroke-miterlimit:10;}
	.st11{fill:#683C11;stroke:#000000;stroke-width:3.404;stroke-miterlimit:10;}
	.st12{fill:#683C11;stroke:#000000;stroke-width:3.504;stroke-miterlimit:10;}
	.st13{fill:#432918;stroke:#000000;stroke-width:3.1386;stroke-miterlimit:10;}
	.st14{fill:#936037;stroke:#000000;stroke-width:1.9922;stroke-miterlimit:10;}
	.st15{fill:#CA9E67;}
</style>
<rect x="243.44" y="116.09" class="st0" width="356.48" height="222.76"/>
<rect x="243.44" y="338.85" class="st1" width="356.48" height="139.44"/>
<rect x="368.74" y="322.53" class="st2" width="92.96" height="137.33"/>
<path class="st3" d="M376.26,365.02l-35.12,41.62c-7.44,8.82-19.51,8.82-26.95,0l0,0c-7.44-8.82-7.44-23.12,0-31.94l35.12-41.62
	c7.44-8.82,19.51-8.82,26.95,0l0,0C383.7,341.9,383.7,356.2,376.26,365.02z"/>
<path class="st3" d="M450.87,364.5L486,406.13c7.44,8.82,19.51,8.82,26.95,0l0,0c7.44-8.82,7.44-23.12,0-31.94l-35.12-41.62
	c-7.44-8.82-19.51-8.82-26.95,0l0,0C443.43,341.39,443.43,355.69,450.87,364.5z"/>
<ellipse class="st4" cx="338.67" cy="229.91" rx="30.07" ry="33.36"/>
<ellipse class="st5" cx="338.67" cy="229.91" rx="20.13" ry="22.33"/>
<ellipse class="st4" cx="485.19" cy="228.48" rx="30.07" ry="33.36"/>
<ellipse class="st5" cx="485.19" cy="228.48" rx="20.13" ry="22.33"/>
<path class="st6" d="M428.49,338.85h-31.44c-34.51,0-62.49-27.98-62.49-62.49v-5.9c0-34.51,27.98-62.49,62.49-62.49h31.44
	c34.51,0,62.49,27.98,62.49,62.49v5.9C490.98,310.87,463,338.85,428.49,338.85z"/>
<path class="st7" d="M412.91,345.35h-0.28c-14.98,0-27.12-12.14-27.12-27.12v-27.84c0-14.98,12.14-27.12,27.12-27.12h0.28
	c14.98,0,27.12,12.14,27.12,27.12v27.84C440.03,333.21,427.89,345.35,412.91,345.35z"/>
<path class="st8" d="M415.9,301.17h-5.13c-7.32,0-13.26-5.94-13.26-13.26v-1.25c0-7.32,5.94-13.26,13.26-13.26h5.13
	c7.32,0,13.26,5.94,13.26,13.26v1.25C429.15,295.23,423.22,301.17,415.9,301.17z"/>
<ellipse class="st9" cx="381.32" cy="249.04" rx="5.64" ry="6.18"/>
<ellipse class="st9" cx="444.23" cy="249.04" rx="5.64" ry="6.18"/>
<path class="st9" d="M402.36,317.38h23.17c2.8,0,3.83,4.13,1.38,5.62c-7.78,4.74-17.42,4.47-25.76,0.1
	C398.53,321.73,399.46,317.38,402.36,317.38z"/>
<path class="st10" d="M373.8,414.29h-44.46c-11.46,0-20.75-9.29-20.75-20.75v-3.67c0-11.46,9.29-20.75,20.75-20.75h44.46
	c11.46,0,20.75,9.29,20.75,20.75v3.67C394.55,405.01,385.26,414.29,373.8,414.29z"/>
<path class="st10" d="M453.33,413.78h44.46c11.46,0,20.75-9.29,20.75-20.75v-3.67c0-11.46-9.29-20.75-20.75-20.75h-44.46
	c-11.46,0-20.75,9.29-20.75,20.75v3.67C432.58,404.49,441.87,413.78,453.33,413.78z"/>
<path class="st11" d="M373.66,458.43h-45.03c-11.51,0-20.84-9.33-20.84-20.84v-3.49c0-11.51,9.33-20.84,20.84-20.84h45.03
	c11.51,0,20.84,9.33,20.84,20.84v3.49C394.5,449.1,385.17,458.43,373.66,458.43z"/>
<path class="st12" d="M447.02,457.91h49.57c11.68,0,21.15-9.47,21.15-21.15v-2.87c0-11.68-9.47-21.15-21.15-21.15h-49.57
	c-11.68,0-21.15,9.47-21.15,21.15v2.87C425.87,448.44,435.34,457.91,447.02,457.91z"/>
<path class="st13" d="M462.06,450.47l27.78-30.47c7.22-7.92,7.22-20.75,0-28.67l-2-2.2c-7.22-7.92-18.92-7.92-26.14,0l-27.78,30.47
	c-7.22,7.92-7.22,20.75,0,28.67l2,2.2C443.13,458.39,454.84,458.39,462.06,450.47z"/>
<path class="st14" d="M461.82,439.24l17.63-19.34c4.58-5.03,4.58-13.17,0-18.2l-1.27-1.39c-4.58-5.03-12.01-5.03-16.59,0
	l-17.63,19.34c-4.58,5.03-4.58,13.17,0,18.2l1.27,1.39C449.81,444.27,457.24,444.27,461.82,439.24z"/>
<path class="st13" d="M360.99,450.47l-27.78-30.47c-7.22-7.92-7.22-20.75,0-28.67l2-2.2c7.22-7.92,18.92-7.92,26.14,0l27.78,30.47
	c7.22,7.92,7.22,20.75,0,28.67l-2,2.2C379.91,458.39,368.21,458.39,360.99,450.47z"/>
<path class="st14" d="M361.23,439.24l-17.63-19.34c-4.58-5.03-4.58-13.17,0-18.2l1.27-1.39c4.58-5.03,12.01-5.03,16.59,0
	l17.63,19.34c4.58,5.03,4.58,13.17,0,18.2l-1.27,1.39C373.24,444.27,365.81,444.27,361.23,439.24z"/>
<path class="st15" d="M398.81,383.89H386.1c-1.52,0-2.76-1.23-2.76-2.76v-0.82c0-1.52,1.23-2.76,2.76-2.76h12.71
	c1.52,0,2.76,1.23,2.76,2.76v0.82C401.56,382.65,400.33,383.89,398.81,383.89z"/>
<path class="st15" d="M396.59,392.97h-10.68c-1.42,0-2.57-1.15-2.57-2.57v-1.19c0-1.42,1.15-2.57,2.57-2.57h10.68
	c1.42,0,2.57,1.15,2.57,2.57v1.19C399.16,391.82,398.01,392.97,396.59,392.97z"/>
<path class="st15" d="M394.54,402.06h-8.82c-1.31,0-2.38-1.07-2.38-2.38v-1.57c0-1.31,1.07-2.38,2.38-2.38h8.82
	c1.31,0,2.38,1.07,2.38,2.38v1.57C396.92,401,395.86,402.06,394.54,402.06z"/>
<path class="st15" d="M426.23,383.89h12.71c1.52,0,2.76-1.23,2.76-2.76v-0.82c0-1.52-1.23-2.76-2.76-2.76h-12.71
	c-1.52,0-2.76,1.23-2.76,2.76v0.82C423.47,382.65,424.7,383.89,426.23,383.89z"/>
<path class="st15" d="M428.44,392.97h10.68c1.42,0,2.57-1.15,2.57-2.57v-1.19c0-1.42-1.15-2.57-2.57-2.57h-10.68
	c-1.42,0-2.57,1.15-2.57,2.57v1.19C425.87,391.82,427.02,392.97,428.44,392.97z"/>
<path class="st15" d="M430.49,402.06h8.82c1.31,0,2.38-1.07,2.38-2.38v-1.57c0-1.31-1.07-2.38-2.38-2.38h-8.82
	c-1.31,0-2.38,1.07-2.38,2.38v1.57C428.11,401,429.18,402.06,430.49,402.06z"/>
</svg>
