<?xml version="1.0" encoding="utf-8"?>
<!-- Generator: Adobe Illustrator 23.0.2, SVG Export Plug-In . SVG Version: 6.00 Build 0)  -->
<svg version="1.1" id="katman_1" xmlns="http://www.w3.org/2000/svg" xmlns:xlink="http://www.w3.org/1999/xlink" x="0px" y="0px"
	 viewBox="0 0 841.89 595.28" style="enable-background:new 0 0 841.89 595.28;" xml:space="preserve">
<style type="text/css">
	.st0{fill:#1D71B8;stroke:#009FE3;stroke-width:1.6315;stroke-miterlimit:10;}
	.st1{fill:#1D71B8;stroke:#009FE3;stroke-width:1.5992;stroke-miterlimit:10;}
	.st2{fill:#1D71B8;stroke:#009FE3;stroke-width:1.4873;stroke-miterlimit:10;}
	.st3{fill:#36A9E1;stroke:#009FE3;stroke-width:1.8711;stroke-miterlimit:10;}
	.st4{fill:none;stroke:#C6C6C6;stroke-width:31.8842;stroke-linecap:round;stroke-miterlimit:10;}
	.st5{fill:none;stroke:#C6C6C6;stroke-width:28.0141;stroke-linecap:round;stroke-miterlimit:10;}
	.st6{stroke:#000000;stroke-width:1.9202;stroke-miterlimit:10;}
	.st7{fill:#DADADA;stroke:#DADADA;stroke-width:1.7282;stroke-miterlimit:10;}
</style>
<path class="st0" d="M394.36,417.63h-36.27v-46.78c0-9.81,7.95-17.75,17.75-17.75h0.76c9.81,0,17.75,7.95,17.75,17.75V417.63z"/>
<path class="st0" d="M475.84,417.63h-36.27v-46.78c0-9.81,7.95-17.75,17.75-17.75h0.76c9.81,0,17.75,7.95,17.75,17.75V417.63z"/>
<ellipse class="st1" cx="418.88" cy="315.29" rx="87.51" ry="77.3"/>
<path class="st2" d="M376.22,226.08v65.39c0,22.01-18.01,40.02-40.02,40.02h-19.42c-22.01,0-40.02-18.01-40.02-40.02v-65.39
	c0-22.01,18.01-40.02,40.02-40.02h19.42C358.22,186.06,376.22,204.07,376.22,226.08z"/>
<path class="st2" d="M565.39,217.35v65.39c0,22.01-18.01,40.02-40.02,40.02h-19.42c-22.01,0-40.02-18.01-40.02-40.02v-65.39
	c0-22.01,18.01-40.02,40.02-40.02h19.42C547.38,177.33,565.39,195.34,565.39,217.35z"/>
<path class="st3" d="M448.25,318.64h-66.16c-27.69,0-50.34-22.65-50.34-50.34v-36.5c0-27.69,22.65-50.34,50.34-50.34h66.16
	c27.69,0,50.34,22.65,50.34,50.34v36.5C498.59,295.98,475.94,318.64,448.25,318.64z"/>
<path class="st4" d="M429.34,353.1"/>
<path class="st5" d="M505.39,292.57c0,38.22-20.2,69.2-45.11,69.2h0c-24.91,0-44.26-17.64-44.26-55.86l-0.85-55.86"/>
<ellipse class="st6" cx="372.73" cy="250.04" rx="10.18" ry="10.11"/>
<ellipse class="st6" cx="460.28" cy="250.04" rx="10.18" ry="10.11"/>
<path class="st7" d="M452.78,272.18l-28.78-30.47c-2.69-2.85-6.34-4.05-9.84-3.63c-3.51-0.42-7.15,0.79-9.84,3.63l-28.78,30.47
	c-4.69,4.96-4.69,13.01,0,17.97c4.69,4.96,12.29,4.96,16.97,0l21.65-22.92l21.65,22.92c4.69,4.96,12.29,4.96,16.97,0
	C457.46,285.18,457.46,277.14,452.78,272.18z"/>
</svg>
