<?xml version="1.0" encoding="utf-8"?>
<!-- Generator: Adobe Illustrator 23.0.2, SVG Export Plug-In . SVG Version: 6.00 Build 0)  -->
<svg version="1.1" id="katman_1" xmlns="http://www.w3.org/2000/svg" xmlns:xlink="http://www.w3.org/1999/xlink" x="0px" y="0px"
	 viewBox="0 0 841.89 595.28" style="enable-background:new 0 0 841.89 595.28;" xml:space="preserve">
<style type="text/css">
	.st0{fill:#432918;stroke:#000000;stroke-width:1.7529;stroke-miterlimit:10;}
	.st1{fill:#432918;stroke:#000000;stroke-width:2.6416;stroke-miterlimit:10;}
	.st2{fill:#936037;stroke:#000000;stroke-width:1.081;stroke-miterlimit:10;}
	.st3{fill:#B17F4A;stroke:#000000;stroke-width:1.6792;stroke-miterlimit:10;}
	.st4{fill:#F9B233;stroke:#000000;stroke-width:1.8941;stroke-miterlimit:10;}
	.st5{stroke:#000000;stroke-width:1.1956;stroke-miterlimit:10;}
	.st6{fill:#7D4E24;stroke:#000000;stroke-width:1.2939;stroke-miterlimit:10;}
	.st7{fill:#3C3C3B;stroke:#000000;stroke-width:0.8747;stroke-miterlimit:10;}
	.st8{fill:#3C3C3B;stroke:#000000;stroke-width:0.7765;stroke-miterlimit:10;}
	.st9{fill:#683C11;stroke:#000000;stroke-width:2.1485;stroke-miterlimit:10;}
	.st10{fill:#683C11;stroke:#000000;stroke-width:1.7529;stroke-miterlimit:10;}
	.st11{stroke:#000000;stroke-width:2.5569;stroke-miterlimit:10;}
	.st12{fill:#432918;stroke:#000000;stroke-width:1.1574;stroke-miterlimit:10;}
</style>
<path class="st0" d="M406.01,417l-10.75-1.97c-0.82-0.15-1.36-0.95-1.21-1.79l10.07-58.81c0.91-5.29,5.8-8.83,10.92-7.89l2.95,0.54
	c5.12,0.94,8.54,5.99,7.64,11.28l-8.69,50.75C416.03,414.4,411.14,417.94,406.01,417z"/>
<path class="st1" d="M474.45,411.03l12.85,2.35c5.57,1.02,10.89-2.82,11.87-8.58l5.35-31.22c0.99-5.76-2.73-11.25-8.3-12.27
	l-4.8-0.88c-5.57-1.02-10.89,2.82-11.87,8.58l-6.77,39.54C472.57,409.72,473.32,410.83,474.45,411.03z"/>
<ellipse transform="matrix(0.1235 -0.9923 0.9923 0.1235 115.4395 710.2031)" class="st2" cx="459.75" cy="289.75" rx="81.56" ry="87.75"/>
<path class="st3" d="M410.67,271.51c0.36,37.75-24.39,62.72-55.97,62.98s-58.02-24.29-58.38-62.04s24.95-68.57,56.52-68.83
	S410.31,233.75,410.67,271.51z"/>
<path class="st4" d="M388.19,337.09h-70.54c-9.73,0-17.61-7.88-17.61-17.61v-5.67c0-9.73,7.88-17.61,17.61-17.61h70.54
	c9.73,0,17.61,7.88,17.61,17.61v5.67C405.8,329.2,397.92,337.09,388.19,337.09z"/>
<ellipse class="st5" cx="331.32" cy="247.36" rx="5.62" ry="5.81"/>
<ellipse class="st5" cx="377.25" cy="247.36" rx="5.62" ry="5.81"/>
<ellipse class="st5" cx="327.95" cy="316.76" rx="2.89" ry="5.81"/>
<ellipse class="st5" cx="373.25" cy="316.76" rx="2.89" ry="5.81"/>
<path class="st6" d="M279.69,254.57L279.69,254.57c-3.89-4.02-3.89-10.53,0-14.55l19.53-20.18c3.89-4.02,10.19-4.02,14.08,0v0
	c3.89,4.02,3.89,10.53,0,14.55l-19.53,20.18C289.88,258.59,283.58,258.59,279.69,254.57z"/>
<path class="st6" d="M427.65,254.57L427.65,254.57c-3.89,4.02-10.19,4.02-14.08,0l-19.53-20.18c-3.89-4.02-3.89-10.53,0-14.55l0,0
	c3.89-4.02,10.19-4.02,14.08,0l19.53,20.18C431.54,244.04,431.54,250.55,427.65,254.57z"/>
<g>
	<path class="st7" d="M327.49,222.72C328.2,222.56,328,222.61,327.49,222.72c-0.54,4.08,0.21,5.47-6.18,5.42
		c-27.37-0.2-47.69-13.25-37.76-43.26c2.32-7.01,3.72-6.21,7.97-4.94c0.41-0.84,0.31-0.65,0,0c4.25,1.27,5.23,2.77,2.73,8.16
		c-10.72,23.09,7.98,29.57,27.47,28.32C326.26,216.13,328.04,218.64,327.49,222.72z"/>
</g>
<g>
	<path class="st8" d="M376.06,224.91C375.44,224.91,375.62,224.91,376.06,224.91c-0.23,3.59-1.16,5,4.64,3.78
		c24.83-5.19,45.54-20.72,41.84-46.08c-0.86-5.92-2.27-4.95-6.35-3.02c-0.22-0.69-0.16-0.54,0,0c-4.07,1.93-5.23,3.47-3.91,7.89
		c5.64,18.95-12.44,28.24-29.88,30.67C378.33,218.72,376.29,221.32,376.06,224.91z"/>
</g>
<path class="st9" d="M437.96,417.6h-13.43v-55.67c0-7.01,5.68-12.7,12.7-12.7h1.59c7.01,0,12.7,5.68,12.7,12.7v42.12
	C451.51,411.54,445.44,417.6,437.96,417.6z"/>
<path class="st10" d="M526.61,414.52l-16.95,3.25l-11.52-64.17c-1.27-7.09,3.26-13.9,10.12-15.21l8-1.53
	c6.86-1.31,13.45,3.37,13.01,0.92l8.57,47.75C541.19,404.12,535.39,412.84,526.61,414.52z"/>
<path class="st11" d="M337.57,316.76"/>
<path class="st11" d="M369.14,316.64"/>
<g>
	<path class="st12" d="M553.87,345.61c-2.28,0-4.57,0-6.85,0c0-31.72,21.83-81.54,0.27-71.65c-0.35-2.29-1.56-4.47-2.41-6.59
		C573.19,253.41,554.09,316.7,553.87,345.61z"/>
</g>
</svg>
