<?xml version="1.0" encoding="utf-8"?>
<!-- Generator: Adobe Illustrator 23.0.2, SVG Export Plug-In . SVG Version: 6.00 Build 0)  -->
<svg version="1.1" id="katman_1" xmlns="http://www.w3.org/2000/svg" xmlns:xlink="http://www.w3.org/1999/xlink" x="0px" y="0px"
	 viewBox="0 0 841.89 595.28" style="enable-background:new 0 0 841.89 595.28;" xml:space="preserve">
<style type="text/css">
	.st0{fill:#878787;stroke:#B2B2B2;stroke-width:1.4895;stroke-miterlimit:10;}
	.st1{fill:#878787;stroke:#B2B2B2;stroke-width:1.3129;stroke-miterlimit:10;}
	.st2{fill:#706F6F;}
	.st3{fill:#878787;}
	.st4{fill:#9D9D9C;}
	.st5{fill:#808080;stroke:#3C3C3B;stroke-width:7.2287;stroke-miterlimit:10;}
	.st6{fill:#B2B2B2;}
	.st7{fill:#B2B2B2;stroke:#B2B2B2;stroke-width:1.2048;stroke-miterlimit:10;}
	.st8{stroke:#000000;stroke-width:2.9486;stroke-miterlimit:10;}
	.st9{fill:#575756;}
	.st10{fill:#B2B2B2;stroke:#B2B2B2;stroke-width:1.3129;stroke-miterlimit:10;}
	.st11{fill:#B2B2B2;stroke:#B2B2B2;stroke-width:1.3873;stroke-miterlimit:10;}
</style>
<g>
	<path class="st0" d="M581.49,298.99C581.65,297.96,581.49,298.99,581.49,298.99c5.07,3.53,9.46,5.72,4.81,15.84
		c-20,43.55-48.35,66.6-93.32,39.54c-10.46-6.29-7.71-10.71-5.38-16.63c-0.71-1.34,0,0,0,0c2.34-5.92,8.2-11.85,15.41-5.74
		c31.02,26.3,50.85,3.39,62.53-29.04C568.25,295.43,576.41,295.46,581.49,298.99z"/>
</g>
<path class="st1" d="M382.95,389.13h-51.02c-8.43,0-15.27-6.84-15.27-15.27v-0.46c0-8.43,6.84-15.27,15.27-15.27h51.02
	c8.43,0,15.27,6.84,15.27,15.27v0.46C398.22,382.3,391.38,389.13,382.95,389.13z"/>
<path class="st2" d="M503.8,335.84c0,41.13-36.26,68.28-79.88,68.28s-78.09-27.15-78.09-68.28s35.36-74.48,78.99-74.48
	S503.8,294.71,503.8,335.84z"/>
<path class="st3" d="M309.93,244.51h-32.57V217.2c0-17.73,14.38-32.11,32.11-32.11h0.46V244.51z"/>
<path class="st3" d="M378.88,246.61h32.57V219.3c0-17.73-14.38-32.11-32.11-32.11h-0.46V246.61z"/>
<ellipse class="st4" cx="343.65" cy="278.33" rx="74.55" ry="72.48"/>
<g>
	<path class="st5" d="M317.9,323.48c14.23,0,25.76-11.21,25.76-25.04h-51.51C292.14,312.27,303.67,323.48,317.9,323.48z"/>
	<path class="st5" d="M369.41,323.48c14.23,0,25.76-11.21,25.76-25.04h-51.51C343.65,312.27,355.19,323.48,369.41,323.48z"/>
</g>
<path class="st6" d="M343.93,303.03h-0.55c-10.7,0-19.38-8.68-19.38-19.38v-42.27c0-10.7,8.68-19.38,19.38-19.38h0.55
	c10.7,0,19.38,8.68,19.38,19.38v42.27C363.31,294.35,354.63,303.03,343.93,303.03z"/>
<ellipse class="st6" cx="369.41" cy="298.44" rx="21.65" ry="21.05"/>
<ellipse class="st7" cx="317.9" cy="298.44" rx="21.65" ry="21.05"/>
<g>
	<path class="st8" d="M343.65,303.66c10.04,0,18.18-9.13,18.18-20.4h-36.35C325.48,294.52,333.62,303.66,343.65,303.66z"/>
</g>
<ellipse cx="307.45" cy="257.29" rx="6.69" ry="6.5"/>
<ellipse cx="377.74" cy="257.29" rx="6.69" ry="6.5"/>
<path class="st9" d="M429.05,302.23l-33.62-1.88c-1.79-0.1-3.13-1.23-2.99-2.52l0,0c0.14-1.29,1.7-2.26,3.49-2.16l33.62,1.88
	c1.79,0.1,3.13,1.23,2.99,2.52l0,0C432.41,301.37,430.84,302.33,429.05,302.23z"/>
<path class="st9" d="M428.53,309.64l-33.2-4.23c-1.77-0.23-2.95-1.44-2.64-2.72l0,0c0.31-1.28,2-2.13,3.77-1.9l33.2,4.23
	c1.77,0.23,2.95,1.44,2.64,2.72l0,0C431.98,309.01,430.3,309.87,428.53,309.64z"/>
<path class="st9" d="M428.53,315.9l-33.2-4.23c-1.77-0.23-2.95-1.44-2.64-2.72l0,0c0.31-1.28,2-2.13,3.77-1.9l33.2,4.23
	c1.77,0.23,2.95,1.44,2.64,2.72l0,0C431.98,315.27,430.3,316.12,428.53,315.9z"/>
<path class="st9" d="M257.02,303.44l33.62-1.88c1.79-0.1,3.13-1.23,2.99-2.52l0,0c-0.14-1.29-1.7-2.26-3.49-2.16l-33.62,1.88
	c-1.79,0.1-3.13,1.23-2.99,2.52v0C253.67,302.57,255.23,303.54,257.02,303.44z"/>
<path class="st9" d="M257.55,310.85l33.2-4.23c1.77-0.23,2.95-1.44,2.64-2.72l0,0c-0.31-1.28-2-2.13-3.77-1.9l-33.2,4.23
	c-1.77,0.23-2.95,1.44-2.64,2.72l0,0C254.09,310.22,255.78,311.07,257.55,310.85z"/>
<path class="st9" d="M257.55,317.1l33.2-4.23c1.77-0.23,2.95-1.44,2.64-2.72l0,0c-0.31-1.28-2-2.13-3.77-1.9l-33.2,4.23
	c-1.77,0.23-2.95,1.44-2.64,2.72l0,0C254.09,316.48,255.78,317.33,257.55,317.1z"/>
<ellipse class="st7" cx="494.29" cy="339.13" rx="39.51" ry="42.25"/>
<path class="st10" d="M387.34,408.42h-51.02c-8.43,0-15.27-6.84-15.27-15.27v-0.46c0-8.43,6.84-15.27,15.27-15.27h51.02
	c8.43,0,15.27,6.84,15.27,15.27v0.46C402.61,401.58,395.77,408.42,387.34,408.42z"/>
<path class="st11" d="M496.62,409.16h-60.53c-8.43,0-15.27-6.84-15.27-15.27v-0.46c0-8.43,6.84-15.27,15.27-15.27h60.53
	c8.43,0,15.27,6.84,15.27,15.27v0.46C511.89,402.33,505.05,409.16,496.62,409.16z"/>
</svg>
