<?xml version="1.0" encoding="utf-8"?>
<!-- Generator: Adobe Illustrator 23.0.2, SVG Export Plug-In . SVG Version: 6.00 Build 0)  -->
<svg version="1.1" id="katman_1" xmlns="http://www.w3.org/2000/svg" xmlns:xlink="http://www.w3.org/1999/xlink" x="0px" y="0px"
	 viewBox="0 0 841.89 595.28" style="enable-background:new 0 0 841.89 595.28;" xml:space="preserve">
<style type="text/css">
	.st0{fill:#683C11;}
	.st1{fill:#7D4E24;}
	.st2{fill:#936037;}
	.st3{fill:#BE1622;}
	.st4{fill:#CA9E67;}
	.st5{fill:#B17F4A;}
</style>
<path class="st0" d="M488.02,413.86L488.02,413.86c5.02,5.03,13.59,4.62,19.14-0.91l44.78-44.56c5.55-5.53,5.99-14.08,0.97-19.11
	l0,0c-5.02-5.02-13.59-4.62-19.14,0.91l-44.78,44.56C483.44,400.28,483,408.84,488.02,413.86z"/>
<path class="st1" d="M498.67,454.43H352.82c-11.64,0-21.07-9.43-21.07-21.07v-7.46c0-11.64,9.43-21.07,21.07-21.07h145.85
	c11.64,0,21.07,9.43,21.07,21.07v7.46C519.75,445,510.31,454.43,498.67,454.43z"/>
<ellipse class="st2" cx="428.92" cy="374.06" rx="76.07" ry="75.92"/>
<path class="st1" d="M365.54,142.32L365.54,142.32c-11.84-9.36-29.19-7.35-38.57,4.46l-39.65,49.95
	c-9.38,11.81-7.36,29.13,4.47,38.49l0,0c11.84,9.36,29.19,7.35,38.57-4.46l39.65-49.95C379.39,169,377.38,151.68,365.54,142.32z"/>
<path class="st3" d="M353.54,157.06L353.54,157.06c-5.99-4.74-14.79-3.72-19.53,2.26l-35.05,44.16c-4.75,5.98-3.73,14.76,2.26,19.5
	l0,0c5.99,4.74,14.79,3.72,19.53-2.26l35.05-44.16C360.55,170.57,359.54,161.8,353.54,157.06z"/>
<path class="st1" d="M482.82,138.91L482.82,138.91c-11.91,9.27-14.05,26.57-4.76,38.46l33.96,43.45
	c9.29,11.88,26.63,14.02,38.53,4.75l0,0c11.91-9.27,14.05-26.57,4.76-38.46l-33.96-43.45C512.06,131.78,494.73,129.64,482.82,138.91
	z"/>
<path class="st3" d="M494.53,153.9L494.53,153.9c-6.03,4.69-7.12,13.46-2.41,19.48l26.85,34.35c4.7,6.02,13.49,7.1,19.52,2.41v0
	c6.03-4.69,7.12-13.46,2.41-19.48l-26.85-34.35C509.34,150.29,500.56,149.2,494.53,153.9z"/>
<ellipse class="st0" cx="425.75" cy="257.97" rx="103.7" ry="103.49"/>
<ellipse class="st2" cx="425.75" cy="317.56" rx="20.63" ry="25.5"/>
<ellipse class="st3" cx="377.95" cy="230.76" rx="37.63" ry="37.56"/>
<ellipse cx="470.06" cy="215.31" rx="9.38" ry="11.23"/>
<ellipse cx="374.8" cy="218.12" rx="9.38" ry="11.23"/>
<path class="st4" d="M472.75,253.22h-94c-25.96,0-47,20.11-47,44.92c0,24.81,21.04,44.92,47,44.92c25.96,0,47-20.11,47-44.92
	c0-1.08-0.09-2.14-0.17-3.21h0.34c-0.08,1.06-0.17,2.13-0.17,3.21c0,24.81,21.04,44.92,47,44.92c25.96,0,47-20.11,47-44.92
	C519.75,273.33,498.7,253.22,472.75,253.22z"/>
<g>
	<path d="M405.12,256.32c0,11.67,9.24,21.14,20.63,21.14c11.39,0,20.63-9.46,20.63-21.14c0-0.93-0.11-1.83-0.22-2.73h-40.83
		C405.21,254.49,405.12,255.39,405.12,256.32z"/>
</g>
<ellipse class="st5" cx="379.45" cy="419.31" rx="25.82" ry="40"/>
<ellipse class="st5" cx="471.81" cy="419.31" rx="25.82" ry="40"/>
<g>
	<path class="st2" d="M386.03,460.03c0-12.88-8.71-23.33-19.44-23.33c-10.74,0-19.44,10.44-19.44,23.33c0,1.33,0.15,2.62,0.33,3.89
		h38.23C385.88,462.65,386.03,461.37,386.03,460.03z"/>
	<path class="st2" d="M508.64,460.03c0-12.88-8.71-23.33-19.44-23.33c-10.74,0-19.44,10.44-19.44,23.33c0,1.33,0.15,2.62,0.33,3.89
		h38.23C508.49,462.65,508.64,461.37,508.64,460.03z"/>
</g>
</svg>
