<?xml version="1.0" encoding="utf-8"?>
<!-- Generator: Adobe Illustrator 23.0.2, SVG Export Plug-In . SVG Version: 6.00 Build 0)  -->
<svg version="1.1" id="katman_1" xmlns="http://www.w3.org/2000/svg" xmlns:xlink="http://www.w3.org/1999/xlink" x="0px" y="0px"
	 viewBox="0 0 841.89 595.28" style="enable-background:new 0 0 841.89 595.28;" xml:space="preserve">
<style type="text/css">
	.st0{fill:#9561A5;}
	.st1{fill:#B2B2B2;}
	.st2{fill:#BD70AC;}
	.st3{fill:#E7DCEE;}
</style>
<path class="st0" d="M464.86,427.51h-0.85c-6.29,0-11.39-5.1-11.39-11.39v-32.99c0-6.29,5.1-11.39,11.39-11.39h0.85
	c6.29,0,11.39,5.1,11.39,11.39v32.99C476.25,422.41,471.15,427.51,464.86,427.51z"/>
<path class="st0" d="M381.26,426.07h-0.85c-6.29,0-11.39-5.1-11.39-11.39V381.7c0-6.29,5.1-11.39,11.39-11.39h0.85
	c6.29,0,11.39,5.1,11.39,11.39v32.99C392.64,420.98,387.55,426.07,381.26,426.07z"/>
<ellipse class="st1" cx="425.1" cy="291.32" rx="89.89" ry="69.81"/>
<ellipse class="st1" cx="500.04" cy="271.68" rx="38.15" ry="37.55"/>
<ellipse class="st1" cx="481.37" cy="342.21" rx="38.15" ry="37.55"/>
<ellipse class="st1" cx="362.03" cy="234.13" rx="38.15" ry="37.55"/>
<ellipse class="st1" cx="342.83" cy="283.11" rx="38.15" ry="37.55"/>
<ellipse class="st1" cx="422.79" cy="205.58" rx="38.15" ry="37.55"/>
<ellipse class="st1" cx="473.49" cy="221.89" rx="38.15" ry="37.55"/>
<ellipse class="st1" cx="370.06" cy="344.34" rx="38.15" ry="37.55"/>
<ellipse class="st1" cx="420.76" cy="360.64" rx="38.15" ry="37.55"/>
<g>
	<path d="M442.86,241.04l41.61,45.86c-5.08,9.21-13.68,15.27-23.44,15.27c-15.61,0-28.27-15.5-28.27-34.62
		C432.76,256.91,436.69,247.39,442.86,241.04z"/>
</g>
<g>
	<path d="M405.41,241.47l-39.49,47.13c4.82,9.47,12.99,15.69,22.25,15.69c14.82,0,26.83-15.93,26.83-35.57
		C415,257.77,411.27,247.99,405.41,241.47z"/>
</g>
<path class="st2" d="M430.37,344.72h-10.53c-15.6,0-28.24-12.65-28.24-28.24v-50.31c0-15.6,12.65-28.24,28.24-28.24h10.53
	c15.6,0,28.24,12.65,28.24,28.24v50.31C458.61,332.07,445.97,344.72,430.37,344.72z"/>
<ellipse class="st3" cx="425.1" cy="228.13" rx="30.99" ry="24.86"/>
<ellipse class="st3" cx="447.75" cy="246.26" rx="22.65" ry="18.13"/>
<ellipse class="st3" cx="402.46" cy="246.26" rx="22.65" ry="18.13"/>
<path d="M418.48,315.7l5.03,4.11l0.22,6.18l-2.5,0.08c-0.85,0.03-1.52,0.62-1.5,1.33l0,0.06c0.02,0.71,0.74,1.26,1.59,1.24l8-0.24
	c0.85-0.03,1.52-0.62,1.5-1.33l0-0.06c-0.02-0.71-0.74-1.26-1.59-1.24l-2.5,0.08l-0.19-5.51c0.14-0.14,0.24-0.31,0.29-0.48
	l4.96-4.62c0.57-0.53,0.54-1.36-0.06-1.86s-1.56-0.47-2.13,0.06l-4.39,4.09l-4.67-3.82c-0.61-0.5-1.56-0.47-2.13,0.06
	C417.84,314.37,417.87,315.2,418.48,315.7z"/>
<ellipse cx="411.51" cy="277.77" rx="6.63" ry="6.16"/>
<ellipse cx="438.7" cy="277.77" rx="6.63" ry="6.16"/>
</svg>
