<?xml version="1.0" encoding="utf-8"?>
<!-- Generator: Adobe Illustrator 23.0.2, SVG Export Plug-In . SVG Version: 6.00 Build 0)  -->
<svg version="1.1" id="katman_1" xmlns="http://www.w3.org/2000/svg" xmlns:xlink="http://www.w3.org/1999/xlink" x="0px" y="0px"
	 viewBox="0 0 841.89 595.28" style="enable-background:new 0 0 841.89 595.28;" xml:space="preserve">
<style type="text/css">
	.st0{fill:#568F52;}
	.st1{fill:#009640;}
	.st2{fill:#3AAA35;}
	.st3{fill:#FFFFFF;}
	.st4{stroke:#000000;stroke-width:5.9285;stroke-miterlimit:10;}
	.st5{fill:#00A19A;}
	.st6{stroke:#000000;stroke-width:2.8461;stroke-miterlimit:10;}
	.st7{fill:#95C11F;}
	.st8{fill:#DBDC00;}
	.st9{fill:#FCEA10;}
</style>
<path class="st0" d="M308.84,403.37l-6.89-0.25c-10.39-0.37-18.53-9.54-18.18-20.49l3.94-122.78c0.35-10.95,9.06-19.52,19.46-19.15
	l6.89,0.25c10.39,0.37,18.53,9.54,18.18,20.49l-3.94,122.78C327.94,395.17,319.23,403.74,308.84,403.37z"/>
<path class="st0" d="M361.26,313.57l-0.67,0.66c-7.84,7.72-20.14,7.28-27.47-0.98l-36.48-41.11c-7.33-8.26-6.91-21.21,0.93-28.93
	l0.67-0.66c7.84-7.72,20.14-7.28,27.47,0.98l36.48,41.11C369.51,292.9,369.1,305.85,361.26,313.57z"/>
<path class="st0" d="M534.16,403.37l6.89-0.25c10.39-0.37,18.53-9.54,18.18-20.49l-3.94-122.78c-0.35-10.95-9.06-19.52-19.46-19.15
	l-6.89,0.25c-10.39,0.37-18.53,9.54-18.18,20.49l3.94,122.78C515.06,395.17,523.77,403.74,534.16,403.37z"/>
<path class="st0" d="M481.74,313.57l0.67,0.66c7.84,7.72,20.14,7.28,27.47-0.98l36.48-41.11c7.33-8.26,6.91-21.21-0.93-28.93
	l-0.67-0.66c-7.84-7.72-20.14-7.28-27.47,0.98l-36.48,41.11C473.49,292.9,473.9,305.85,481.74,313.57z"/>
<path class="st1" d="M422.01,401.55L422.01,401.55c-39.67,0-71.83-32.16-71.83-71.83v-68.35c0-39.67,32.16-71.83,71.83-71.83h0
	c39.67,0,71.83,32.16,71.83,71.83v68.35C493.84,369.4,461.68,401.55,422.01,401.55z"/>
<ellipse class="st2" cx="357.73" cy="222.75" rx="33.42" ry="34.56"/>
<ellipse class="st3" cx="357.73" cy="222.75" rx="13.62" ry="17.21"/>
<ellipse cx="483.99" cy="222.75" rx="2.75" ry="3.26"/>
<ellipse class="st2" cx="483.99" cy="222.95" rx="33.42" ry="34.56"/>
<ellipse class="st3" cx="483.99" cy="222.95" rx="13.62" ry="17.21"/>
<ellipse class="st4" cx="358.36" cy="222.95" rx="2.75" ry="3.26"/>
<ellipse class="st4" cx="483.99" cy="222.75" rx="2.75" ry="3.26"/>
<g>
	<path class="st5" d="M545.06,324.83l-53.88-48.35c-1.36-1.22-2.86-2.23-4.44-3.06v55.74l26.75,24c8.72,7.82,22.85,7.82,31.57,0
		C553.78,345.34,553.78,332.65,545.06,324.83z"/>
</g>
<g>
	<path class="st5" d="M302.47,320.28l48.02-45.27c1.21-1.14,2.55-2.08,3.96-2.87v52.19l-23.84,22.47c-7.77,7.32-20.37,7.32-28.14,0
		C294.7,339.48,294.7,327.6,302.47,320.28z"/>
</g>
<g>
	<path class="st6" d="M422.01,273.41L422.01,273.41c10.5,0,20.03-4.89,27.12-12.88c1.98-2.23,0.41-5.83-2.51-5.83H397.4
		c-2.92,0-4.49,3.6-2.51,5.83C401.97,268.52,411.51,273.41,422.01,273.41z"/>
</g>
<ellipse class="st7" cx="422.01" cy="322.09" rx="39.45" ry="48.67"/>
<path class="st7" d="M420.98,203.82"/>
<path class="st7" d="M424.36,220.2"/>
<path class="st7" d="M357.58,394.11l4.18-3.25c8.15-6.33,10.49-17.5,5.23-24.95l-28.2-39.95c-5.26-7.45-16.12-8.35-24.27-2.02
	l-4.18,3.25c-8.15,6.33-10.49,17.5-5.23,24.95l28.2,39.95C338.57,399.54,349.43,400.44,357.58,394.11z"/>
<ellipse class="st8" cx="374.18" cy="390.33" rx="8.36" ry="11.22"/>
<ellipse class="st8" cx="357.78" cy="390.37" rx="8.36" ry="11.22"/>
<ellipse class="st8" cx="344.23" cy="390.33" rx="8.36" ry="11.22"/>
<path class="st7" d="M485.39,392.42L481,388.8c-8.56-7.05-11.08-18.66-5.64-25.94l29.2-39.04c5.44-7.28,16.79-7.46,25.35-0.41
	l4.39,3.62c8.56,7.05,11.08,18.66,5.64,25.94L510.74,392C505.29,399.28,493.94,399.47,485.39,392.42z"/>
<ellipse class="st8" cx="470.37" cy="390.33" rx="8.91" ry="11.22"/>
<ellipse class="st8" cx="483.99" cy="390.33" rx="8.91" ry="11.22"/>
<ellipse class="st8" cx="500.63" cy="390.33" rx="8.91" ry="11.22"/>
<ellipse class="st9" cx="301.2" cy="398.15" rx="6.36" ry="7.82"/>
<ellipse class="st9" cx="312.6" cy="398.15" rx="6.36" ry="7.82"/>
<ellipse class="st9" cx="323.06" cy="398.15" rx="6.36" ry="7.82"/>
<ellipse class="st9" cx="520.96" cy="399.27" rx="6.36" ry="7.82"/>
<ellipse class="st9" cx="532.37" cy="399.27" rx="6.36" ry="7.82"/>
<ellipse class="st9" cx="542.82" cy="399.27" rx="6.36" ry="7.82"/>
<ellipse class="st7" cx="408.15" cy="220.43" rx="11.27" ry="13.68"/>
<ellipse class="st7" cx="427.91" cy="210.17" rx="2.65" ry="4.91"/>
<ellipse class="st7" cx="425.13" cy="228.01" rx="2.79" ry="1.93"/>
<ellipse class="st7" cx="371.35" cy="285.69" rx="8.8" ry="9.87"/>
<ellipse class="st7" cx="468.52" cy="300.86" rx="4.51" ry="8.47"/>
</svg>
