<?xml version="1.0" encoding="utf-8"?>
<!-- Generator: Adobe Illustrator 23.0.2, SVG Export Plug-In . SVG Version: 6.00 Build 0)  -->
<svg version="1.1" id="katman_1" xmlns="http://www.w3.org/2000/svg" xmlns:xlink="http://www.w3.org/1999/xlink" x="0px" y="0px"
	 viewBox="0 0 841.89 595.28" style="enable-background:new 0 0 841.89 595.28;" xml:space="preserve">
<style type="text/css">
	.st0{fill:#FDC209;}
	.st1{fill:#911440;}
	.st2{fill:#C7133B;}
	.st3{fill:#325EA9;}
	.st4{fill:#47AC6D;}
	.st5{fill:#EFB704;}
	.st6{fill:#F18807;}
	.st7{fill:#EDF6F4;}
	.st8{fill:#FFFFFF;}
	.st9{fill:#6C0325;}
	.st10{fill:#E7325A;}
	.st11{fill:#514999;}
	.st12{fill:#1D2E40;}
</style>
<g>
	<rect x="407.04" y="395.14" class="st0" width="10.82" height="96.51"/>
	<rect x="429.12" y="395.14" class="st0" width="10.82" height="96.51"/>
	<g>
		<path class="st1" d="M321.71,142.99c-8.61,33.88,13.06,68.04,48.39,76.29s70.96-12.52,79.57-46.4l-63.98-14.95L321.71,142.99z"/>
		<path class="st2" d="M414.65,111.13c-34.33-11.52-71.9,5.83-83.91,38.74l62.16,20.86L414.65,111.13z"/>
	</g>
	<path class="st3" d="M406.32,403.73h-92.2V236.47c0-51.22,41.52-92.73,92.73-92.73h82.5V320.7
		C489.34,366.56,452.17,403.73,406.32,403.73z"/>
	<g>
		<path class="st4" d="M489.34,143.74c-36.37,0-65.85,28.27-65.85,63.14s29.48,63.14,65.85,63.14v-63.14V143.74z"/>
		<path class="st5" d="M555.2,206.88c0-34.87-29.48-63.14-65.85-63.14v63.14H555.2z"/>
		<path class="st6" d="M532.73,206.34h-43.39v48.97C513.31,255.31,532.73,233.39,532.73,206.34z"/>
	</g>
	<ellipse class="st7" cx="456.42" cy="186.79" rx="19.74" ry="20.09"/>
	<ellipse class="st8" cx="456.42" cy="186.79" rx="2.34" ry="2.39"/>
</g>
<path class="st9" d="M374.96,429.1H358.1v-87.29h51.56v52.59C409.66,413.57,394.12,429.1,374.96,429.1z"/>
<path class="st1" d="M338.82,458.22h-12.03V344.92h51.56v73.77C378.35,440.52,360.65,458.22,338.82,458.22z"/>
<path class="st10" d="M301.8,486.51h-12.08v-141.6h51.56v102.11C341.28,468.83,323.61,486.51,301.8,486.51z"/>
<path class="st11" d="M343.17,398.46h-55.55v-118.1c0-13.83,11.22-25.05,25.05-25.05h105.18v68.47
	C417.86,365.03,384.42,398.46,343.17,398.46z"/>
<ellipse class="st12" cx="456.42" cy="189.17" rx="7.76" ry="7.44"/>
</svg>
