<?xml version="1.0" encoding="utf-8"?>
<!-- Generator: Adobe Illustrator 23.0.2, SVG Export Plug-In . SVG Version: 6.00 Build 0)  -->
<svg version="1.1" id="katman_1" xmlns="http://www.w3.org/2000/svg" xmlns:xlink="http://www.w3.org/1999/xlink" x="0px" y="0px"
	 viewBox="0 0 841.89 595.28" style="enable-background:new 0 0 841.89 595.28;" xml:space="preserve">
<style type="text/css">
	.st0{fill:#E8385D;}
	.st1{fill:#E7325A;}
	.st2{fill:#F18807;}
	.st3{fill:#FFCF02;}
	.st4{fill:#191325;}
	.st5{fill:#FDC209;}
	.st6{fill:#EB611C;}
	.st7{fill:#D3DA47;}
	.st8{fill:#79AEDD;}
	.st9{fill:#00A693;}
	.st10{fill:#2186C5;}
	.st11{fill:#2D2D74;}
</style>
<polygon class="st0" points="337.37,248.53 313.39,223.6 337.37,198.67 361.35,223.6 "/>
<g>
	<path class="st1" d="M334.72,286.04c0,41.96,32.71,75.97,73.07,75.97h63.81c1.8,0,3.25-1.51,3.25-3.38v-99.8H334.72V286.04z"/>
	<path class="st2" d="M414.96,155.63L414.96,155.63c-44.32,0-80.24,37.35-80.24,83.43v19.75h140.13v-40.92
		C474.84,183.51,448.03,155.63,414.96,155.63z"/>
	<path class="st3" d="M413.15,140.9L413.15,140.9c-44.32,0-80.24,37.35-80.24,83.43v19.75h140.13v-40.92
		C473.03,168.77,446.22,140.9,413.15,140.9z"/>
</g>
<ellipse class="st4" cx="362.99" cy="198.67" rx="6.56" ry="6.82"/>
<g>
	<rect x="406.55" y="389.64" class="st5" width="9.6" height="65.22"/>
	<rect x="437.14" y="389.64" class="st5" width="9.6" height="65.22"/>
	<rect x="404.62" y="362" class="st6" width="13.47" height="27.64"/>
	<rect x="435.2" y="362" class="st6" width="13.47" height="27.64"/>
</g>
<g>
	<path class="st7" d="M457.13,278.34h-73.14v-18.41h55.42c9.79,0,17.72,7.93,17.72,17.72V278.34z"/>
	<path class="st8" d="M478.36,295.95h-94.37v-24.01h71.38c12.69,0,22.99,10.29,22.99,22.99V295.95z"/>
	<path class="st9" d="M509.04,314.09H400.12c-8.91,0-16.13-7.22-16.13-16.13v-7.88h101.5c13.01,0,23.55,10.54,23.55,23.55V314.09z"
		/>
	<path class="st10" d="M530.26,327.97H407.54c-13.01,0-23.55-10.54-23.55-23.55v-0.46h122.72c13.01,0,23.55,10.54,23.55,23.55
		V327.97z"/>
</g>
<path class="st11" d="M447.01,327.97h-44.59c-10.34,0-18.72-8.38-18.72-18.72v-46.56c0-1.53,1.24-2.76,2.76-2.76h24.72
	c21.31,0,38.59,17.28,38.59,38.59v26.69C449.78,326.73,448.54,327.97,447.01,327.97z"/>
</svg>
