<?xml version="1.0" encoding="utf-8"?>
<!-- Generator: Adobe Illustrator 23.0.2, SVG Export Plug-In . SVG Version: 6.00 Build 0)  -->
<svg version="1.1" id="katman_1" xmlns="http://www.w3.org/2000/svg" xmlns:xlink="http://www.w3.org/1999/xlink" x="0px" y="0px"
	 viewBox="0 0 841.89 595.28" style="enable-background:new 0 0 841.89 595.28;" xml:space="preserve">
<style type="text/css">
	.st0{fill:#F2B132;}
	.st1{fill:#EB5E3E;}
	.st2{fill:#191325;}
	.st3{fill:#2B3A42;}
	.st4{fill:#EDF0F6;}
	.st5{fill:#1D2E40;}
	.st6{fill:#6C0325;}
	.st7{fill:#911440;}
	.st8{fill:#E7325A;}
	.st9{fill:#71B962;}
</style>
<rect x="455.94" y="397.26" class="st0" width="8.74" height="37.84"/>
<g>
	<path class="st0" d="M455.4,304.08H239.57v-25.67c0-65.2,52.86-118.06,118.06-118.06h97.77V304.08z"/>
</g>
<g>
	<path class="st1" d="M436.3,304.08h-66.33v-87.66c0-30.97,25.1-56.07,56.07-56.07h10.26V304.08z"/>
</g>
<path class="st2" d="M470.36,356.67h-69.17c-21.55,0-39.02-17.47-39.02-39.02v-13.78h108.19V356.67z"/>
<path class="st3" d="M522.61,401.85h-53.8c-43.51,0-78.77-35.27-78.77-78.77V216.24c0-30.87,25.02-55.89,55.89-55.89h20.51
	c31.02,0,56.16,25.15,56.16,56.16V401.85z"/>
<rect x="476.71" y="401.85" class="st0" width="8.74" height="33.24"/>
<ellipse class="st4" cx="448.84" cy="227.87" rx="40.02" ry="35.11"/>
<ellipse class="st5" cx="438.01" cy="218.37" rx="10.83" ry="9.5"/>
<g>
	<path class="st6" d="M542.68,347.57l0-9.55h-64.17v30.53h39.19C528,369.77,541.38,359.61,542.68,347.57z"/>
	<path class="st7" d="M572.21,327.2v-4.45h-83.29v30.53h57.21C560.53,353.29,572.21,341.61,572.21,327.2z"/>
	<path class="st8" d="M603.71,296.7v-4.48H499.62v30.53h78.04C592.05,322.75,603.71,311.09,603.71,296.7z"/>
	<path class="st9" d="M541.53,320.07v-27.85h-88.7c-9.13,0-16.53,7.4-16.53,16.53v60.59h55.96
		C519.47,369.34,541.53,347.28,541.53,320.07z"/>
</g>
</svg>
