<?xml version="1.0" encoding="utf-8"?>
<!-- Generator: Adobe Illustrator 23.0.2, SVG Export Plug-In . SVG Version: 6.00 Build 0)  -->
<svg version="1.1" id="katman_1" xmlns="http://www.w3.org/2000/svg" xmlns:xlink="http://www.w3.org/1999/xlink" x="0px" y="0px"
	 viewBox="0 0 841.89 595.28" style="enable-background:new 0 0 841.89 595.28;" xml:space="preserve">
<style type="text/css">
	.st0{fill:#7D4E24;stroke:#683C11;stroke-width:2.3197;stroke-miterlimit:10;}
	.st1{fill:#D60B52;stroke:#1D71B8;stroke-width:2.8518;stroke-miterlimit:10;}
	.st2{fill:#00A19A;stroke:#00A19A;stroke-width:4.6344;stroke-miterlimit:10;}
	.st3{fill:#1D71B8;stroke:#1D71B8;stroke-width:4.6344;stroke-miterlimit:10;}
	.st4{fill:#009FE3;stroke:#009FE3;stroke-width:4.7282;stroke-miterlimit:10;}
	.st5{fill:#E94E1B;stroke:#E94E1B;stroke-width:6.5054;stroke-miterlimit:10;}
	.st6{fill:#FFFFFF;stroke:#009FE3;stroke-width:5.9396;stroke-miterlimit:10;}
	.st7{fill:#FFFFFF;stroke:#009FE3;stroke-width:6.0971;stroke-miterlimit:10;}
	.st8{stroke:#000000;stroke-width:2.9167;stroke-miterlimit:10;}
	.st9{fill:none;stroke:#009FE3;stroke-width:4.6408;stroke-miterlimit:10;}
	.st10{fill:#E94E1B;stroke:#E94E1B;stroke-width:2.6814;stroke-miterlimit:10;}
	.st11{fill:#009FE3;stroke:#009FE3;stroke-width:2.508;stroke-miterlimit:10;}
</style>
<path class="st0" d="M531.46,435.4H311.98c-7.45,0-13.5-6.04-13.5-13.5v-3.35c0-7.45,6.04-13.5,13.5-13.5h219.49
	c7.45,0,13.5,6.04,13.5,13.5v3.35C544.96,429.36,538.91,435.4,531.46,435.4z"/>
<ellipse class="st1" cx="415.67" cy="298.39" rx="75.9" ry="84.39"/>
<ellipse class="st2" cx="416.27" cy="341.06" rx="43.2" ry="49.26"/>
<ellipse class="st3" cx="416.27" cy="305.1" rx="55.8" ry="58.41"/>
<ellipse class="st4" cx="416.27" cy="253.9" rx="66.94" ry="74.75"/>
<polygon class="st5" points="443.16,270.03 416.27,298.96 389.38,270.03 416.27,241.11 "/>
<ellipse class="st6" cx="377.41" cy="241.92" rx="37.64" ry="40.83"/>
<ellipse class="st7" cx="454.71" cy="241.92" rx="39.66" ry="40.83"/>
<ellipse class="st8" cx="384.92" cy="241.92" rx="4.43" ry="4.77"/>
<ellipse class="st8" cx="447.62" cy="241.92" rx="4.43" ry="4.77"/>
<path class="st9" d="M414.14,188.51"/>
<path class="st9" d="M469.94,256.16"/>
<path class="st10" d="M402.19,412.04h-0.66c-3.11,0-5.64-2.53-5.64-5.64v-32.17c0-3.11,2.53-5.64,5.64-5.64h0.66
	c3.11,0,5.64,2.53,5.64,5.64v32.17C407.83,409.52,405.31,412.04,402.19,412.04z"/>
<path class="st10" d="M435.86,412.04h-0.66c-3.11,0-5.64-2.53-5.64-5.64v-32.17c0-3.11,2.53-5.64,5.64-5.64h0.66
	c3.11,0,5.64,2.53,5.64,5.64v32.17C441.5,409.52,438.98,412.04,435.86,412.04z"/>
<path class="st11" d="M418.38,181.34L418.38,181.34c-2.02,2.39-5.28,2.39-7.3,0l-10.22-12.15c-2.02-2.39-2.02-6.28,0-8.67h0
	c2.02-2.39,5.28-2.39,7.3,0l10.22,12.15C420.39,175.06,420.39,178.95,418.38,181.34z"/>
<path class="st11" d="M412.96,181.34L412.96,181.34c-2.02-2.39-2.02-6.28,0-8.67l10.22-12.15c2.02-2.39,5.28-2.39,7.3,0l0,0
	c2.02,2.39,2.02,6.28,0,8.67l-10.22,12.15C418.24,183.73,414.97,183.73,412.96,181.34z"/>
</svg>
