<?xml version="1.0" encoding="utf-8"?>
<!-- Generator: Adobe Illustrator 23.0.2, SVG Export Plug-In . SVG Version: 6.00 Build 0)  -->
<svg version="1.1" id="katman_1" xmlns="http://www.w3.org/2000/svg" xmlns:xlink="http://www.w3.org/1999/xlink" x="0px" y="0px"
	 viewBox="0 0 841.89 595.28" style="enable-background:new 0 0 841.89 595.28;" xml:space="preserve">
<style type="text/css">
	.st0{fill:#9D9D9C;}
	.st1{fill:#561110;stroke:#000000;stroke-width:0.1004;stroke-miterlimit:10;}
	.st2{fill:#911440;}
	.st3{fill:#561110;}
	.st4{fill:#F2F2F2;stroke:#000000;stroke-width:0.1523;stroke-miterlimit:10;}
	.st5{opacity:0.7;fill:#FEF0C1;}
	.st6{fill:#FDC209;}
	.st7{fill:#BE1622;}
	.st8{fill:#92222D;}
	.st9{fill:#143658;}
	.st10{fill:#A48A7B;stroke:#000000;stroke-miterlimit:10;}
	.st11{fill:#F9B233;stroke:#000000;stroke-miterlimit:10;}
	.st12{fill:#A48A7B;}
	.st13{opacity:0.84;fill:#878787;}
	.st14{fill:none;stroke:#000000;stroke-width:1.209;stroke-linecap:round;stroke-miterlimit:10;}
	.st15{fill:#86D0EF;}
	.st16{opacity:0.98;fill:#86D0EF;}
	.st17{fill:none;stroke:#000000;stroke-width:0.4288;stroke-miterlimit:10;}
	.st18{fill:#29235C;}
	.st19{fill:#2D2E83;}
</style>
<rect x="50.8" y="49.69" class="st0" width="745.77" height="462.32"/>
<path class="st1" d="M505.34,185.51c0-1.44-0.15-2.08-0.42,0.73c-0.14,1.18-0.31-2.89-0.52-0.73c-0.2,1.84-0.44,0.73-0.71,2.84
	c-0.27,1.34-0.56,3.72-0.89,2.69c-0.33-1.16-0.68,0.06-1.06,0.69c-0.38-0.65-0.79,2.11-1.23,3.31c-0.43,2.27-0.9,1.56-1.38,1.21
	c-0.49,0.54-0.99,3.29-1.53,4.58c-0.53,1.29-1.09,1.98-1.66,0.94c-1.15-2.03-2.39,1.8-3.7,6.41c-0.49-0.31-0.99-0.39-1.51,2.61
	c-0.51-0.65-1.03,2.06-1.56,2.71c-0.27,0.76-0.53,2-0.8,3c-0.27,0.57-0.54,0.05-0.82,1.64c-0.27-1.44-0.55-0.51-0.83-1.12
	c-0.28-2-0.56-1.76-0.84,2.16c-0.28,1.9-0.57,0.63-0.85,1.78c-0.29,3.04-0.57,0.74-0.86,1.82c-0.29,1.62-0.58,1.13-0.87,0.37
	c-0.29-1.42-0.59-0.61-0.88,2.04c-0.3-0.36-0.59-3.2-0.89,1.53c-0.3,1.75-0.6,3.23-0.9,2.45c-0.3,1.58-0.61,3.04-0.91,2.05
	c-0.31-1.19-0.61,3.98-0.92,0.25c-0.28,0.17-0.57,4.58-0.86,1.68c-0.29-4.15-0.57,1.56-0.86,1.29c-0.29,1.21-0.58,4.54-0.87,1.5
	c-0.29,0.19-0.58,1.27-0.87,1.51c-0.58,1.55-1.17,4.07-1.76,3.33c-0.59,0.43-1.19-0.14-1.78,2.81c-1.08,1.88-2.18,3.77-3.28,5.67
	c-23.06,39.95-48.43,83.89-48.43,83.89s20.05,0,46.39,0c2.2,0,4.43,1.55,6.71,0c2.28,2.64,4.59-0.24,6.92,0
	c2.34-0.74,4.71-1.8,7.09,0c2.39-1.45,4.79-1.73,7.21,0c2.42,0,4.85,0,7.28,0c43.82,0,88.92,0,88.92,0s-20.64-35.75-41.61-72.06
	c-0.55-0.96-1.1-1.91-1.66-2.87c-0.28-0.48-0.55-0.87-0.83-1.3c-0.28-0.43-0.55-1.39-0.83-1.56c-0.28,1.95-0.55,2.03-0.83,1.04
	c-0.28-0.43-0.55-6.81-0.83-2.85c-0.27-0.48-0.55,0.31-0.82-2.54c-0.27-1.3-0.55,0.2-0.82-1.36c-0.27,1.28-0.55,0.31-0.82-1.29
	c-0.27,3.45-0.55-1.15-0.82-1.62c-0.27,0.37-0.54-4.46-0.82-3.55c-0.27,2.21-0.54-1.63-0.81,0.8c-0.27-1.01-0.54-2.62-0.81-1.17
	c-0.27,0.65-0.54,2.04-0.81-0.15c-0.27-0.53-0.54-4-0.8-0.65c-0.27-1.91-0.53,5.13-0.8-3.6c-0.27-2.01-0.53-1.6-0.8-2.68
	c-0.26-0.34-0.53-1.11-0.79-1.45c-0.53-0.67-1.05-0.88-1.57-1.34c-1.04,4.8-2.06-2.51-3.07-5.32c-1.01-0.38-2-4.6-2.97-5.15
	c-0.97,1.76-1.92-2.81-2.85-4.94c-0.93-2.17-1.83-5.06-2.72-4.7c-0.88-1.2-1.74-3.33-2.56-4.44c-0.83-2.4-1.62-4.44-2.39-4.14
	c-0.77-0.79-1.5-1.09-2.2-3.81c-0.7-0.06-1.36,2.71-1.99-3.45c-0.35,2.43-0.68-1.23-1-1.58c-0.32-2.3-0.63-2-0.93-1.77
	c-0.3-0.23-0.58,0.9-0.86-0.93c-0.27-1.03-0.53-2.16-0.78-1.9c-0.25-1.11-0.48-1.17-0.7-1.59c-0.22-2.13-0.42-0.16-0.62-0.69
	c-0.19-2.98-0.37,0.02-0.53-3.38c-0.16,0.18-0.31,1.04-0.44,1.7c-0.13,0.35-0.25,0.47-0.35-1.14c-0.1,3.25-0.18-2.75-0.25,0.1
	c-0.07-1.68-0.12-2.65-0.15-3.12C505.35,181.9,505.34,181.76,505.34,185.51z"/>
<g>
	<path class="st2" d="M431.88,139.51c0,0.69-0.47,0.57-0.47,0.76c0-2.62,0.93,2.96,0.93,0C432.34,138.67,431.88,143.5,431.88,139.51
		z"/>
	<path class="st2" d="M397.85,225.39h-56.38c0,0-2.98,4.05-7.83,10.63c-1.21,1.65-2.54,3.45-3.97,5.39
		c-0.51,0.42-1.03,2.42-1.57,2.27c-0.53-1-1.08-3.11-1.64,2.09c-0.56,2.57-1.13,1.83-1.7,4.03c-0.58,2.26-1.17,2.44-1.77,0.68
		c-0.6,0.57-1.21,1.75-1.82,1.24c-0.62,0.6-1.24-0.93-1.88,3.79c-0.63-0.05-1.27-0.19-1.92,1.69c-0.65,2.04-1.3,2.99-1.97,3.59
		c-0.66,0.9-1.33,1.81-2,2.72s-1.35,1.84-2.04,2.77c-24.63,33.46-55.42,75.29-55.42,75.29s43.88,0,98.26,0c2.09,0,4.2,0,6.32,0
		c2.12-0.28,4.26-2.35,6.4,0c2.15-0.62,4.3,0.83,6.47,0c2.17-0.95,4.35,0.43,6.53,0c2.19,1.98,4.38-0.2,6.58,0
		c2.2,1.11,4.4,0.29,6.61,0c2.21,0,4.42,0,6.64,0c22.16,0,44.54,0,65.25,0c2.28,0,4.55,0,6.79,0c2.24,2.15,4.46-0.29,6.65,0
		c2.19,4.07,4.36,3.12,6.5,0c2.14,2.21,4.25-2.9,6.33,0c2.08,1.61,4.13,2.34,6.14,0c2.02,0,4,0,5.95,0c33.1,0,55.91,0,55.91,0
		s-19.22-26.11-39.44-53.58c-1.26-1.72-2.53-3.44-3.8-5.16c-1.27,0.04-2.53-1.03-3.79-5.16c-1.26,3.08-2.52-0.76-3.76-5.11
		c-1.25-2.97-2.48-0.12-3.71-5.04c-1.22-1.66-2.43-3.31-3.62-4.92c-1.02-1.39-2.03-3.19-3.02-4.1c-0.99-0.91-1.97-2.52-2.92-3.97
		c-0.96-2.14-1.89-2.79-2.81-3.81c-0.92-2.61-1.81-6.58-2.68-3.64c-0.87-1.43-1.71-2.42-2.53-3.43c-0.82-6.76-1.6-3.96-2.36-3.21
		c-0.76-3.4-1.49-7.34-2.18-2.96c-0.46,6.28-0.9-3.3-1.32-1.66c-0.43,4.69-0.84,1.2-1.23-1.81c-0.4-1.02-0.78-5.38-1.14-1.65
		c-0.36,0.97-0.71-0.39-1.04-1.31c-0.33,3.61-0.64,1.12-0.94-0.54c-0.29,4-0.57-3.98-0.83-1.86c-0.26-2.87-0.49-2.49-0.71-0.12
		c-0.22-0.34-0.42-1.83-0.59-1.65c-0.35,0.12-0.63-0.42-0.81-1.1c-0.18-0.15-0.28,2.53-0.28-0.38c0-1.5-0.29-0.17-0.83,0
		c-0.54-1.69-1.33-1.04-2.34,0c-0.94,0-2.07,0-3.36,0c-18.02,0-67.17,0-67.17,0"/>
	<path class="st3" d="M404.21,184.25c0-3.1-0.22,4.01-0.64,0.76c-0.21-1.42-0.46-2.86-0.76-0.7c-0.3,1.5-0.64,0.46-1.02,2.81
		c-0.38,2.28-0.8,0.29-1.25,3.01c-0.45,1.36-0.94-1.4-1.46,0.22c-0.52,1.02-1.07-0.83-1.64-0.68c-0.57,1.73-1.17,1.74-1.8,4.76
		c-1.24,1.79-2.57,5.97-3.95,4.7c-1.38-0.6-2.81,6.29-4.26,5.07c-1.45,1.29-2.92,3.14-4.37,5.2c-1.45,3.94-2.88,5.78-4.26,5.07
		c-1.38,1.64-2.71,3.22-3.95,4.7c-4.97,5.91-8.56,10.18-8.56,10.18h65.12c0,0-12.09-20.05-20.14-33.42
		c-0.5-0.84-0.99-1.51-1.46-2.22c-0.47-0.9-0.92-1.39-1.34-2.42c-0.42,0.99-0.83-1.07-1.2-2.56c-0.37-3.08-0.72-0.07-1.03-1.15
		c-0.31-2.81-0.6,0.86-0.85-0.06c-0.25-0.59-0.46,0.78-0.63-2.4C404.4,183.84,404.21,184.38,404.21,184.25z"/>
	<path class="st2" d="M465.58,224.78c0,1.78-0.04,2.97-0.11,1.92c-0.07,0.52-0.18-1.79-0.31-2.74c-0.14,0.48-0.3-0.8-0.5-2.18
		c-0.19,0.33-0.42-1.12-0.66-0.07c-0.25,1.62-0.52-3.96-0.81-2.43c-0.29,1.6-0.61-0.07-0.94-0.95c-0.33-5.98-0.68,1.03-1.05-2.98
		c-0.36-0.51-0.74,3.78-1.14-1.25c-0.39-1.93-0.79-3.91-1.21-3.21c-0.41,0.09-0.83-0.65-1.26-1.56c-0.43-1.66-0.86-2.11-1.29-2.54
		s-0.87-0.86-1.3-2.48c-0.87-4.25-1.73-3.73-2.57-4.97c-0.49,0.17-0.96,1.81-1.42-2.58c-0.46-2.19-0.91-2.1-1.33-2.77
		c-0.43-0.37-0.83-1.48-1.21-0.66c-0.38-3.23-0.73-2.32-1.06-3.74c-0.32,1.16-0.62-0.11-0.88-0.57c-0.26-1.38-0.48-2.36-0.66-2.41
		c-0.36-0.88-0.57-0.3-0.57-1.1c0,1.17-0.16-1.56-0.46,1.07c-0.15,0.09-0.33,0.94-0.54,0.31c-0.21,1.08-0.45,1.63-0.72,2.62
		c-0.27,1.88-0.56,1.79-0.88,1.94c-0.32-0.12-0.65,0.39-1.01,2.43c-0.36,1.68-0.73,1.23-1.12,2.35c-0.39,0.93-0.8,0.86-1.21,3.06
		c-0.83-1.16-1.71,6.27-2.6,6.03c-0.89,2.31-1.8,7.3-2.69,6.23c-0.89,2.37-1.77,3.39-2.6,6.03c-0.83,0.69-1.62,3.17-2.33,5.41
		c-0.71-1.47-1.35-0.02-1.89,4.37c-0.54,5.33-0.97-0.23-1.26,2.93c-0.3,0.37-0.46,1.1-0.46,1.07c0,1.61,0.33-0.88,0.94,0.06
		c0.61-0.3,1.5,4.08,2.63,0.16c1.13,2.22,2.49,0.54,4.03,0.25c1.55-2.11,3.28,1.3,5.16,0.32c1.88,0.11,3.89,0.24,6,0.37
		c1.9,0.12,3.87,0.24,5.89,0.36c2.02,0.12,4.08,0.25,6.14,0.38c1.03-0.19,2.07-1.01,3.1-0.25c1.03,0.92,2.06-1.07,3.09,0.63
		c1.02,0.07,2.04-1.89,3.05-1.35c1.01,1.56,2,2.12,2.98,1.72c0.98,2.08,1.94,2.15,2.89,1.71c0.95-0.44,1.87-1.4,2.77-1.37
		c0.9,0.3,1.78,0.35,2.63,0.34s1.67-0.08,2.46-0.03c2.11,0.63,3.98-0.09,5.55,0.34c1.57,0.1,2.82,0.17,3.69,0.23
		c0.86,0.05,1.34,0.08,1.34,0.08s-0.25-0.4-0.69-1.12c-0.22-0.36-0.49-0.69-0.8-1.15c-0.31-0.7-0.66-1.02-1.05-1.85
		c-0.39,0.16-0.81,0.59-1.26-1.55c-0.45,0.04-0.93-0.24-1.43-2.79c-0.5-1.37-1.02-2.95-1.55-2.52c-0.53,0.05-1.08-0.87-1.63-2.63
		c-0.28-2.43-0.56-1.2-0.83-0.96c-0.28,0.34-0.56-1.36-0.84-1.75c-0.28,2.89-0.56-1.39-0.84-1.11c-0.28,0.29-0.56-2.4-0.83-1.6
		c-0.28,2.21-0.55,0.94-0.82,0.01c-0.27-2.21-0.54-2.54-0.81-1.21c-0.27-1.22-0.53-1.28-0.79-1.37c-0.26-0.35-0.51-0.9-0.76-2.58
		c-0.5-0.46-0.98-1.76-1.43-2.11c-0.45-2.6-0.87-2.5-1.26-2.24c-0.39-0.28-0.74-1.68-1.05-0.8c-0.31,0.43-0.58-0.19-0.8-2.2
		c-0.44-1.76-0.69-1.2-0.69-1.12c0-0.29-0.11,0.43-0.3,1.64c-0.09,0.63-0.21,1.23-0.34,2.2c-0.13-0.01-0.27,3.45-0.42,1.9
		c-0.08,0.87-0.15,0.95-0.23,1.17c-0.08,0.95-0.16-0.48-0.24,1.41c-0.08,3.89-0.17,4.27-0.25,2.18c-0.08-0.27-0.17,2.97-0.26,0.56
		c-0.09,1.05-0.17-2.2-0.26-0.09c-0.08-0.24-0.17,0.16-0.25,3.12c-0.08,2.13-0.16,2.59-0.24,3.25c-0.08,0.65-0.16,0.61-0.23-0.96
		c-0.15-0.97-0.29-0.48-0.42,3.02c-0.13,2.61-0.24,1.82-0.34,1.08c-0.09-2.49-0.17,2.82-0.22,2.92
		C465.61,228.18,465.58,225.56,465.58,224.78z"/>
	<polygon class="st4" points="424.61,231.51 425.53,229.37 423.68,229.37 	"/>
	<path class="st4" d="M433.2,141.65c0,1.43-0.86-3.74-0.86-1.39c0,2.2-0.93,2.32-0.93,0c0-2.14-0.86,0.41-0.86,1.39
		c0,0.78,0.66,0.4,1.32,0C432.54,139.78,433.2,143.64,433.2,141.65z"/>
	<path class="st4" d="M465.58,222.79c0,3.48,0.03,2.92,0.08,1.37c0.05,1.95,0.13-4.64,0.22-3.01c0.09-4.94,0.21,0.24,0.34-3.3
		c0.06-0.79,0.13,0.3,0.2,0.94c0.07,0.64,0.14,0.84,0.22-1.74c0.04-2.43,0.08-3.83,0.12-3.29c0.04-2.81,0.08-1.19,0.12-0.15
		c0.04-0.78,0.08-2.5,0.12-0.87c0.04,2.29,0.08,0.64,0.12,1.72c0.08,0.22,0.17,1.49,0.25-2.12c0.08,0.06,0.17,2.47,0.26-0.62
		c0.09,1.01,0.17-1.12,0.26-2.02c0.08,3.19,0.17,0.38,0.25-1.52c0.08,0.32,0.16-1.67,0.24-1.96c0.08,1.02,0.16-0.23,0.23,0.17
		c0.08-0.42,0.15-2.12,0.22-2.04c0.07-0.39,0.14-3.11,0.2-1.97c0.06-1.24,0.12-0.83,0.18-1.24c0.06-0.12,0.11-0.33,0.16,1.15
		c0.19,0.17,0.3-0.32,0.3-1.64c0-3.59-0.04-1.69-0.12-1.63c-0.08,0.26-0.19,0.73-0.35,0.88c-0.15,1.93-0.34,1.79-0.56,1.64
		c-0.11,1.3-0.23-0.25-0.35-0.7c-0.13-0.03-0.26-2.14-0.4-3.05c-0.28,1.01-0.59-0.03-0.93-0.21c-0.34-1.06-0.7-2.26-1.09-3.06
		c-0.78,4.71-1.65-3.01-2.61-4.21c-0.95-3.41-1.98-5.5-3.06-4.95c-1.08-3.37-2.22-2.77-3.38-5.47c-1.17,0.91-2.37-2.83-3.58-5.79
		c-1.21-4.62-2.43-5.57-3.64-5.89c-1.21-5.58-2.41-7.19-3.58-5.79c-1.17-3.52-2.3-6.03-3.38-5.47c-1.08,1.76-2.11-5.09-3.06-4.95
		c-0.48-3.18-0.93-4.16-1.37-4.38c-0.44-1.78-0.85-0.45-1.24,0.17c-0.39-1.91-0.75-0.74-1.09-1.98c-0.34-1.7-0.65-3.37-0.93-1.29
		c-0.28-0.96-0.53-2.25-0.75-0.53c-0.22-0.91-0.41-4.36-0.56-1.59c-0.15-3.13-0.27-0.16-0.35-1.15c-0.08-1.87-0.12-3.34-0.12,0.4
		c0,0.04-0.66,4.9-1.32,0c-0.33-3.29-0.66,2.71-0.91-0.99c-0.25,3.78-0.41-1.11-0.41,0.99c0-0.33-0.22,0.39-0.61,0.99
		c-0.2-3.08-0.44-4.3-0.72,1.07c-0.28,4.51-0.6,1.96-0.96,1.65c-0.36-3.62-0.75,7.16-1.17,2.44c-0.42,5.22-0.87,1.85-1.35,1.63
		c-0.47,5.07-0.97,1.24-1.49,2.42c-0.52,2.52-1.06-0.37-1.61,2.61c-0.97,4.26-1.98,4.94-3.02,4.88c-1.03,0.27-2.09,4.16-3.13,5.07
		c-1.05,4.33-2.08,2.95-3.09,4.99c-1-0.23-1.97,3.4-2.88,4.66c-0.45,1.42-0.89,1.95-1.31,2.36c-0.42,0.42-0.82,0.72-1.2,1.71
		c-0.38-0.4-0.74-0.62-1.07-0.15c-0.33,1.02-0.64,2.1-0.92,3.38c-0.28,0.47-0.53,1.03-0.75,0.19c-0.22,0.24-0.41,1.65-0.56,1.94
		c-0.31,0.39-0.47-0.26-0.47,0.77c0,0.52,0.04-0.08,0.12-0.55c0.08-0.61,0.19-1.75,0.34,1.6c0.15-3.87,0.33,0.43,0.53,1.91
		c0.21,2.64,0.45,3.75,0.71,0.97c0.26-2.58,0.55,1.47,0.86,2.32c0.31,1.39,0.64-2.07,0.99,1.99c0.35-0.29,0.72,5.6,1.1,2.72
		c0.38,1.92,0.78,1.61,1.19,2.61c0.72,1.8,1.47,0.8,2.23,5.17c0.76,0.97,1.54,1.41,2.32,5.37c0.77,4.22,1.54,4.27,2.28,5.29
		c0.74-2.35,1.46-1.26,2.13,4.94c0.67,7.17,1.3,2,1.86,4.31c0.56,3.5,1.06,2.92,1.48,3.42c0.41,3.52,0.74,2.53,0.97,2.25
		c0.23-1.46,0.35,3.45,0.35,0.81c0,1.74,1.85-0.77,1.85,0c0-2.52,0.16,3.62,0.46-1.07c0.3-0.24,0.73,1.7,1.26-2.93
		c0.54-4.9,1.17-4.98,1.89-4.37c0.71-2.63,1.5-7.68,2.33-5.41c0.83,2.74,1.71-2.5,2.6-6.03c0.89-3.09,1.8-1.58,2.69-6.23
		c0.89-3.7,1.77-5.75,2.6-6.03c0.42,0.16,0.82-0.01,1.21-1.5c0.39-1.38,0.77-1.82,1.12-3.9c0.36-2.77,0.69-1.69,1.01-1.89
		c0.32-1.14,0.61-1.78,0.88-2.48c0.27-0.23,0.51,0.93,0.72-1.41c0.21-0.92,0.39-1.85,0.54-1.51c0.3-2.04,0.46-0.68,0.46-1.07
		c0,1.44,0.2,0.56,0.57,1.1c0.18,2.56,0.41,1.16,0.66,1.86c0.26,0.92,0.55-0.68,0.88,1.12c0.32,0.73,0.68,0.81,1.06,1.88
		c0.38-0.81,0.79,5.42,1.21,2.52c0.43-2.02,0.87,0.83,1.33,1.71c0.46,2.67,0.94,1.96,1.42,3.63c0.83,2.44,1.7,4.69,2.57,4.97
		c0.87,2.63,1.74,2.9,2.59,5.02c0.43-0.18,0.85,0.3,1.26,1.18c0.41-2.52,0.81,1.29,1.21,3.6c0.39-0.24,0.77-0.06,1.14,3.11
		c0.36-0.76,0.71-0.38,1.05,1.12c0.33,4.43,0.65,3.99,0.94,2.51c0.29,1.66,0.56,1,0.81,0.87c0.25,2.15,0.47,0.37,0.66,3.45
		c0.19,0.83,0.36-2.38,0.5-1.19C465.44,219.54,465.58,223.41,465.58,222.79z"/>
</g>
<path class="st5" d="M379.64,206.81c0,1.25-0.09,5.23-0.27,4.41c-0.18,1.21-0.45,2.86-0.81,4.29c-0.35,1.41-0.79,2.79-1.31,4.15
	c-6.23,16.3-24,28.83-46.1,32.08c-0.92,0.14-1.85,0.25-2.78,0.36c-0.94,0.01-1.88,1.29-2.83,0.26c-0.95,0.38-1.9,0.39-2.87,0.16
	c-0.96,0.38-1.93-0.19-2.9,0.05c-0.97-0.42-1.94-0.49-2.9-0.05c-0.96-0.04-1.92-0.09-2.87-0.16c-30.36-2.22-54.11-21.76-54.11-45.54
	c0-25.27,26.81-45.75,59.87-45.75c27.56,0,50.76,14.22,57.73,33.59c0.46,1.29,0.86,2.6,1.17,3.94c0.32,3.27,0.56,1.88,0.72,4.06
	C379.56,202.79,379.64,204.26,379.64,206.81z"/>
<path class="st6" d="M359.86,211.06c0,17.04-14.51,31.12-33.33,33.35c-0.86,0.1-1.72,0.18-2.59,0.23c-0.87-0.74-1.75,0.68-2.64,0.08
	c-0.89-1.49-1.77-0.45-2.64-0.08c-0.87-0.33-1.74,0.42-2.59-0.23c-0.86-0.92-1.7-0.78-2.54-0.38c-0.84-1.79-1.66,0.48-2.48-0.52
	c-0.82-0.56-1.62-0.83-2.41-0.66c-0.79-0.52-1.58-0.57-2.34-0.79c-0.77-0.28-1.53-0.59-2.27-0.91
	c-12.62-5.53-21.28-16.93-21.28-30.1c0-18.59,17.26-33.66,38.56-33.66C342.6,177.4,359.86,192.47,359.86,211.06z"/>
<path class="st2" d="M557.31,230.44c0,2.99-0.22,1.21-0.63,0.66c-0.21,4.25-0.47,1.69-0.77,0.21c-0.31-2.68-0.66,0.51-1.06,1.7
	c-0.4-2.79-0.85-0.08-1.34,0.87c-0.49,1.4-1.03,3.02-1.6,2.2c-1.16,3.57-2.48,2.62-3.96,4.13c-0.42,3.32-0.86,7.28-1.3,1.44
	c-0.45,0.83-0.91,3.87-1.38,1.36c-0.47-0.91-0.95-1.99-1.45,2.64c-0.49,0.16-1,3.36-1.52,0.45c-0.52,1.3-1.04,2.88-1.58,3.31
	c-0.54,2.25-1.09-4.64-1.65,0.05c-0.56,1.3-1.13,0.91-1.71,3.4c-0.58-3.39-1.17-0.62-1.77,0.22c-0.6,5.67-1.21,2.25-1.82,1.84
	c-0.62-1.67-1.24-1.92-1.88,2.02c-0.64,1.06-1.28,0.62-1.93,0.64s-1.31,0.51-1.98,3.44c-1.34,2.33-2.71,2.06-4.11,4.28
	c-1.4-0.7-2.83,2.47-4.29,4.47c-1.46-2.82-2.94,9.39-4.44,4.63c-1.51,3.97-3.04,0.59-4.59,4.78c-1.55,0.65-3.12,4-4.71,4.91
	c-1.59,1.66-3.19,3.33-4.81,5.02c-5.87,6.13-11.94,12.45-18.06,18.83c-1.53,1.6-3.06,3.19-4.6,4.79c-0.77-0.26-1.53,0.94-2.3,2.21
	c-0.77,1.88-1.54,2.59-2.3,2.59c-0.77,0.39-1.53,4.56-2.3,3.65c-0.77,1.95-1.53,4-2.3,1.15c-0.77-0.6-1.53-0.3-2.29,1.77
	c-0.76,4.01-1.53,3.06-2.29,3.01c-1.52,1.59-3.04,3.17-4.55,4.74c-1.73,1.81-3.46,3.61-5.17,5.39c-1.71,2.51-3.41,4.84-5.09,5.31
	c-1.68,2.22-3.35,3.73-4.99,5.2c-1.64-0.23-3.27,2.96-4.87,5.08c-1.6-0.42-3.18,3.97-4.73,4.93c-1.55-0.34-3.08,5.9-4.57,4.76
	c-1.49,0.84-2.96,1.72-4.39,4.58c-1.43,3.47-2.83,1.25-4.19,4.37c-1.36,1.42-2.68,2.8-3.97,4.14c-14.12,14.72-23.4,24.4-23.4,24.4
	s7.31,0,19.75,0c0.65,0,1.32,0,2.01,0c0.68-0.61,1.38-0.2,2.09,0c0.71,0.03,1.43,0.44,2.17,0c0.74-0.84,1.49,0.47,2.25,0
	c0.38-0.4,0.77-2.6,1.15-1.25c0.39-0.76,0.78,0.5,1.17,1.25c0.39,0.35,0.79,2.11,1.19,0.91c0.4-0.8,0.8,0.45,1.21-0.91
	c0.81,1.03,1.64,0.86,2.48,0c1.23-2.98,2.48-2.18,3.76,0c1.28-0.45,2.58,1.38,3.91,0c1.33-1.58,2.68-2.08,4.05,0
	c1.37,0,2.77,0,4.19,0c20.01,0,44.34,0,70.15,0c1.72,0,3.45,0,5.18,0c1.73,1.26,3.47,4.96,5.21,0c0.46-1.39,0.93,3.28,1.39,0
	c0.46,1.31,0.93-1.37,1.39,0c0.46,2.56,0.93-2.85,1.39,0.21c0.47,2.58,0.93,1.59,1.4-0.21c0.47-2.67,0.93-0.88,1.4,0.1
	c0.47-2.12,0.93-1.54,1.4-0.1c0.47-1.99,0.93,0.1,1.4-0.42c0.47,1.27,0.93,0.4,1.4,0.42c0.47,0.02,0.94-0.64,1.4,0.7
	c0.47,3.1,0.94,1.07,1.4-0.7c0.62-1.31,1.24,1.22,1.85,0c0.62,1.15,1.24-0.68,1.86,0c0.41,0.37,0.83,0.13,1.24,0.58
	c0.41-0.32,0.83-0.01,1.24-0.09c0.41,0.66,0.83-0.55,1.24-0.5c0.41,0.58,0.83-0.65,1.24,0.32c0.41,0.06,0.83,0.29,1.24,0.03
	c0.41,1.67,0.83,0.48,1.24-0.36c0.41-1.41,0.83-0.94,1.24-1.05c0.41,0.21,0.83-0.49,1.24-0.18c0.41,0.31,0.83,0.93,1.24,1.23
	c0.41-0.16,0.83-0.39,1.24,0.07c0.41-0.78,0.83,0.94,1.24,0.23c0.41,0.34,0.83-0.03,1.24-0.29c0.62-0.38,1.24-0.24,1.86,0
	c0.62,0.11,1.24-0.31,1.86,0c0.62-0.42,1.24,0.6,1.86,0c0.62-0.03,1.24,0.16,1.86,0c0.62-0.89,1.24,0.21,1.86,0
	c0.62,0.43,1.24-0.54,1.86,0c0.62,0.29,1.24-0.6,1.86,0c0.62-0.19,1.24,0.42,1.85,0c0.41,0.06,0.82-0.27,1.24-0.45
	c0.41-0.21,0.82-0.6,1.23-0.27c0.41-0.65,0.82,0.15,1.23,0.72c0.41-0.07,0.82,0.07,1.23,0.43c0.41-1.21,0.82,0.32,1.23,0.02
	c0.41,1.33,0.82-0.04,1.23-0.45c0.41,0.84,0.82-0.76,1.23-0.32c0.41,0.22,0.82,0.45,1.23-0.31c0.41,0.75,0.82-0.13,1.23,0.62
	c0.61,0.76,1.22-0.94,1.84-0.26c0.61,0.85,1.22-2.05,1.83,0.26c0.61-0.51,1.22-1.21,1.83,0c0.61,1.65,1.22,0.04,1.83,0
	c0.65-0.13,1.31-0.78,1.96-1.07c0.65-0.29,1.3-0.53,1.96,1.07c0.65,0.07,1.3,1.34,1.95-0.23c0.65-0.19,1.3,1.01,1.94,0.23
	c0.65,0.41,1.29,1.57,1.94-0.52c0.65,0.09,1.29,1.56,1.93,0.52c0.64,0.03,1.29,3.14,1.93,0c0.64-0.28,1.28-0.59,1.92,0
	c0.67-3.53,1.33-0.66,2,0c0.66-1.1,1.33,3.05,1.99,0c0.66,0.46,1.32,0.17,1.98-0.37c0.66-2.02,1.32,0.63,1.97,0.37
	c0.66-0.16,1.31,0.57,1.96,0.98s1.3,0.49,1.95-0.98c0.65,0.84,1.3,1.18,1.94,1.14s1.29-0.31,1.93-1.14
	c0.64,2.55,1.28,0.21,1.92,0.25c0.64-1.45,1.28-1.7,1.91-0.25c0.64-3.59,1.27-2.44,1.9,0c0.63,0.16,1.26,1.03,1.89,0
	c1.4-0.44,2.79,2.3,4.16,0c1.38-0.37,2.75,0.08,4.11,0c1.36,3.83,2.71,1.16,4.04,0c1.34,0.97,2.66,0,3.98,0s2.62,0,3.91,0
	c1.29-0.33,2.57,0.82,3.84,0c1.27-0.43,2.52,0.17,3.76,0c1.24,1,2.47-0.66,3.68,0c1.21-1.57,2.41-0.29,3.6,0
	c1.18-1.54,2.36,0.47,3.51,0c1.16,0.45,2.3-0.01,3.42,0c1.13-0.74,2.24-0.45,3.33,0c1.09-0.46,2.17,0.65,3.23,0
	c1.06,0.81,2.11,0.04,3.13,0c1.03,0.23,2.04,0.95,3.03,0c0.99-0.14,1.97-0.11,2.92,0c0.96,0.07,1.89,0,2.81,0
	c0.92,0.74,1.82-0.16,2.7,0c0.88-0.5,1.74,0.3,2.58,0c0.84,1.09,1.66-0.13,2.47,0c0.8,0,1.58,0.33,2.34,0c0.76,0.14,1.5-0.26,2.22,0
	c0.72,0.67,1.41,0.7,2.09,0c0.67-0.98,1.32-4.09,1.95,0c0.63,0.45,1.23-1.64,1.82,0c0.58,2.92,1.14,1.9,1.68,0
	c0.53,2.45,1.05-0.24,1.53,0c0.49,4.55,0.95-0.69,1.38,0c0.44-1.09,0.85-0.89,1.23,0c0.39-0.3,0.75,0.46,1.08,0
	c0.33,0.87,0.64-3.61,0.92,0c0.28,2.1,0.54-0.42,0.76,0c0.23,0.41,0.43-5.63,0.6,0c0.17-1.6,0.32,1.26,0.43,0
	c0.12-1.04,0.2,0.72,0.26,0c0.06,0.09,0.09-1.63,0.09,0c0,1.88-0.02-2.27-0.05-0.06c-0.04-0.06-0.09,0.85-0.16-0.17
	c-0.07,0.51-0.16-4.87-0.26-0.27c-0.1-2.33-0.23-2.14-0.36-0.38c-0.14-0.47-0.29,3.1-0.46-0.48c-0.17-0.7-0.36-1.62-0.56-0.58
	c-0.2,4.65-0.42-0.72-0.65-0.68c-0.23-1.15-0.48,3.61-0.75-0.78c-0.26-0.03-0.54,1.2-0.84-0.87c-0.29-1.11-0.6,0.89-0.92-0.96
	c-0.32,1.25-0.66-1.21-1.01-1.05c-0.35-7.23-0.71,1.32-1.09-1.14c-0.38-0.24-0.77-3.65-1.17-1.22c-0.64-3.04-1.31-6.28-2.01-2.09
	c-0.7-3.44-1.43-4.4-2.19-2.29c-0.76-0.52-1.55-2.09-2.37-2.47c-0.82-0.1-1.67-2.71-2.54-2.65c-0.87,0.94-1.77-2.21-2.7-2.81
	c-0.92-2.78-1.87-1.83-2.85-2.97c-0.97-2.06-1.97,1.69-2.99-3.12c-1.02,1.4-2.06-0.63-3.12-3.26c-1.06-1.11-2.14-1.13-3.25-3.38
	c-1.1-1.56-2.22-2.17-3.36-3.5c-1.14-2.96-2.29-6.31-3.47-3.61c-1.17-3.82-2.36-3.75-3.56-3.72c-1.2,0.04-2.42-4.06-3.65-3.81
	c-0.62-0.14-1.23-1.69-1.86-2.91c-0.62-0.32-1.25-3.56-1.87-0.98c-0.63-1-1.26-2.29-1.89-3.39c-0.63-1.94-1.27-0.98-1.91-0.57
	c-0.64-2.41-1.28-0.32-1.92-2.38c-0.64-0.36-1.29,0.05-1.94-1.65c-0.65-0.06-1.3-3.05-1.95-1.61c-0.33-1.57-0.65-2.04-0.98-2.19
	c-0.33-0.59-0.66-2.14-0.98-0.28c-0.33-0.6-0.66-0.85-0.99,0.4c-0.33,0.34-0.66-0.36-0.99-0.85c-0.33,1.46-0.66,1.58-0.99-1.73
	c-0.33-1.64-0.66-4.14-0.99-1.95c-0.33-3.06-0.66-3.58-1-2.45c-0.33-0.88-0.66-0.08-1,0.1c-0.33-0.08-0.67-1.19-1-0.67
	c-0.33,0.08-0.67-2.05-1-1.13c-0.17-1.38-0.33-2.73-0.5-3.44c-0.17-0.7-0.33-0.76-0.5,0.46c-0.33-1.29-0.67,1.65-1,0.89
	c-0.17,0.09-0.34,0.17-0.5-0.13s-0.34-0.98-0.5-2.41c-0.34-3.84-0.67,0.52-1.01,0.44c-0.34-2.49-0.67,0.64-1.01-1.18
	c-0.34-2.01-0.67,1.65-1.01-1.51c-0.34,0.18-0.67-1.04-1.01-0.87c-0.34-3.45-0.67-0.17-1.01-0.65c-0.34,1.43-0.67-2.45-1.01-2.08
	c-0.34,0.93-0.67,1.7-1.01-0.91c-0.34,2.36-0.67-0.28-1.01,0.23c-0.34,2.92-0.67-1.9-1.01-1.45c-0.34,2.08-0.67-1.11-1.01,0.24
	c-0.34,3.06-0.67,0.75-1.01-2.11c-0.34-0.19-0.67-1.02-1.01-2.04c-0.34,1.57-0.67,1.85-1.01-0.31c-0.34-1.19-0.67-1.99-1.01-1.76
	c-0.34-2.39-0.67-3.63-1.01-1.29c-0.67-0.24-1.34,0.39-2.01-1.16c-0.67-1.08-1.34-1.39-2.01-2.13c-0.67,0.54-1.34-0.35-2-2.05
	c-0.67-1.09-1.33-0.39-2-3.44c-0.66-1.56-1.33-1.15-1.99-0.72c-1.32-1.15-2.64-9.12-3.95-4.12c-1.31,1.55-2.61-8.27-3.91-4.07
	c-1.29-4.86-2.58-5.57-3.85-4.02c-1.27-2.46-2.54-7.03-3.79-3.95c-1.25,1.42-2.49-4.93-3.72-3.87c-1.23-1.27-2.44-3.45-3.63-3.79
	c-1.2-1.71-2.38-4.69-3.54-3.7c-1.17-2.38-2.31,0.61-3.45-3.59c-1.13-1.71-2.24-1.77-3.34-3.48c-1.09,7.66-2.17-1.71-3.22-3.36
	c-1.05,2.31-2.09-2.28-3.1-3.23c-1.01-1.75-2-2.12-2.96-3.09c-0.96-0.6-1.9,1.07-2.82-2.94c-0.91-4.07-1.8,0.16-2.67-2.78
	c-0.86-4.32-1.7,0.06-2.51-2.61c-0.81-1.49-1.59,2.96-2.34-2.44c-0.75,0.64-1.47,2.56-2.16-2.25c-0.39,1.81-0.77-6.8-1.14-1.19
	c-0.37-5.91-0.73-3.63-1.08-1.12c-0.35-2.02-0.69,1.24-1.01-1.14c-0.33-2.72-0.64-5.58-0.95-0.9c-0.3,0.27-0.6-2.12-0.88-0.65
	c-0.28,0.64-0.55,1.05-0.81-1.11c-0.26-2.46-0.51-3.03-0.74-1.37c-0.24,2.55-0.46,4.35-0.67-0.11c-0.21-3.39-0.41-6.43-0.6-2.82
	c-0.19,0.54-0.36,0.07-0.52,1.65c-0.16-4.35-0.31-3.98-0.45-2.97c-0.14,1.81-0.26,0.26-0.37,2.12c-0.11,1.89-0.21,2.22-0.29,1.42
	c-0.08-0.98-0.15,0.53-0.21-1.95C557.36,229.05,557.31,234.65,557.31,230.44z"/>
<path class="st7" d="M416.48,243.79c0-1.94-0.07-1.89-0.21,0.29c-0.14-1.41-0.34,1.98-0.61,0.84c-0.27,1.83-0.6,1.4-1,1.37
	c-0.39-2.68-0.85-0.13-1.36,1.87c-0.51,5.17-1.08,1.54-1.7,2.34c-0.62,4.34-1.29,1.94-2.01,2.78c-0.72,1.21-1.49,4.45-2.31,3.19
	c-0.82,0.85-1.68,0.3-2.59,3.57c-0.91,1.41-1.86-0.53-2.84,3.92c-0.99,2.71-2.01,6.44-3.08,4.24c-1.06-0.21-2.16,6.15-3.29,4.53
	c-1.13,2.91-2.29,5.48-3.48,4.8c-1.19,0.29-2.41,2.27-3.65,5.03c-1.24-1.56-2.51,3.02-3.8,5.24c-1.29,5.06-2.6,1.75-3.93,5.41
	c-1.33,3.75-2.67,4.57-4.03,5.56c-1.36,1.07-2.73,1.86-4.12,5.68c-0.69,2.09-1.39,3.17-2.08,3.92c-0.7,1.44-1.4,2.24-2.1,1.85
	c-0.7-0.26-1.4,3.6-2.11,3.32c-0.7,1.79-1.41,1.2-2.12,2.51c-0.71,1.37-1.41,2.17-2.12,3.13c-0.71,1.93-1.42,2.04-2.12,2.72
	c-1.42,1.95-2.83,3.91-4.25,5.85C328.74,364.76,303.17,400,303.17,400s2.27,0,6.35,0c0.68,0,1.41,0,2.19,0
	c0.78,0.16,1.61,0.37,2.48,0c0.87,0.46,1.79-0.39,2.76,0c0.96,1.32,1.97-2.61,3.02,0c1.05-0.07,2.14-1.03,3.27,0
	c1.13,2.1,2.3-1.5,3.51,0c1.21-1.71,2.46-0.86,3.74,0c1.28,1.36,2.6,1.22,3.95,0c1.35,0,2.74,0,4.15,0c0.46,0,0.93,0,1.4,0
	c0.47,0,0.94,0,1.42,0c0.47,0.21,0.95,0.45,1.43-0.32c0.48,1.06,0.97-0.73,1.45,0.32c0.49-2.4,0.98,1.22,1.47-1.46
	c0.49,1.19,0.99,1.22,1.49,1.46c0.5-0.56,1-2.5,1.51-0.55c0.51,0.77,1.01,1.12,1.52,0.55c0.51,0.29,1.02,0.14,1.54-0.01
	c0.52-0.15,1.04-0.29,1.56,0.01c1.04,0,2.1,0,3.16,0c2.13,0,4.29,0,6.49,0c0.73,0,1.47,0,2.21,0c0.74-0.41,1.49,0.6,2.24,0
	c0.75-0.38,1.5,0.32,2.26,0c0.76,0.5,1.51,0.5,2.28,0c0.76-0.33,1.53-0.46,2.3,0c0.77,0.65,1.54,0.58,2.31,0
	c0.77-0.44,1.55-0.79,2.33,0c0.78-1.18,1.56-0.54,2.35,0c0.78-0.04,1.57,0.57,2.36,0c0.79-0.31,1.58-0.83,2.38,0
	c0.79,0.73,1.59-0.46,2.39,0c0.8-1.17,1.6-0.6,2.4,0c0.8,0.12,1.61,2.84,2.41,0c0.81-0.58,1.61,0.15,2.42,0
	c0.81-0.78,1.62,0.27,2.43,0c0.81,1.77,1.62,0.86,2.44,0c0.81,0.01,1.63,0.19,2.44,0c0.82,1.62,1.63,1.2,2.45,0
	c0.82,0.62,1.64-1.21,2.46,0c0.82,1.2,1.64,1.03,2.46,0c0.82,0.54,1.64-0.55,2.46,0c0.62-0.84,1.23-0.89,1.85,0
	c0.62-0.24,1.23,0.22,1.85,0c0.41-0.19,0.82,1.23,1.23,0.54c0.41-0.34,0.82,0.01,1.23-0.29c0.41-0.14,0.82-0.27,1.23-0.24
	c0.62,1.04,1.23,1.07,1.85,0.83c0.62-0.24,1.23-2.84,1.84-0.83c0.61,0.34,1.23,0.47,1.84,0.32c0.61,0.11,1.23-1.89,1.84-0.32
	c0.61-0.67,1.23,1.25,1.84,0c0.61-0.36,1.22,0.91,1.84,0c2.31,0.13,4.61-0.19,6.9,0c2.29-2.2,4.57,0,6.83,0c29.4,0,56.06,0,71.35,0
	c1.18,0,2.29,0,3.32,0c1.04-1.32,2.01-1.26,2.9,0c0.89,0.33,1.71,1.54,2.45,0c0.74-3.22,1.4-1.56,1.97,0c0.58,0.44,1.07,1.62,1.47,0
	c0.23-5.52,0.42-0.76,0.59,0c0.17-0.26,0.31-2.86,0.43,0c0.12-0.68,0.2,4.64,0.26,0c0.06-0.48,0.09-2.76,0.09,0
	c0-1.51-0.02-2.97-0.06-0.08c-0.04,3.23-0.09,0.77-0.16-0.23c-0.07-0.35-0.16-1.68-0.27-0.37c-0.11-1.19-0.23-2.66-0.37-0.51
	c-0.14-3.59-0.3-2.03-0.47-0.65c-0.44,0.74-0.98-3.48-1.61-2.22c-0.64-0.06-1.36-1.97-2.18-3.01c-0.82-3.89-1.72,1.62-2.71-3.73
	c-0.37-0.46-0.75-1.52-1.14-1.57c-0.39-0.54-0.79-1.09-1.21-1.66c-0.82-1.26-1.69-3.78-2.6-3.58c-0.9-0.18-1.85-1.13-2.83-3.9
	c-0.98,0.26-1.99-2.21-3.04-4.19c-1.05-1.59-2.12-5.19-3.23-4.45c-1.11-2.48-2.24-2.66-3.4-4.69c-1.16-1.6-2.35-3.24-3.56-4.9
	c-1.21-1.67-2.44-3.37-3.69-5.09c-1.16-1.59-2.33-3.21-3.51-4.84c-1.19-1.11-2.38-3.73-3.6-4.96c-1.21-1.75-2.43-2.22-3.66-5.05
	c-1.23-2.58-2.47-8.43-3.72-5.13c-1.25,0.75-2.5-5.98-3.76-5.18c-0.6,0.92-1.19,3.13-1.79-2.47c-0.6,0.05-1.19-3.02-1.79-2.47
	c-0.6-2.44-1.2-1.36-1.79-4.23c-0.6,0.33-1.2,1.06-1.79-0.72c-0.6-1.47-1.2-0.67-1.79-2.59c-0.6-1.05-1.19-2.05-1.79-2.35
	c-1.19-2.44-2.38-2.36-3.57-4.92c-1.18,3.49-2.36-3.01-3.54-4.88c-1.17-4.28-2.34-2.23-3.49-4.82c-0.66-0.26-1.31-1.19-1.96-2.55
	c-0.65,0.72-1.3-3.81-1.94-2.83c-0.64,1.13-1.28-1.64-1.92-2.53c-0.64-1.31-1.27-2.39-1.89-2.72c-0.63,0.22-1.25,0.01-1.87-0.79
	c-0.62-0.8-1.23-2.19-1.84-4.31c-1.21-1.09-2.41-1.48-3.57-4.92c-1.17-3.59-2.31-6.31-3.43-4.72c-1.12-0.27-2.2-1.67-3.26-4.49
	c-1.06-0.71-2.08-4.43-3.07-4.24c-0.99-3.39-1.95-3.51-2.87-3.96c-0.92,0.59-1.8-3.86-2.65-3.65c-0.84-1.03-1.65-2.15-2.41-3.32
	c-0.76,2.6-1.48-0.84-2.15-2.96c-0.67-2.97-1.29-0.11-1.87-2.58c-0.57-0.83-1.1-4.6-1.57-2.17c-0.47,2.22-0.89-8.43-1.25-1.73
	c-0.36-2.31-0.67,0.17-0.92-1.27c-0.25-0.52-0.44-1.04-0.57-0.78C416.55,241.02,416.48,240.42,416.48,243.79z"/>
<path class="st8" d="M295.14,210.4c0,2.93-0.01,4.05-0.04,0.06c-0.03-0.42-0.07,4.44-0.12,0.19c-0.05,1.52-0.12,1-0.2,0.31
	c-0.04-1.1-0.08,1.79-0.13-0.57c-0.05,2.04-0.1-0.01-0.15,1c-0.11-2.57-0.23,4.87-0.36,0.55c-0.07-0.72-0.14-1.16-0.21-0.37
	c-0.07,0.31-0.15,0.44-0.23,1.03c-0.08,2.53-0.16,0.08-0.25,0.7c-0.08,0.91-0.17,0.07-0.26,0.07c-0.09-1.33-0.18,5.97-0.28,1.29
	c-0.1,0.66-0.2,2.67-0.3-0.4c-0.1,4.07-0.21,2.43-0.32,1.15c-0.11-1.46-0.22,0.67-0.33-0.16c-0.23,2.83-0.47,4.17-0.72,1.09
	c-0.25,0.75-0.51,6.51-0.78,1.19c-0.27,1.39-0.55,0.94-0.85,1.29c-0.29-0.45-0.6-2.12-0.91,1.39c-0.31,3.32-0.64-2.86-0.97,1.48
	c-0.33-4.58-0.68,2.46-1.03,1.57c-0.35,0.38-0.72,1.71-1.09,1.66c-0.37,1.07-0.75,0.78-1.14,1.74c-0.2,3.39-0.39,4-0.59,2
	c-0.2-0.36-0.4,0.42-0.61-0.17c-0.41,0-0.82,1.79-1.25,1.9c-0.43,0.31-0.86,1.31-1.3,1.98c-0.22,1.32-0.44,0.36-0.67,0.88
	c-0.22,0.43-0.45,0.05-0.68,1.18c-0.23-0.52-0.46-1.99-0.69,0.94c-0.23-2.24-0.47,0.12-0.7,1.19c-0.24,1.81-0.47-0.26-0.71,0.78
	c-0.24,0.69-0.48-1.83-0.73,1.42c-0.24,2.71-0.49,3.23-0.74,1.39c-0.25-0.07-0.5,1.8-0.75,0.87c-0.25-0.34-0.5,1.32-0.76,1.03
	c-0.25-1.29-0.51,1.62-0.77,1.29c-0.26-0.37-0.52,0.51-0.78,1.69c-0.26,0.54-0.52,1.11-0.79,0.69c-0.26,1.48-0.53-1.08-0.8,1.57
	c-0.27-0.15-0.54-1.06-0.81,0.87c-0.27,1.17-0.54-0.69-0.82,1.44c-0.27-0.72-0.55,1.51-0.82,1.06c-0.28,1.75-0.55,0.86-0.83,1.56
	c-0.28,0.37-0.56-0.67-0.84,0.98c-0.28-1.94-0.57-0.39-0.85,1.1c-0.28-1.07-0.57-0.53-0.86,1.5c-0.29-0.49-0.58,0.02-0.87,1.05
	c-0.29-1.54-0.58,2.09-0.87,1.59c-0.29-0.84-0.59,1.26-0.88,1.59c-0.29,0.56-0.59,3.1-0.89,1.1c-0.3,0.13-0.59,0.12-0.89,1.44
	c-0.3-1.64-0.6,0.7-0.9,1.29c-0.3-0.88-0.6-1.83-0.91,0.91c-0.3,0.97-0.61,1.61-0.91,1.85c-0.31,5.11-0.61,2.54-0.92,1.54
	c-0.31,0.08-0.62-0.47-0.92,1.26c-0.31,0.38-0.62,1.43-0.93,1.7c-0.31-1.87-0.62,4.56-0.94,1.14c-0.31-3.48-0.63-0.65-0.94,1.66
	c-0.31-1.22-0.63-0.31-0.95,1.21c-0.32,1.62-0.63-0.89-0.95,1.18c-0.32,3.61-0.64,1.71-0.95,1.72c-0.32,0.96-0.64,0.35-0.96,1.68
	c-0.32,1.12-0.64,0.29-0.96,1.24c-0.32-0.46-0.64,2.85-0.97,2.08c-0.32,2.65-0.65,0.76-0.97,0.87c-0.32,1.58-0.65-0.34-0.97,1.27
	c-0.32-0.76-0.65,0.57-0.98,1.69c-0.33,0.5-0.65,0.99-0.98,1.49s-0.65,1-0.98,1.49c-3.93,5.98-7.92,12.06-11.91,18.12
	c-0.68,1.03-1.36,2.06-2.03,3.1c-0.34,0.43-0.68,2.23-1.02,1.59c-0.34-0.22-0.68,3.05-1.02,1.5c-0.34,3.38-0.68,3.77-1.01,2.38
	c-0.34-1.12-0.68,0.25-1.01,0.7c-0.34-1.29-0.67-2.12-1.01,1.55c-0.34,1.58-0.67,1.01-1.01,1.52c-0.34,1.99-0.67,3.63-1.01,2.03
	c-0.34-2.74-0.67-0.9-1,1.03c-0.33-1.61-0.67-1.54-1,1.32c-0.33-1.57-0.67-0.3-1,1.72c-0.33,0.75-0.66,1.29-1,1.49
	c-0.33-0.53-0.66,0.83-0.99,1.54c-0.33,0.46-0.66-0.09-0.99,1.43c-0.33,0-0.66,0.83-0.99,1.58c-0.33,2.52-0.66,0.36-0.98,1.26
	c-0.33,0.11-0.65,2.88-0.98,1.72c-0.33-0.73-0.65,0.45-0.97,2.12c-0.32-1.03-0.65,0.81-0.97,0.84c-0.32,0.45-0.64,1.67-0.96,1.77
	c-0.32-1.64-0.64,1.51-0.96,1.16c-0.32-1.25-0.64-0.47-0.95,1.64c-0.32,1.51-0.63,1.86-0.95,1.25c-0.31-1.3-0.63,1.95-0.94,1.51
	c-0.31,1.01-0.62,0.76-0.94,1.34c-0.31,1.9-0.62,0.4-0.93,1.95c-0.31-2.09-0.62-0.83-0.92,0.86c-0.31-0.04-0.61,1.75-0.92,0.53
	c-0.3,0.52-0.61,0.73-0.91,2.25c-0.3,1.24-0.6,1.87-0.9,1.96c-0.3,1.63-0.6-2.29-0.89,0.77c-0.3-1.97-0.59,2.78-0.89,0.66
	c-0.29-0.88-0.59,2.79-0.88,2.02c-0.29,0.29-0.58-2.18-0.87,1.3c-0.29,0.19-0.58-1.32-0.86,1.33c-0.29-1.26-0.57-1.7-0.85,1.27
	c-0.28-2.21-0.56,0.46-0.84,1.31c-0.28-0.55-0.56,5.13-0.83,1.46c-0.28,0.67-0.55,1.9-0.82,1.06c-0.27,2.53-0.54,0.8-0.82,1.17
	c-0.27-1.28-0.54-2.63-0.81,1.3c-0.27-2.04-0.53,1.87-0.8,1.8c-0.26,1.7-0.52,2.65-0.78,0.6c-0.26,2.63-0.52,1.78-0.77,0.86
	c-0.26,0.72-0.51-3.88-0.76,1.48c-0.25,2.12-0.5-0.51-0.75,0.49c-0.25-1.52-0.5,1.63-0.74,1.78c-0.25-0.07-0.49-0.02-0.73,1.08
	c-0.24,3.01-0.48,0.15-0.72,1.12c-0.24,1.77-0.47,0.14-0.71,1.41c-0.23,4.05-0.46,5.15-0.69,0.72c-0.23-2.31-0.46-1.56-0.68,0.34
	c-0.22,2.71-0.45,2.99-0.67,1.71c-0.22,1.05-0.44,0.04-0.66,0.65c-0.22-2.66-0.43-2.93-0.64,1.32c-0.21-0.41-0.42,3.7-0.63,1.75
	c-0.21-2.44-0.41-0.71-0.61,0.14c-0.41,1.11-0.8,3.42-1.19,1.81c-0.39-4.77-0.76,3.19-1.13,1.72c-0.37-0.07-0.72,1.14-1.07,1.63
	c-0.35,0.66-0.68,3.81-1.01,1.54c-0.33,5.64-0.64-1.04-0.95,1.44c-0.3-1.41-0.6-0.66-0.88,1.34c-0.28,1.22-0.55,1.3-0.82,1.24
	c-0.26-0.58-0.51,0.51-0.75,1.14c-0.24-3.24-0.46,2.16-0.68,1.03c-0.21,0.94-0.41-1.23-0.6,0.92c-0.66,1.45-1.17,1.18-1.51,2.3
	c-0.34,0.52-0.52,0.8-0.52,0.8s0.09,0,0.26,0s0.43,0,0.76,0c0.34,0.27,0.75-1.34,1.25,0c0.49,0.91,1.07,1.09,1.71,0
	c0.65-2.34,1.37-2.74,2.16,0c0.79,0.26,1.65,0.33,2.58,0c0.93,0.59,1.93,0,2.99,0c23.37,0,77.97,0,129.27,0c1.13,0,2.25,0.15,3.38,0
	c1.12-0.13,2.24-0.82,3.36,0c1.12-0.21,2.24-0.23,3.35,0c1.11,0.28,2.23-2.57,3.33,0c1.11,0.58,2.21,1.45,3.32,0
	c1.1-0.09,2.2-1.33,3.29,0c1.09,0.52,2.19-0.38,3.27,0c1.09,0,2.17,0,3.25,0c1.08,0,2.15,0,3.22,0c1.08,0,2.16,0,3.24,0
	c1.07,0.05,2.14,0.83,3.2,0c1.06,2.6,2.12,0.07,3.17,0c1.05,1.28,2.1-0.2,3.13,0c1.04,0,2.07,0,3.09,0c2.21,0,4.39,0,6.54,0
	c1.07,0,2.13,0,3.19,0c1.05-0.25,2.1-0.44,3.13,0c1.03,0.16,2.06,0.37,3.07,0c1.01,0.23,2.02,0.45,3.01,0
	c0.99-0.15,1.97-0.05,2.94,0c0.97,0.75,1.93,1.88,2.87,0c0.95,0.74,1.88-0.45,2.8,0c0.92,0.2,1.83-0.61,2.73,0
	c0.9-0.58,1.78-0.41,2.65,0c0.87-0.89,1.73,0.57,2.57,0c0.84,0.65,1.67-1.2,2.49,0c0.81,0.1,1.61-0.23,2.4,0
	c0.78,0.7,1.56-0.87,2.31,0c0.75,0.16,1.49,0.26,2.22,0c0.72-0.39,1.43-0.63,2.12,0c0.69,1.03,1.37,0.13,2.03,0
	c0.66,0.24,1.3,1.87,1.92,0c0.62,0.23,1.23,0.11,1.82,0c0.59,0.99,1.16,0.72,1.71,0c0.55-0.48,1.09-1.2,1.61,0
	c0.26-0.02,0.51,0.01,0.76-0.04c0.25-0.04,0.49,0.13,0.73,0.04c0.24-0.52,0.47,0.28,0.7,0.23c0.23-0.24,0.45-0.41,0.67-0.23
	c0.22,0.38,0.43-0.21,0.64-0.14c0.21,0.42,0.41,0.31,0.61,0.14c0.2,0.29,0.39,0.03,0.58,0.29c0.19-0.19,0.37-0.93,0.55-0.29
	c0.18-0.45,0.35,1.3,0.52,0.14c0.17,1.08,0.33,0.4,0.49-0.14c0.32-0.85,0.61-0.38,0.89,0c0.27-1.87,0.53-1.15,0.76,0
	c0.12,1.44,0.23,1.16,0.33-0.5c0.1,0.2,0.2-0.36,0.3,0.5c0.19-0.56,0.35-0.02,0.49,0c0.07,1.2,0.14,0.62,0.19,0.53
	c0.06-1.77,0.11-1.04,0.16-0.53c0.05,0.3,0.09-1.96,0.13-0.4c0.04-1.48,0.07-0.86,0.09,0.4c0.05,1.82,0.07-0.47,0.07,0
	c0,0.02-0.01-0.18-0.04-0.07c-0.01,0.39-0.03,0.13-0.05-0.72c-0.02-0.9-0.05,0.03-0.08,0.52c-0.03,0.78-0.06-0.24-0.1,0.79
	c-0.04,0.23-0.07,1.32-0.12-1.12c-0.08,0.31-0.18-0.24-0.29-0.45c-0.11-1.52-0.24-0.8-0.37-0.57c-0.07,1.66-0.14,2.81-0.22,1.34
	c-0.08-1.69-0.15-1.93-0.24-2.03c-0.08-1.17-0.17,0.71-0.26-0.27c-0.09-1.19-0.18-0.61-0.27-0.54c-0.19-0.47-0.39,0.17-0.6-0.92
	c-0.11-0.44-0.22-1.07-0.33,0.08c-0.11,0.44-0.23,1.08-0.35-1.1c-0.12,1.83-0.24,0.42-0.36-0.02c-0.12,0.68-0.25-1.05-0.38-1.12
	c-0.13-0.52-0.26,1.19-0.4-0.61c-0.14-1.82-0.27-2.48-0.42-0.63c-0.24-0.82-0.48-0.67-0.73-1.12c-0.25,0.74-0.51-1.71-0.78-1.19
	c-0.27-1.01-0.54-2.23-0.82-1.25c-0.28-1.81-0.57,1.5-0.87-1.32c-0.3,0.56-0.6-0.21-0.91-1.38c-0.31-2.93-0.63-0.42-0.95-1.45
	c-0.32-0.97-0.65-3.15-0.99-1.51c-0.34,0.06-0.68-0.25-1.03-1.57c-0.17-2.94-0.35-1.31-0.53-0.06c-0.18-1.82-0.36-1.13-0.54-1.57
	c-0.36-0.53-0.73,1.46-1.1-1.68c-0.37,1.95-0.75,2.74-1.14-1.74c-0.39-0.25-0.78-1.78-1.18-1.79c-0.4-0.62-0.8-0.91-1.21-1.84
	c-0.41,0.07-0.82-1.18-1.24-1.89c-0.42-2.62-0.84-3.85-1.27-1.94c-0.43,0.24-0.86-1.99-1.3-1.98c-0.44-1.71-0.88-3.64-1.33-2.03
	c-0.22,1.75-0.45-1.81-0.68-1.45c-0.23,0.27-0.45-0.29-0.68-0.62c-0.23-0.06-0.46,1-0.69-1.19c-0.23,0.6-0.46-0.4-0.7-0.92
	c-0.23-2.31-0.47-0.23-0.7-1.4c-0.24-0.98-0.47-2.38-0.71-0.75c-0.24-1.89-0.48,0.59-0.72-1.02c-0.24,1.46-0.48-0.64-0.72-1.17
	c-0.24,0.38-0.48-2.07-0.73-1.71c-0.24-0.21-0.49-1.12-0.73-0.51c-0.25,2.38-0.49,1.39-0.74-0.76c-0.25-0.02-0.5-2.87-0.74-1.5
	c-0.25-2.18-0.5-1.14-0.75-1.1c-0.25,0.39-0.5-1.52-0.76-1.19c-0.25-0.91-0.51,1.14-0.76-1.14c-0.25,1.68-0.51-0.04-0.77-1.18
	c-0.26-1.88-0.51-0.24-0.77-1.23c-0.26-1.73-0.52-2.52-0.77-1.12c-0.26,0.59-0.52,1.6-0.78-0.73c-0.26-0.37-0.52-0.81-0.78-1.65
	c-0.26-0.35-0.52-0.12-0.79-2.05c-0.26-0.23-0.53,1.87-0.79-0.35c-0.26,1.97-0.53,1.45-0.8-1.17c-0.27,0.26-0.53-0.76-0.8-1.26
	c-0.27,1.4-0.54-1.8-0.8-0.96c-0.27,0.77-0.54-1.43-0.81-1.49c-0.27-0.28-0.54,1.49-0.81-1.09c-0.27-0.28-0.54,1.54-0.81-1.38
	c-0.27,1.54-0.54-1.81-0.82-0.92c-0.27-0.19-0.55,0.25-0.82-1.57c-0.27-1.99-0.55,0.14-0.82-1.3c-0.27,0.08-0.55-3.14-0.83-1.21
	c-0.28,0.49-0.55-1.41-0.83-1.17c-0.28-0.34-0.55-1.52-0.83-1.36c-0.28,2.29-0.55-1.88-0.83-1.22c-0.28,1.14-0.56,0.78-0.84-1.32
	c-0.28,2-0.56-0.22-0.84-0.8c-0.28-1.25-0.56,0.43-0.84-1.75c-0.28-0.57-0.56-1.48-0.84-1.26c-0.14,0.09-0.28-2.17-0.42-2.13
	c-0.14-0.98-0.28-0.71-0.42,0.83c-0.14-1.2-0.28-1.53-0.42-2.05c-0.14-0.65-0.28,0.3-0.42,0.62c-0.28-1.2-0.56-0.32-0.85-1.14
	c-0.14-1.08-0.28-2.88-0.42-2.01c-0.14-0.22-0.28,0.76-0.42,0.84c-0.28,0.98-0.56-2.05-0.85-1.41c-0.28,0.67-0.57-2.28-0.85-0.53
	c-0.28-0.16-0.57-0.96-0.85-2.05c-0.28-3.25-0.57,0.97-0.85-1.61c-0.14,0.34-0.28-2.52-0.43,0.86c-0.14-3.81-0.28-0.69-0.43-1.83
	c-0.14,0.62-0.28-2.75-0.43-1.9c-0.14-0.79-0.28-3.39-0.43,0.94c-0.14,2.85-0.28,2.29-0.43,0.35c-0.14,0.5-0.28-2.37-0.43-1.98
	c-0.28,2.04-0.57-2.94-0.85-1.23c-0.28-0.17-0.57-1.95-0.85-1.36c-0.28,1.13-0.57,1.4-0.85-1.21c-0.28-1.21-0.57,0.32-0.85-1.38
	c-0.28-3.19-0.57,0.48-0.85-1.18c-0.28-0.44-0.57-1.88-0.85-1.41c-0.28,1.75-0.57,0.16-0.85-1.26c-0.28-1.16-0.57-0.9-0.85-1.32
	c-0.28,1.78-0.57,0.94-0.85-1.03c-0.28-0.32-0.56-0.07-0.85-1.55c-0.28-1.47-0.56-0.87-0.85-2.01c-0.28,3.74-0.56-1.78-0.84-0.56
	c-0.28,1.56-0.56,1.19-0.84-1.04c-0.28-0.96-0.56-0.55-0.84-1.52c-0.28-1.61-0.56,2.15-0.84-0.93c-0.28-0.99-0.56-1.59-0.84-1.62
	c-0.28-1.75-0.56-1.85-0.83-1.55c-0.28,1.69-0.56-0.52-0.83-0.98c-0.28,0.79-0.55-1.76-0.83-1.51c-0.28-0.81-0.55,2.92-0.83-1.01
	c-0.28,0.3-0.55-0.74-0.82-0.77c-0.27-1.86-0.55-2.15-0.82-1.74c-0.27,2.61-0.55-2.1-0.82-0.8c-0.27-1.84-0.54-1.2-0.82-1.69
	c-0.27,0.65-0.54-3.12-0.81-0.58c-0.27-0.32-0.54-1.02-0.81-1.89c-0.27-0.3-0.54,1.04-0.81-1.29c-0.27-0.08-0.54-1.76-0.8-1.16
	c-0.27-1.77-0.53-0.27-0.8-1.49c-0.27,2.04-0.53-0.14-0.79-0.93c-0.26-3.46-0.53-0.05-0.79-0.64c-0.26,2.47-0.53,0.54-0.79-1.76
	c-0.26-0.31-0.52,0.1-0.78-0.65c-0.26-1.99-0.52-2.1-0.78-1.73c-0.26-1.63-0.52-0.27-0.77-1.8c-0.26-0.6-0.51-0.61-0.77-0.54
	c-0.26-3.27-0.51,0.58-0.76-1.46c-0.25,3.4-0.51-1.55-0.76-0.86c-0.25,0.4-0.5,1.88-0.75-0.76c-0.25,1.71-0.5-0.69-0.75-1.53
	c-0.12,1.37-0.25,2.7-0.37,1.37c-0.12-1.17-0.25,0.51-0.37-1.9c-0.25-0.84-0.49,0.22-0.74-1.72c-0.24-1.44-0.49-1.44-0.73-1.85
	c-0.24,1.31-0.49-3.25-0.73-0.37c-0.24,0.78-0.48,0.74-0.72-1.19c-0.12,1.17-0.24-1.47-0.36-0.05c-0.12-0.38-0.24,0.29-0.36-0.94
	c-0.12,4.43-0.24-1.11-0.35-0.99c-0.12-0.98-0.24-0.2-0.35-0.17c-0.23-2.26-0.47-2.67-0.7-0.98c-0.12-1.97-0.23-4.48-0.35-1.54
	c-0.12,1.12-0.23-0.71-0.35,0.74c-0.12,1.29-0.23-3.48-0.35-1.52c-0.11-3.53-0.23-1.49-0.34,0.21c-0.23-1.94-0.46,0.58-0.68-2.1
	c-0.11-1.81-0.23,1.81-0.34,0.16c-0.11,2.8-0.22,1.48-0.34-0.12c-0.22-0.08-0.45,0.48-0.67-0.63c-0.22,2.1-0.44-1.27-0.66-1.39
	c-0.44-2.63-0.87-1.34-1.3-1.98c-0.43-2.73-0.85-1.89-1.27-1.93c-0.21,1.31-0.42-0.59-0.62-0.56c-0.21-0.65-0.41-1.43-0.61-1.32
	c-0.41,1.09-0.81-2.56-1.2-1.83c-0.4,1.37-0.79-1.01-1.17-1.78c-0.38,0.25-0.76,0.03-1.14-1.73c-0.37,0.19-0.74-1.96-1.1-1.67
	c-0.36-1.27-0.71-0.03-1.06-1.62c-0.35-1.65-0.69,0.78-1.02-1.56c-0.34-1.05-0.66,3.67-0.99-1.5c-0.32-1.51-0.64-1.68-0.95-1.44
	c-0.31,1.82-0.61-1.03-0.9-1.38c-0.29-0.35-0.58-1.39-0.86-1.31c-0.28-0.93-0.55-4.2-0.82-1.24c-0.27-0.14-0.52,1.23-0.77-1.18
	c-0.25-3.34-0.49-0.41-0.73-1.11c-0.23,3.18-0.46-2.68-0.68-1.04c-0.22-0.23-0.43-0.06-0.63-0.96c-0.22-4.17-0.44-3.09-0.64-0.97
	c-0.2,2.12-0.4-1.62-0.58-0.88c-0.09-0.4-0.18,0.16-0.27,0.32c-0.09,2.32-0.17-2.75-0.25-1.1c-0.16,5.85-0.31-1.12-0.45-0.69
	c-0.07-1.11-0.14-0.36-0.2-1.24c-0.06-0.93-0.13-1.34-0.18,0.65c-0.06,5.32-0.11,1.07-0.17,0.34c-0.05,0.52-0.1-0.97-0.15-0.83
	c-0.05-4.23-0.09-1.89-0.13-0.82c-0.04-3.9-0.08-2.38-0.12,0.44c-0.07-2.52-0.13-0.63-0.18-0.28c-0.05,0.7-0.09,1.09-0.11-0.17
	C295.15,212.9,295.14,210.15,295.14,210.4z"/>
<path class="st9" d="M772.28,411.77H135.03c-3.25,0-5.88-2.63-5.88-5.88l0,0c0-0.65,0.11-1.27,0.3-1.86
	c0.19-0.58,0.48-1.13,0.84-1.61c0.36-0.9,0.79-1.15,1.27-1.27c0.49,0.18,1.03-1.38,1.61-0.84c0.58,0.13,1.21,0.05,1.86-0.3
	c0,0.77,0.02-0.39,0.05,0c0.03-0.46,0.08,0.39,0.14,0c0.06,0.84,0.14,1.33,0.23,0c0.09,0.56,0.19,0.56,0.31,0
	c0.12,2.26,0.25,0.34,0.4,0c0.15-0.5,0.31,0.75,0.49,0c0.18,0.82,0.37-0.54,0.58,0c0.21,0.18,0.43-1.3,0.66,0
	c0.23-0.02,0.48-0.28,0.74,0c0.26,0.98,0.54-0.2,0.83,0c0.29-0.56,0.59,0.56,0.91,0c0.32-0.7,0.65,2,0.99,0
	c0.34-0.72,0.7-1.5,1.07,0c0.37-1.09,0.76,0.6,1.15,0c0.4-1.14,0.81,0.67,1.23,0c0.42-1.36,0.86,0.65,1.31,0
	c0.45,0.95,0.91,1.44,1.39,0c0.47,0.49,0.96-0.16,1.46,0c0.5,2.15,1.01-0.99,1.54,0c0.53-1.33,1.06,0.08,1.61,0
	c0.55,0.26,1.11-0.4,1.69,0c0.57-2.18,1.16,0.1,1.76,0c0.6-0.15,1.21-0.12,1.83,0c0.62-0.57,1.26,0.25,1.9,0
	c0.65,0.55,1.3-0.37,1.97,0c0.67-0.27,1.35-1.51,2.04,0c0.69-0.7,1.39,1.48,2.11,0c0.71,0.64,1.44-0.11,2.18,0
	c0.74,1.11,1.48-1.1,2.24,0c0.76,1.02,1.53,0.65,2.31,0c0.78,0.71,1.57-0.19,2.37,0c0.8-1.35,1.61,0.07,2.44,0
	c0.82,0.89,1.66,0.49,2.5,0c0.84-1.29,1.7,0.68,2.56,0c0.86,0.75,1.74,0.1,2.62,0c0.88,2.08,1.78,0.57,2.68,0
	c0.9-0.16,1.82,0.95,2.74,0c0.92,0.95,1.86,0.86,2.8,0c0.94,0.72,1.9,0.29,2.86,0c0.96,0.9,1.93-1,2.91,0c0.98,0.8,1.97,0.08,2.97,0
	c1-0.81,2.01-0.56,3.02,0c1.02-1.2,2.04-0.85,3.08,0c1.03,1.26,2.08-0.1,3.13,0c1.05,0.9,2.11-0.22,3.18,0
	c1.07,0.57,2.15-0.59,3.23,0c1.09-0.06,2.18,0.27,3.28,0c1.1-0.06,2.21-0.88,3.33,0c1.12-0.46,2.25-0.65,3.38,0
	c1.14-0.93,2.28,0.92,3.43,0c1.15,0.37,2.31-0.81,3.48,0c1.17,0.24,2.34-0.94,3.52,0c1.18-0.8,2.37,0.05,3.57,0
	c1.2,0,2.4,0.32,3.61,0c1.21,0.84,2.43,1.43,3.65,0c1.23,1.05,2.46,1.69,3.7,0c1.24,0.41,2.49,0.71,3.74,0
	c1.25-0.66,2.51,0.73,3.78,0c1.27-0.1,2.54-0.64,3.82,0c1.28,0.24,2.56,0.14,3.86,0c1.29,0.4,2.59,0.18,3.89,0
	c1.3-1.28,2.61,0.07,3.93,0c1.32,0.04,2.64-1.18,3.97,0c1.33-1.17,2.66-0.39,4,0c1.34-1.03,2.69,0.37,4.04,0
	c1.35-1.27,2.71-0.09,4.07,0c1.36-0.34,2.73,0.49,4.1,0c1.37-1.09,2.75-0.87,4.13,0c1.38,0.78,2.77,0.76,4.16,0
	c1.39,0.91,2.79,0.16,4.19,0c0.44-0.55,0.87-0.25,1.31,0c0.44,0.62,0.88,0.64,1.31,0c0.44,1.53,0.88,2.52,1.32,0
	c0.44,0.88,0.88,0.05,1.32-0.47c0.44,0.78,0.88-0.46,1.32-0.19c0.44-0.56,0.88,0.51,1.32,0.66c0.44-0.17,0.88,0.01,1.33,0.24
	c0.89,0.46,1.77,1.15,2.66-0.24c1.33,0.47,2.67,0.05,4.01,0c1.34,0.91,2.69-0.71,4.03,0c1.35-0.16,2.7,0.21,4.06,0
	c1.36-0.12,2.71-0.57,4.08,0c1.36,0,2.73,0,4.1,0c1.22,0,2.45-1.54,3.67,0c1.23,0.02,2.46-0.61,3.69,0c1.23,0.23,2.47-0.26,3.7,0
	c1.24-0.52,2.47,0,3.72,0c3.1,0,6.22,0,9.34,0c0.78,0,1.56,0.39,2.35,0c0.78,0.85,1.57-0.03,2.35,0c0.79,0.55,1.57,0.12,2.36,0
	c0.79,1.37,1.57,0.06,2.36,0c0.79,0.16,1.58-0.95,2.37,0c0.79,0.08,1.58-0.6,2.37,0c0.79-0.62,1.58-0.16,2.37,0
	c0.79-0.18,1.58,0.65,2.38,0c0.79,0.99,1.59,0.65,2.38,0c0.79,0.3,1.59-1.22,2.38,0c0.8,0.09,1.59-0.03,2.39,0
	c0.8-0.39,1.59,0.83,2.39,0c0.8,0.64,1.6-0.56,2.39,0c0.8-1.01,1.6-0.53,2.4,0c0.8-0.61,1.6,0.91,2.4,0c0.8,0.12,1.6-0.25,2.4,0
	c0.8-0.78,1.6,0.63,2.41,0c0.8-0.17,1.61-0.61,2.41,0c0.8-0.71,1.61,0.96,2.41,0c0.8-0.37,1.61-0.67,2.41,0
	c0.57-1.27,1.14,0.28,1.72,0c0.57,0.48,1.15,0.31,1.72,0c0.57-0.06,1.15,0.98,1.72,0.37c0.57-0.17,1.15-0.66,1.72-0.37
	c0.57-0.35,1.15-0.6,1.72-0.64s1.15,0.14,1.72,0.64c0.57,0.15,1.15-0.74,1.72-0.87c0.57-0.66,1.15-2.27,1.72,0.87
	c0.57,0.69,1.15-1.77,1.72-0.45c0.58-1.64,1.15,1.03,1.73,0.45c1.57,0.44,3.15,0.47,4.72,0c1.57,1.06,3.15,0.98,4.72,0
	c1.57,0.87,3.15,0,4.73,0c28.36,0,56.83,0,84.51,0c0.81,0,1.61-0.32,2.42,0c0.81-1,1.61,0.19,2.42,0c0.8-0.86,1.61,1.06,2.41,0
	c0.8,0.63,1.61,0.74,2.41,0c0.8-0.37,1.6,2.19,2.4,0c0.8-0.12,1.6,0.54,2.4,0c0.6,0.37,1.2,0.79,1.8-0.23c0.6-0.13,1.2,0,1.8,0.23
	c0.6-0.26,1.2,0.02,1.79-0.09c0.6,0.59,1.19-0.3,1.79,0.09c0.6,0.4,1.19-0.46,1.79-0.19c0.6,0.21,1.19-0.92,1.79,0.19
	c0.4,0.35,0.79,0.37,1.19,0.57c0.4,0.58,0.79,1.32,1.19,0.33c0.4,0.47,0.79-0.04,1.19-0.9c0.4-0.77,0.79-1.63,1.18-1.16
	c0.39-0.26,0.79,0.01,1.18,0.29c0.39-0.2,0.79-0.34,1.18,0.87c0.59-0.45,1.18,0.29,1.77,0c0.59,0.34,1.18-0.56,1.77,0
	c0.69-0.01,1.37-0.47,2.06,0c0.68-0.37,1.37,0.76,2.05,0c0.68,0.29,1.37-0.55,2.05,0c0.68,0.11,1.36,0.58,2.04,0
	c0.45-0.04,0.91-0.43,1.36,0c0.45-1.69,0.9,0.75,1.36,0c0.45,0.54,0.9,0.1,1.35,0c0.45,0.06,0.9,0.04,1.35-0.46
	c0.45,0.42,0.9,0.49,1.35-0.28c0.45-0.56,0.9-0.42,1.35,0.73c0.45,0.52,0.9-1.05,1.34,0.17c0.45,0.27,0.9-0.2,1.34-0.17
	c0.45-1.03,0.89-0.31,1.34,0c0.45,0.39,0.89,0.42,1.34,0.23c0.45-0.83,0.89-0.17,1.33-0.36c0.44,0.97,0.89,0.6,1.33,0.13
	c0.44-0.23,0.89-0.55,1.33,0c0.44-0.73,0.89-0.19,1.33,0c0.44,0.25,0.88-0.89,1.32,0c1.4-0.22,2.79,0.05,4.17,0
	c1.39-0.73,2.77,0.48,4.15,0c1.38-1.76,2.75-1.32,4.12,0c1.37,0,2.73,0,4.09,0c1.4,0,2.79,0.69,4.18,0c1.39,0.96,2.77-1.29,4.15,0
	c1.38,0.06,2.75,0.4,4.11,0c0.68-0.35,1.36-0.6,2.04-0.65c0.68,0,1.36,0.9,2.04,0.65c0.68-2.39,1.35-2.39,2.03,0.26
	c0.67-1.11,1.35-1.03,2.02-0.26c1.43-1.14,2.86-2.35,4.28,0c1.42-1.75,2.83,0.62,4.24,0c1.41,3.62,2.81,1.01,4.2,0
	c1.39,0.18,2.78-0.48,4.15,0c0.69,0,1.37,0,2.06,0s1.37,0,2.05,0c1.36-0.44,2.71,0.07,4.06,0c1.35,0.75,2.68-0.03,4.01,0
	c1.33-0.52,2.65-0.59,3.96,0c1.31-0.39,2.62-0.14,3.91,0c1.3,0.03,2.58-0.1,3.86,0c1.28,0.19,2.55,0.72,3.81,0
	c1.26,0.46,2.51-0.52,3.75,0c1.24,0.43,2.48,0.52,3.7,0c1.22,0.24,2.44-0.58,3.64,0c1.2,0.87,2.4-0.65,3.59,0
	c1.19-0.32,2.36,0.21,3.53,0c1.17-0.09,2.32,1.37,3.47,0c1.15-0.07,2.28,0.74,3.41,0c1.13-0.82,2.24,0.79,3.35,0
	c1.1-0.96,2.2-0.23,3.28,0c1.08-0.03,2.16,0.29,3.22,0c1.06-1.28,2.11-0.67,3.15,0c1.04-0.03,2.07-0.13,3.09,0
	c1.02,0.67,2.02-0.14,3.02,0c1-0.8,1.98-0.11,2.95,0c0.97,1.12,1.93,0.26,2.88,0c0.95,0.27,1.89-0.63,2.81,0
	c0.92-0.15,1.84-0.29,2.74,0c0.9-0.61,1.79,1.28,2.67,0c0.88-0.43,1.74-0.53,2.59,0c0.85-0.26,1.69-1.12,2.52,0
	c0.83-0.44,1.64,0.08,2.44,0c0.8-0.07,1.59,1.72,2.36,0c0.77,1.6,1.54,0.45,2.28,0c0.75,1.18,1.48-0.23,2.2,0
	c0.72,1.6,1.43,0.04,2.12,0c0.69-0.08,1.37,1.14,2.04,0c0.67-0.16,1.32-0.02,1.96,0c0.64-0.03,1.26-1,1.87,0
	c0.61-0.59,1.21-0.05,1.79,0c0.58,2.06,1.15,0.41,1.7,0c0.55,1.33,1.09,0.21,1.61,0c0.52,1.4,1.03,0.27,1.52,0
	c0.25-0.45,0.49-0.05,0.73,0.26c0.24,0.31,0.47,0.54,0.71-0.26c0.23,0.42,0.46,0.4,0.68,0.05c0.22-0.17,0.44,0.37,0.66-0.05
	c0.22,0.11,0.43,0.45,0.64,0.49c0.21-0.16,0.41,0.61,0.61-0.49c0.2,1.55,0.4-0.15,0.59-0.24c0.19,0.32,0.38-0.24,0.57,0.24
	c0.37-0.39,0.72-0.69,1.06,0c0.34-1.09,0.66,0.27,0.97,0c0.92-0.03,1.69-0.01,2.31,0c0.62-1.26,1.09-0.85,1.41,0
	c0.32-2.13,0.48-0.48,0.48,0c0.65-2.65,1.27,0.03,1.86,0.3c0.58-0.7,1.13-1.5,1.61,0.84c0.49-1.1,0.92-2.06,1.27,1.27
	c0.36,0.31,0.64,0.72,0.84,1.61c0.19,0.64,0.3,1.2,0.3,1.86l0,0C778.16,409.13,775.53,411.77,772.28,411.77z"/>
<path class="st10" d="M530.44,402.39c0,3.77-0.09,1.63-0.26,0c-0.17-0.96-0.42,0.95-0.74,0c-0.32-1.85-0.72-1.18-1.19,0
	c-0.86,1.04-1.96-0.29-3.24,0c-1.29,0.47-2.76-0.61-4.39,0c-1.63,0-3.41,0-5.3,0c-18.89,0-48.76,0-48.76,0s0-6.84,0-13.68
	c0-2.28,0-3.54,0-6.58c0,0.37,0-3.95,0-5.06c0-1.71,0-0.25,0-2.03c0,1.52,0.33,4.88,0.93,0c0.61,0.44,1.49-1.09,2.61,0
	c1.12,2.26,2.47,1.08,4,0c1.54,2.44,3.26-0.27,5.12,0c1.86-0.51,3.86-1.1,5.96,0c2.1,1.03,4.28,1.25,6.52,0
	c2.23,0.58,4.52-1.47,6.8,0c2.28-2.01,4.56-0.12,6.8,0c2.23-1.19,4.42-1.39,6.52,0c1.05,0.26,2.07,0.7,3.07,0.86
	c1,0.16,1.96,0.03,2.89-0.86c0.47-0.36,0.92-0.48,1.37-0.42c0.45-0.82,0.89,0.7,1.31,0.64c0.43-0.72,0.85-0.51,1.25,0.95
	c0.41-0.08,0.8-2.07,1.19-1.16c0.38-1.24,0.76,1.43,1.12,1.23c0.36,0.1,0.71-0.83,1.04-0.93c0.33-2.82,0.66-3.9,0.96-2.24
	c0.31,2.9,0.6,3.8,0.88,1.95c0.56-0.01,1.06-2.23,1.5-1.59c0.22-0.66,0.42,1.16,0.61-0.81c0.19-0.37,0.35,1.2,0.51,2.4
	c0.61,0.35,0.93-0.1,0.93,0c0,0.87,0,0.11,0,0.27c0,0.35,0-1.2,0,1.31c0-2.6,0,2.02,0,0.27c0,0.93,0,1.69,0,2.26
	c0,2.21,0,2.1,0,1.52c0,3.63,0,2.15,0,2.02c0,0.79,0-1.11,0,1.16c0,3.14,0,2.64,0,2.32c0-0.29,0,1.74,0,2.98c0,3.93,0,1.12,0,2.96
	c0,4.55,0,1.47,0,1.63c0,2.85,0,3.96,0,1.56c0-0.08,0,2.7,0,1.39c0-1.71,0,2,0,1.43c0,0.45,0,2.74,0,2.25c0,0.6,0,2.32,0,1.49
	C530.44,401.97,530.44,404.18,530.44,402.39z"/>
<path class="st10" d="M466.56,402.39c0,0-13.6,0-23.8,0c-2.04,0-3.94,0.06-5.58,0c-1.63,1.29-2.99,0.32-3.94,0
	c-0.95-0.91-1.5,0.47-1.5,0c0-1.41,0,1.44,0-1.58c0-0.73,0-3.05,0-4.07c0-3.19,0,0.24,0-5.57c0-3.05,0-4.43,0-6.07
	c0-0.71,0-6.63,0-5.57c0,1.83,0-4.15,0-4.07c0-7.27,0,1.59,0-1.58c0-0.68,0.54,1.97,1.5,0c0.95-2.7,2.31-0.91,3.94,0
	c1.63,2.5,3.54,2.44,5.58,0c2.04-2.09,4.22,0.75,6.39,0c2.18-1.52,4.35-0.6,6.39,0c1.02-1.48,2.01-1.45,2.94-0.93
	c0.93-0.48,1.82,0.67,2.63,0.93c0.82-2.32,1.56-1.13,2.23-2.75c0.66-1.23,1.24,2.69,1.72,2.75c0.48,2.04,0.85-0.45,1.1,0.29
	c0.25-0.82,0.39,1.74,0.39-0.29c0-0.46,0,1.21,0,1.58c0-0.95,0,0.02,0,1.72c0,2.15,0,2.45,0,2.35c0,0.41,0,1.96,0,2.99
	c0-0.45,0,2.55,0,2.57c0,1.99,0,4.07,0,6.07C466.56,397.16,466.56,402.39,466.56,402.39z"/>
<path class="st10" d="M449.15,346.64l-17.41,28.41c0,0,8.7,0,17.41,0c2.18,0,4.35,0,6.39,0c2.04,0.99,3.94-1.11,5.58,0
	c1.63,1.68,2.99-0.07,3.94,0c0.95,0.36,1.5,0.08,1.5,0c0-2.28-0.27,1.38-0.75-1.22c-0.48-0.72-1.16-3.89-1.97-3.22
	c-0.82-1.13-1.77-1.78-2.79-4.55c-1.02-1.66-2.11-3.44-3.2-5.22C453.51,353.74,449.15,346.64,449.15,346.64z"/>
<path class="st11" d="M530.44,375.04c0,2.66-0.08,0.5-0.24-1.65c-0.16,1.57-0.39,2.58-0.69,1.65c-0.15,0.53-0.32,3.95-0.51,1.84
	c-0.19-1.09-0.39,0.14-0.61,0.33c-0.22-1.56-0.45-1.92-0.7-0.88c-0.25-0.79-0.51-3.39-0.79-1.28c-0.28,0.41-0.57-1.97-0.88-0.33
	c-0.31,0.99-0.63-0.18-0.96,1c-0.33-1.56-0.68,3.94-1.04,0.19c-0.36-1.28-0.73-0.48-1.12-0.86c-0.38-0.68-0.78,3.01-1.19,1.13
	c-0.41,1.41-0.82,1.54-1.25,0.09c-0.43,2.13-0.87,0.66-1.31,0.11c-0.45-0.75-0.9-0.98-1.37-1.32c-0.93,0.39-1.9-0.03-2.89-0.33
	c-1-0.31-2.02-0.5-3.07,0.33c-2.1-1.05-4.28-1.43-6.52,0c-2.23-1.58-4.52,0.68-6.8,0c-2.28,0.62-4.56,1.32-6.8,0
	c-2.23,1.3-4.42-1.17-6.52,0c-2.1,0.17-4.1,0.58-5.96,0c-1.86,0.06-3.59-3.13-5.12,0c-1.54,3.07-2.89-0.5-4,0
	c-1.12-0.44-2,0.58-2.61,0c-0.61-0.25-0.93-1.31-0.93,0c0,0.23-0.27-0.84-0.75-1.22c-0.48-1.87-1.16-1.13-1.97-3.22
	c-0.82-3.67-1.77-1.37-2.79-4.55c-1.02-1.66-2.11-3.44-3.2-5.22c-4.35-7.1-8.7-14.2-8.7-14.2s27.68,0.55,44.72,0.89
	c1.89,0.04,3.65,0.48,5.23,0.1c1.58-1.45,2.97-2.66,4.13,0.08c1.16-0.62,2.08,2.77,2.71,0.05c0.63-0.29,0.97-0.82,0.97,0.02
	c0-0.23,0.24,1.23,0.66,0.76c0.42-0.27,1.04,1.22,1.79,2.07c0.75,6.4,1.65,3.73,2.64,3.05c0.99,1.24,2.07-1.28,3.2,3.71
	c1.13,0.49,2.31,4.49,3.48,4.03c0.74,1.96,1.47,1.08,2.19,2.69c0.72,2.39,1.44,1.5,2.13,2.32c0.34,0.39,0.68,3.72,1.02,1.21
	c0.33,0,0.66,1.96,0.97,0.9c0.32,1.1,0.62,2.34,0.92,2.14c0.3,1.26,0.58-0.69,0.86,0.11c0.28,0,0.54,0.77,0.79,1.46
	c0.25-0.52,0.49,4.15,0.71,1.55c0.45,0.85,0.84,1.18,1.16,0.08c0.32-1.02,0.57-0.33,0.75-0.68
	C530.35,374.44,530.44,372.98,530.44,375.04z"/>
<rect x="491.51" y="341.94" class="st12" width="12.13" height="14.2"/>
<rect x="489.8" y="339.99" class="st12" width="15.54" height="1.94"/>
<path class="st13" d="M546.95,281.29h-1.21c0.27-0.36,0.41-0.81,0.35-1.29c-0.11-1.03-1.17-1.77-2.3-1.77h-4.56l0.41-0.43
	l-4.19-0.33c-0.03-0.29-0.11-0.56-0.26-0.8c0.26-0.4,0.39-0.88,0.27-1.41c-0.21-0.94-1.2-1.57-2.26-1.57h-1.73
	c0.64-0.41,1.02-1.13,0.89-1.92c-0.08-0.6-0.38-1.29-0.78-1.19c-0.41,0.63-0.93,0.83-1.47-0.46c0,1.5-1.02,2.36-2.04,0
	c-1.02-2.69-2.04-1.42-2.04,0c-0.04,0.35-0.04-0.05-0.08-0.22c0.55-2.36,0.91,1.77,0.91-1.6c0-0.56-0.02,1.24-0.04-0.37
	c0.62-2.09,1.11,3.33,1.45-1.2c0.33,2.11,0.51,3.65,0.51-1.13c-0.1-0.18-0.39-2.18-0.79-1.15c-0.4,2.41-0.91-2.63-1.44-0.44
	c0-0.45-1.24,2.18-2.49,0c-1.24-2.59-2.49,0.66-2.49,0c0,1.7-0.25-0.93-0.25,0c-0.57-2.34-1.08,0.39-1.46-0.53
	c-0.39-5.05-0.65-3.77-0.75-1.3c0-1.29-0.01,1.48-0.01-0.05c-0.1-1-0.4-1.16-0.8-1.13c-0.4-0.25-0.9-2.77-1.42-0.43
	c0-1.14-1.4-2.96-2.8,0c-1.4-0.03-2.8,0-2.8,0h-7.27h-0.47c0.12-0.41,0.14-0.84-0.22-1.37c-0.25-0.35-0.6-0.63-1-0.81
	c-0.4-0.19-0.86-0.28-1.32-0.28c0,0.32-1.69,0.95-3.38,0c-1.69,1.26-3.38-0.03-3.38,0c0.66,0.72,1.24,0.22,1.64-0.69
	c0.4-3.26,0.6-1.08,0.49-1.61c-0.09,0.14-0.38-1.17-0.79-1.18c-0.41,0.77-0.92-1.84-1.46-0.46c0,0.05-0.69-1.41-1.38,0
	c-0.69-1.92-1.38,0.76-1.38,0c0,0.47-0.24-0.45-0.63-1.39c-0.39-1.37-0.93-3.16-1.53-0.58c0-0.06-1.62,0.81-3.24,0
	c-1.62,2.18-3.24,0.2-3.24,0c0-0.26-0.24-1.27-0.63-1.39c-0.39,0.3-0.93-2.11-1.53-0.58c0,0.52-0.75,1.47-1.49,0
	c-0.75-1.61-1.49-0.44-1.49,0c0.06-0.7,0.1-1.58,0.1-0.55c0,1.93-0.56-2.28-1.35-1.82c0,1.63,0.02,0.14,0.02-0.15
	c0,0.74-0.24-1.07-0.63-1.39c-0.39-0.64-0.93,1.38-1.53-0.58c0-1.4-1.29,1.72-2.58,0c-1.29,0-2.58,0-2.58,0
	c0-1.09-0.97-1.97-2.16-1.97h-12.86c-1.08,0-2.08,0.67-2.25,1.64c-0.22,1.23,0.82,2.3,2.13,2.3h5.15c0,0.82,0.56,1.53,1.35,1.82
	c0,0.05-0.02,0.1-0.02,0.15c0,1.09,0.97,1.97,2.16,1.97h2.98c-0.13,0.41-0.17,0.86,0.18,1.4c0.48,0.72,1.38,1.12,2.3,1.12h6.07
	c0,1.09,0.97,1.97,2.16,1.97h2.88c0,1.09,0.97,1.97,2.16,1.97l-4.21,0c-1.08,0-2.08,0.67-2.25,1.64c-0.22,1.23,0.82,2.3,2.13,2.3
	h6.75c-1.19,0-2.16,0.88-2.16,1.97c0,0.15,0.02,0.3,0.06,0.45h-0.21c-1.08,0-2.08,0.67-2.25,1.64c-0.22,1.23,0.82,2.3,2.13,2.3h2.43
	c-1.19,0-2.16,0.88-2.16,1.97h-1.71c-1.19,0-2.16,0.88-2.16,1.97h-6.49c-1.19,0-2.16,0.88-2.16,1.97h-3.49
	c-1.19,0-2.16,0.88-2.16,1.97v0c0,0.62,0.32,1.17,0.82,1.53c-0.5,0.36-0.82,0.91-0.82,1.53l-4.8,0c-1.08,0-2.08,0.67-2.25,1.64
	c-0.22,1.23,0.82,2.3,2.13,2.3h4.08c-1.19,0-2.16,0.88-2.16,1.97c0,0.62,0.32,1.17,0.82,1.53c-1.19,0.01-2.15,0.88-2.15,1.97h-2.16
	c-0.6,0-1.14,0.22-1.53,0.58s-0.63,0.36-0.63,1.39c0-0.89,0.01,1.07,0.01,0.09c-0.75-0.23-1.33,1.28-1.5,1.44
	c0,1.12-0.95-2.08-2.23,0c-1.27-1.42-2.86-0.97-4.13,0c-1.27,0-2.23,0-2.23,0c-1.08,0-2.08,0.67-2.25,1.64
	c-0.22,1.23,0.82,2.3,2.13,2.3c0,0,0.81-0.35,2.03,0c1.22-3.09,2.84,0.31,4.46,0c1.62-1.29,3.24-2.07,4.46,0
	c1.22,0.35,2.03,0.23,2.03,0c0.24-1.44,0.46,0.09,0.67-0.11c0.39,0.04,0.91-0.58,1.49,0.54c0,2.32,2.22-0.57,2.22,0
	c0.11,2.11,0.38,1.9,0.75,1.09c0.37,1.77,0.84-1.06,1.36,0.44c0-0.76,2.22,0,2.22,0c-0.09,0.01-0.1,1.72,0.18,1.25
	c0.22,0.43,0.56-0.2,0.96,0.85c0.4,0.2,0.86,0.3,1.32,0.3h2.52c-0.66,0-1.24,0.27-1.64,0.69c-0.4,0.42-0.6,0.99-0.49,1.61
	c0.09,0.66,0.38,0.72,0.79,1.18c0.41,0.33,0.92,0.46,1.46,0.46h10.24v1.97h11.47c0,1.09,0.97,1.97,2.16,1.97h3.12
	c-1.19,0-2.16,0.88-2.16,1.97h-4.9c-1.08,0-2.08,0.67-2.25,1.64c-0.22,1.23,0.82,2.3,2.13,2.3h3.02c-1.33,0-2.4,0.98-2.4,2.19h-6.49
	c-0.6,0-1.17,0.19-1.63,0.51c-0.45,0.32-0.78,0.77-0.87,1.31c-0.12-0.35,0.11,3.78,0.55,1.79c0.44,2.29,1.09,0.02,1.82,0.76h1.33
	c0,1.21,1.08,2.19,2.4,2.19h3.47c-1.33,0-2.4,0.98-2.4,2.19c0,1.08,0.87,1.97,2,2.15c0.36,0.79,1.22,1.35,2.22,1.35h1.67
	c-1.19,0-2.15,0.88-2.15,1.95v0.25c-0.54,0.05-1.02,0.28-1.37,0.63c-0.35,0.64-0.56,0.98-0.56,1.31c0,3.33,0,0.49,0,0.23
	c0-1.63-0.73-0.12-0.73,0c-0.59,2.23-1.13-0.86-1.52,0.57c-0.39-1.41-0.63,7.1-0.63,1.38c0-2.05,0-1.85,0,0.46
	c0,1.38,0.24-0.09,0.63,1.38c0.39,0.05,0.93,2.48,1.52,0.57c0-2.65,1.12,1.62,2.62,0c1.5-1.23,3.37,0,4.87,0s2.62,0,2.62,0
	c1.19,0,2.15-0.88,2.15-1.95v-0.23h0.73c1.19,0,2.15-0.88,2.15-1.95v-0.25c1.08-0.1,1.92-0.92,1.92-1.93v-0.23h1.32
	c1.19,0,2.15-0.88,2.15-1.95v-0.46c0-1.08-0.96-1.95-2.15-1.95h-1.32c0.98,0,1.83-0.54,2.2-1.31h2.6c1.33,0,2.4-0.98,2.4-2.19
	c1.46,0,2.61-1.18,2.37-2.55c-0.19-1.07-1.3-1.82-2.5-1.82h-4.2c1.46,0,2.61-1.18,2.37-2.55c-0.19-1.07-1.3-1.82-2.5-1.82h-6.73
	c1.19,0,2.16-0.88,2.16-1.97h5.01c1.19,0,2.16-0.88,2.16-1.97l4.45,0c1.08,0,2.08-0.67,2.25-1.64c0.22-1.23-0.82-2.3-2.13-2.3h-7.69
	c0-0.07-0.01-0.13-0.02-0.2c0.72-0.32,1.22-0.99,1.22-1.76h5.28c1.19,0,2.16-0.88,2.16-1.97h3.73c1.08,0,2.08-0.67,2.25-1.64
	c0.22-1.23-0.82-2.3-2.13-2.3h3.48c0.93,0,1.84-0.41,2.28-1.15c0.28-0.46,0.28-0.87,0.18-1.25h7.39c1.07,0,2.05-0.66,2.24-1.61
	c0.15-0.77-0.2-1.46-0.78-1.89h0.82c1.19,0,2.16-0.88,2.16-1.97h4.19c1.08,0,2.09-0.67,2.27-1.64c0.1-0.55-0.06-1.07-0.38-1.47
	c0.26-0.32,0.41-0.72,0.41-1.15c0-0.46-0.18-0.87-0.46-1.2h0.46c1.31,0,2.35-1.06,2.13-2.3
	C549.03,281.95,548.03,281.29,546.95,281.29z"/>
<path class="st14" d="M469.53,270.63"/>
<g>
	<path class="st15" d="M657.03,178.33H589.9c0.78-4.43,2.56-8.56,5.15-12.17c6.08-8.5,16.54-14.11,28.41-14.11
		C640.39,152.05,654.43,163.43,657.03,178.33z"/>
	<path class="st15" d="M599.1,165.12c-2.78,3.64-4.7,7.8-5.53,12.28h-36.26c0.5-10.9,10.88-19.62,23.63-19.62
		C588.23,157.78,594.75,160.63,599.1,165.12z"/>
</g>
<g>
	<path class="st16" d="M271.56,309.78h-47.25c0.55-3.62,1.8-7,3.62-9.95c3.5-5.69,9.06-9.79,15.55-11.09
		c0.72-0.14,1.45-0.26,2.19-0.33c0.74,0.05,1.49,0.09,2.25-0.11c0.79,0,1.58,0.04,2.35,0.12
		C261.14,289.55,269.85,298.41,271.56,309.78z"/>
	<path class="st15" d="M227.94,299.83c-1.82,2.95-3.08,6.32-3.62,9.95h-23.75c0.33-8.83,7.12-15.89,15.48-15.89
		C220.82,293.89,225.09,296.2,227.94,299.83z"/>
</g>
<g>
	<path class="st17" d="M626.4,272.1c-0.45-2.6-3.08-4.42-6.03-4.12c-2.96,0.3-5.17,2.61-5.09,5.24"/>
	<path class="st17" d="M595.46,235.82c-0.45-2.6-3.08-4.42-6.03-4.12c-2.96,0.3-5.17,2.61-5.09,5.24"/>
	<path class="st17" d="M637.56,270.97c-0.28-2.76-3-4.75-6.08-4.44c-3.08,0.31-5.35,2.8-5.07,5.57"/>
	<path class="st17" d="M604.69,233.18c-0.28-2.76-3-4.75-6.08-4.44c-3.08,0.31-5.35,2.8-5.07,5.57"/>
</g>
<path class="st9" d="M284.7,405.89L284.7,405.89c-2.18,0-3.96-1.78-3.96-3.96c0,0,0-1.93,0-4.93c0-1.5,0-2.77,0-5.2
	c0-0.21,0-7,0-6.16c0-0.3,0-0.97,0-6.48c0,1.93,0-5.7,0-6.16c0,0.9,0-2.25,0-5.2c0-1.5,0-2.73,0-3.59c0-0.86,0-1.34,0-1.34
	c0-1.09,0.45-2.08,1.16-2.8c0.72-0.42,1.71-5.56,2.8-1.16c0,0.39,0,0.41,0,0c1.09,0.13,2.08,0.92,2.8,1.16
	c0.72,0.72,1.16,1.71,1.16,2.8c0,0,0,0.48,0,1.34s0,2.09,0,3.59c0,1.99,0,5.18,0,5.2c0,2.41,0,5.12,0,6.16c0-0.05,0,5.24,0,6.48
	c0,1.1,0,5.12,0,6.16c0,1.93,0,3.7,0,5.2c0,3,0,4.93,0,4.93C288.66,404.1,286.88,405.89,284.7,405.89z"/>
<path class="st9" d="M646.69,405.89L646.69,405.89c-2.18,0-3.96-1.78-3.96-3.96c0,0,0-1.93,0-4.93c0-1.5,0-2.72,0-5.2
	c0-2.58,0-0.75,0-6.16c0-5,0-2.92,0-6.48c0-1.3,0-4.23,0-6.16c0-5.79,0-10.13,0-10.13c0-2.18,1.78-3.96,3.96-3.96l0,0
	c2.18,0,3.96,1.78,3.96,3.96c0,0,0,22.85,0,33.6c0,0.83,0,1.58,0,2.25c0,0.88,0,1.7,0,1.73c0,1.36,0,1.39,0,1.11
	c0,0.25,0,0.39,0,0.39C650.65,404.1,648.87,405.89,646.69,405.89z"/>
<path class="st9" d="M364.86,404.78L364.86,404.78c-1.35,0-2.46-1.11-2.46-2.46v-29.56c0-1.35,1.11-2.46,2.46-2.46l0,0
	c1.35,0,2.46,1.11,2.46,2.46c0,0,0,11.19,0,19.8c0,1.08,0,2.11,0,3.08c0,1.35,0,2.03,0,2.68c0-0.54,0,1.89,0,2.11
	c0,0.69,0,1.35,0,1.39c0,0.28,0-0.05,0,0.5c0,0.46-0.12,1.06-0.34,1.24c-0.21,0.36-0.52,0.67-0.88,0.88
	C365.74,404.65,365.31,404.78,364.86,404.78z"/>
<path class="st9" d="M574.19,409.76L574.19,409.76c-1.35,0-2.46-1.11-2.46-2.46c0,0,0-5.43,0-11.63c0-2.07,0-4.22,0-6.29
	c0-3.03,0-4.5,0-5.6c0,0.45,0-1.31,0-0.17c0,1.41,0-1.82,0-1.43c0-1.11,0-1.68,0-2.79c0-1.72,0-1.41,0-1.78c0-2.18,0-3.67,0,0.14
	c0-1.39,0.07,1,0.19-0.05c0.13-1.67,0.31-3.04,0.53-1.68c0.22,2.61,0.49-0.98,0.78,0.97c0.29-0.92,0.62,1.48,0.96-1.7
	c0,0.74,0,2.21,0,1.26c0-1.08,0-2.32,0-1.26c0.34-0.04,0.66,1.37,0.96,1.73c0.29,1.96,0.56,1.63,0.78-1.01
	c0.22,2.48,0.4,3.11,0.53,3.02s0.19-0.89,0.19-1.28c0,0.66,0-0.12,0,1.46c0,5.31,0,1.89,0,3.81c0,4.37,0,4.96,0,5.29
	c0-0.73,0,3.93,0,5.91c0,1.13,0,2.16,0,3.32c0,1.78,0,2.75,0,3.08c0,1.77,0,1.19,0,2.68c0,0.81,0,1.52,0,2.11c0,1.18,0,1.88,0,1.88
	C576.65,408.65,575.55,409.76,574.19,409.76z"/>
<path class="st9" d="M604.27,404.78C604.27,405.42,604.27,404.04,604.27,404.78c-0.68,0.95-1.23,0.19-1.23-1.23
	c0,1.83,0-1.13,0-1.87c0-2.84,0-2.67,0-4.46c0-3.78,0-2.27,0-5.33c0-4.39,0-5.52,0-4.46c0,0.04,0-0.31,0-1.87
	c0-2.2,0.55-0.05,1.23-1.23c0-2.01,0-3.97,0,0c0.68-1.67,1.23-0.59,1.23,1.23c0-2.71,0,1.73,0,1.87c0,0.09,0,4.19,0,4.46
	c0,0.77,0,4.75,0,5.33c0,1.58,0,3.38,0,4.46c0,1.17,0-2.05,0,1.87C605.5,402.02,604.94,405.96,604.27,404.78z"/>
<path class="st9" d="M297.41,404.78L297.41,404.78c-1.88,0-3.41-1.53-3.41-3.41c0,0,0-3.41,0-6.82c0-1.71,0-3.41,0-4.69
	c0-1.83,0-1.42,0-2.13c0-1.13,0.38-2.55,1-2.41c0.62-3.77,1.47-2.91,2.41-1c0,0.04,0-3.65,0,0c0.94,0.1,1.79,0.18,2.41,1
	c0.62-0.17,1,1.64,1,2.41c0,0,0,0.85,0,2.13c0,3.84,0,11.51,0,11.51C300.82,403.24,299.29,404.78,297.41,404.78z"/>
<path class="st9" d="M305.08,407.49L305.08,407.49c-1.62,0-2.94-1.32-2.94-2.94v-9.09c0-1.62,1.32-2.94,2.94-2.94h0
	c1.62,0,2.94,1.32,2.94,2.94v9.09C308.02,406.17,306.7,407.49,305.08,407.49z"/>
<path class="st9" d="M633.18,407.49L633.18,407.49c-0.81,0-1.54,0.08-2.07-0.86c-0.53-1.28-0.86-5.09-0.86-2.07
	c0,1.78,0-1.51,0-2.36c0-6.72,0,0.78,0-4.38c0-1.96,0,1.63,0-2.36c0-2.48,0.33,0.87,0.86-2.07c0.13-0.91,0.28-0.59,0.44-0.42
	s0.32,0.18,0.5-1.34c0.18-2.13,0.36-0.52,0.55-1.09c0.19,0.37,0.39,0.95,0.59,1.99c0-0.16,0,2.79,0,0.51c0-0.16,0-3.26,0-1.31
	c0,1.47,0,1.79,0,2.17c0,0.36,0-1.57,0-1.38c0.4-0.22,0.79,1.49,1.14-0.03c0.18-0.4,0.34-0.27,0.5-0.12c0.16,0.6,0.3,1.39,0.44,1.02
	c0.27-0.2,0.48-0.88,0.63,0.66c0.15,2.84,0.23,1.77,0.23,1.42c0-1.57,0,2.98,0,0.41c0-0.44,0,1.88,0,1.95c0,0.16,0,2.78,0,4.38
	c0-3.24,0,2.09,0,2.36c0-0.76-0.33,1.88-0.86,2.07C634.72,407.96,633.99,407.97,633.18,407.49z"/>
<path class="st18" d="M301.41,365.76c0,0.58-0.21-3.89-0.6-4.44c-0.39-3.53-0.96-3.47-1.69-3.99c-0.73-5.76-1.61-0.54-2.61-3.38
	c-1.01,1.49-2.14-2.13-3.38-2.61c-1.24,0.69-2.58-5.29-3.99-1.69c-1.42,1.94-2.91-3.16-4.44-0.6c-1.54-0.79-3.03-1.39-4.44,0.6
	c-1.42-0.96-2.75,2.01-3.99,1.69c-1.24,0.86-2.37-0.3-3.38,2.61c-1.01-1.85-1.89,6.94-2.61,3.38c-0.73-1.5-1.3,2.05-1.69,3.99
	c-0.39,3.65-0.6,1.48-0.6,4.44c0,2.42,0.21,3.59,0.6,4.44c0.39,6.02,0.96,1.54,1.69,3.99c0.73,2.01,1.61-2.09,2.61,3.38
	c1.01-1.3,2.14-1.33,3.38,2.61c1.24,0.68,2.58,1.76,3.99,1.69c1.42,5.22,2.91,1.99,4.44,0.6c1.54-0.35,3.03-0.22,4.44-0.6
	c1.42-0.48,2.75,0.91,3.99-1.69c1.24,1.65,2.37,0.36,3.38-2.61c1.01-2.6,1.89-1,2.61-3.38c0.73-5.63,1.3-3.06,1.69-3.99
	C301.21,365.36,301.41,366.69,301.41,365.76z"/>
<path class="st18" d="M364.86,350.02c0-0.41-0.04-0.72-0.12-1.4c-0.08-0.53-0.19,0.57-0.34,2.56c-0.15,2.76-0.32,3.98-0.53,1.15
	c-0.21,1.86-0.44,1.85-0.7,2.01c-0.26,4.39-0.54-0.52-0.85,1.3c-0.3,1.65-0.63-1.32-0.97,3.35c-0.34,1.2-0.7,3.88-1.07,3.53
	c-0.37,1.48-0.75,2.44-1.14,2.12c-0.78,2.08-1.59,3.98-2.4,6.15c-0.81,1.66-1.62,2.85-2.4,6.15c-0.78,5.16-1.53,0.62-2.21,5.65
	c-0.68,3.97-1.3,5.27-1.82,4.65c-0.52,5.71-0.94,2.59-1.23,3.16c-0.29,1.31-0.45,0.4-0.45,1.16c0,4.07,0.66-0.91,1.8,0
	c1.14-0.95,2.75-0.07,4.64,0c1.89,0.8,4.07,0,6.34,0s4.64,0,6.91,0c2.27-0.29,4.45,1.99,6.34,0c1.89,0.16,3.5-0.76,4.64,0
	c1.14-1.1,1.8,0.67,1.8,0c0-1.23-0.16-0.96-0.45-1.16c-0.29-1.02-0.71,0.09-1.23-3.16c-0.52-2.6-1.14-3.83-1.82-4.65
	c-0.68-3.46-1.43-1.77-2.21-5.65c-0.78-1.18-1.59-3.79-2.4-6.15c-0.41-1.24-0.81-1.15-1.21-1.56c-0.4-0.42-0.8-1.05-1.19-4.59
	c-0.39,0.37-0.77-0.38-1.14-2.31c-0.37-0.7-0.73-1.47-1.07-3.34c-0.34-1.78-0.67,0.79-0.97-1.11c-0.3,2.07-0.59-2.15-0.85-3.55
	c-0.26,1.78-0.5,0.54-0.7-3.14c-0.21,1.22-0.39,1.21-0.53-0.02c-0.15,4.12-0.26-2.64-0.34,1.27
	C364.9,353.09,364.86,345.65,364.86,350.02z"/>
<path class="st18" d="M651.72,345.23c0,0.17-0.21-2.91-0.58,1.12c-0.19,5.09-0.42-2.81-0.68-1.78c-0.27,0.26-0.57-3.18-0.9,4.82
	c-0.33,3.17-0.7,6.15-1.09,1.05c-0.39-5.34-0.81-0.28-1.24,3.43c-0.44,1.72-0.9,3.32-1.37,2.96c-0.47-1.55-0.96-2.37-1.46,2.49
	c-0.5,0.43-1.01,2.92-1.53,2.28c-0.52,1.03-1.04,3.18-1.56,3.65c-0.52-0.03-1.04,3.99-1.56,3.72c-0.52-0.02-1.03,0.46-1.53,2.21
	c-0.25,1-0.5,1.25-0.74,1.98c-0.24,0.45-0.48-0.4-0.72,1.27c-0.24-2.19-0.47,0.99-0.7,1.84c-0.23-2.18-0.45,3.33-0.67,0.36
	c-0.22,0.64-0.43,0.92-0.64,1.35c-0.21,0.74-0.41,2.71-0.6,1.04c-0.2,2.21-0.38,1.76-0.57-0.62c-0.18,1.29-0.36,1.19-0.52,2.72
	c-0.17-1.2-0.33,0.07-0.48,1.06c-0.15,0.11-0.29,3.13-0.42,1.33c-0.13,2.89-0.26-1.72-0.37,0.15c-0.11-1.32-0.22-2.58-0.31,0.51
	c-0.09-0.36-0.18-2.67-0.25-0.94c-0.07-2.76-0.13-0.52-0.18,2.3c-0.05-1.18-0.09-3.56-0.11-1.5c-0.03-1.86-0.04-0.77-0.04,1.26
	c0,3.49,0.16-0.68,0.47-0.74c0.15-3.07,0.34-2.11,0.56-1.43c0.22,0.87,0.47,1.86,0.76,2.13c0.14-0.69,0.29-2.35,0.45-1.58
	c0.16,0.3,0.32,0.47,0.49,1.28c0.17,1.82,0.34,0.79,0.53,1.91c0.18,0.21,0.37-1.74,0.56-1.24c0.39,2.41,0.8,0.27,1.23,1.78
	c0.22-0.03,0.44,2.87,0.66,0.84c0.23,0.02,0.46-2.14,0.69-3.08c0.24,2.53,0.48,0.8,0.72,1.51c0.24,1.13,0.49-0.31,0.74-1.34
	c0.5,0.04,1.02-0.43,1.55-0.86c0.53,1.55,1.07,0.41,1.62,0.91c0.55,0.51,1.11,0.8,1.67-0.35c0.56-0.79,1.14,2.05,1.71,0.3
	c0.57,1.83,1.15-1.01,1.73-0.38c0.58-0.21,1.15-0.94,1.73-1.16c0.57,0.19,1.14,0.76,1.71,1.09c1.13-1.55,2.24,0.19,3.29,1.13
	c1.06,1.6,2.07,1.32,3.01-1.26c0.94,1.19,1.81,1.91,2.59-0.31c0.78-0.41,1.46,3.52,2.02,0.21c0.56,2.29,1.01,2.71,1.32,0.08
	c0.31-0.16,0.47,0.77,0.47-0.12c0,2.84-0.14-0.39-0.39-1.35c-0.13-0.52-0.28-0.26-0.46-2.92c-0.18,2.45-0.38-1.44-0.6-0.7
	c-0.22-0.81-0.46-1.94-0.72-2.34c-0.26-1.76-0.53-2.06-0.81-2.9c-0.28-0.78-0.58-2.23-0.88-3.88s-0.61-3.05-0.93-2.33
	c-0.63-1.26-1.27-8.65-1.9-6.54c-0.31-1.46-0.63-3.23-0.93-4.52c-0.3-2.05-0.6-1.71-0.88-1.69c-0.28,0.96-0.55,0.93-0.81-1.49
	c-0.26-0.65-0.5-0.96-0.72-3.75c-0.22-0.31-0.42-3.61-0.6-3.71c-0.18,2.27-0.33,0.25-0.46,0.09c-0.13,1.37-0.22,3.35-0.29-0.53
	C651.76,348.93,651.72,346.83,651.72,345.23z"/>
<path class="st19" d="M580.34,353.59c0,2.85-0.01,2.68-0.03,3.18c-0.02,0.51-0.05,1.03-0.1,3.21c-0.08-0.77-0.21,3.83-0.37,5.95
	c-0.16,6.04-0.35,3.97-0.58,5.38c-0.23-1.19-0.48,0.1-0.77,4.69c-0.29-1.55-0.6,0.04-0.93,3.87c-0.34-0.29-0.69,2.23-1.07,2.92
	c-0.38,2.45-0.77,2.27-1.18,1.85c-0.41,0.36-0.84,0.51-1.27,0.64c-0.22,1.19-0.43-0.26-0.64-1.36c-0.21-0.45-0.42-1.21-0.63,0.72
	c-0.21-0.58-0.41-0.33-0.6-0.93c-0.2-0.7-0.39,1.06-0.58-0.91c-0.19,0.83-0.37-1.58-0.55-0.7c-0.18,1.88-0.35-1.11-0.52-2.22
	c-0.17,1.49-0.33-0.26-0.49-2.18c-0.16-1.47-0.31-1.65-0.45-1.69c-0.14-0.36-0.28,0.04-0.41-1.62c-0.13,2.23-0.25,1.52-0.36-3.07
	c-0.11-9.13-0.22-2.27-0.32-3.58c-0.1-0.19-0.19-2.56-0.27-1.8c-0.08-1.58-0.15-4.01-0.21-3.15c-0.06-2.57-0.11-2.33-0.16-2.8
	c-0.04,0.53-0.07-4.53-0.1-2.95c-0.02,0.44-0.03-3.8-0.03-3.43c0-1.09,0.01-0.57,0.03-1.69c0.02-0.45,0.05-2.6,0.1-4.69
	c0.04-0.95,0.09-0.16,0.16-2.6c0.06-2.61,0.13-3.32,0.21-3.35c0.08-0.09,0.17-0.1,0.27-1.9c0.1,2.07,0.2-1.2,0.32-3.49
	c0.11-3.05,0.23,2.39,0.36-1c0.13-0.09,0.26-4.1,0.41-3.69c0.14,1.2,0.29-2.23,0.45-2.44c0.16-3.72,0.32,2.49,0.49-1.43
	c0.17,0.09,0.34,2.26,0.52,1.27c0.18-1.35,0.36-0.33,0.55-4.2c0.19,4.26,0.38,4,0.58-0.94c0.2-2.2,0.4,1.15,0.6-0.91
	c0.21-1.27,0.41,6.28,0.63,0.72c0.21-1.1,0.43-1.48,0.64-1.36c0.22-4.8,0.43-1.88,0.64-2.17c0.21-6.21,0.42-5.2,0.63,2.82
	c0.21-2.32,0.41-1.95,0.6-2.08c0.2-3.62,0.39-3.89,0.58,3.93c0.19-4.55,0.37,1.85,0.55-1.06c0.18-2.51,0.35-6.55,0.52,3.98
	c0.17,2.96,0.33-4.5,0.49,0.64c0.16-0.97,0.31,2.52,0.45,3.23c0.14,4.57,0.28,1.42,0.41,2.5c0.13,0.01,0.25,2.49,0.36,2.19
	c0.11,4.08,0.22,6.96,0.32,4.92c0.1,1.27,0.19-0.03,0.27,0.46c0.08-2.31,0.15-2.18,0.21,1.44c0.06,1.36,0.11,5.67,0.16,4.51
	c0.04,2.83,0.07,4.19,0.1,4.54C580.33,351.03,580.34,351.75,580.34,353.59z"/>
</svg>
