<?xml version="1.0" encoding="utf-8"?>
<!-- Generator: Adobe Illustrator 23.0.2, SVG Export Plug-In . SVG Version: 6.00 Build 0)  -->
<svg version="1.1" id="katman_1" xmlns="http://www.w3.org/2000/svg" xmlns:xlink="http://www.w3.org/1999/xlink" x="0px" y="0px"
	 viewBox="0 0 841.89 595.28" style="enable-background:new 0 0 841.89 595.28;" xml:space="preserve">
<style type="text/css">
	.st0{fill:#FFCF02;stroke:#000000;stroke-miterlimit:10;}
	.st1{fill:#E7401D;stroke:#000000;stroke-width:2.5735;stroke-miterlimit:10;}
	.st2{fill:#E2E2E1;stroke:#000000;stroke-width:2.4518;stroke-miterlimit:10;}
	.st3{fill:#EDEDED;stroke:#000000;stroke-width:3.2843;stroke-miterlimit:10;}
	.st4{fill:#E7401D;stroke:#000000;stroke-width:4.1523;stroke-miterlimit:10;}
	.st5{fill:#E7401D;stroke:#000000;stroke-width:3.9019;stroke-miterlimit:10;}
	.st6{fill:none;stroke:#000000;stroke-width:3.1585;stroke-miterlimit:10;}
	.st7{fill:none;stroke:#000000;stroke-width:3.2813;stroke-miterlimit:10;}
	.st8{fill:none;stroke:#000000;stroke-width:3.4741;stroke-miterlimit:10;}
	.st9{fill:#36A9E1;stroke:#000000;stroke-width:1.2921;stroke-miterlimit:10;}
	.st10{opacity:0.3;fill:#EDEDED;}
	.st11{fill:none;stroke:#000000;stroke-width:1.3841;stroke-miterlimit:10;}
	.st12{fill:#EA5B0C;stroke:#000000;stroke-width:1.3841;stroke-miterlimit:10;}
	.st13{fill:#F7F4F2;stroke:#000000;stroke-width:1.3841;stroke-miterlimit:10;}
	.st14{fill:#EDEDED;stroke:#000000;stroke-width:3.2576;stroke-miterlimit:10;}
	.st15{fill:#FFFFFF;stroke:#000000;stroke-width:2.986;stroke-miterlimit:10;}
	.st16{fill:none;stroke:#000000;stroke-width:2.986;stroke-miterlimit:10;}
	.st17{fill:#23BBE6;stroke:#000000;stroke-width:2.986;stroke-miterlimit:10;}
	.st18{opacity:0.3;fill:#FFFFFF;}
	.st19{fill:#E7401D;stroke:#000000;stroke-width:3;stroke-miterlimit:10;}
	.st20{fill:#079339;stroke:#000000;stroke-width:1.3841;stroke-miterlimit:10;}
	.st21{fill:#4EAE33;stroke:#000000;stroke-width:1.8112;stroke-miterlimit:10;}
	.st22{fill:#86D0EF;stroke:#000000;stroke-miterlimit:10;}
	.st23{fill:#B9E2F4;stroke:#000000;stroke-miterlimit:10;}
	.st24{fill:none;stroke:#000000;stroke-width:2;stroke-miterlimit:10;}
	.st25{fill:#222F3F;stroke:#000000;stroke-width:2.4518;stroke-miterlimit:10;}
	.st26{fill:#222F3F;stroke:#000000;stroke-width:1.1604;stroke-miterlimit:10;}
	.st27{clip-path:url(#SVGID_2_);fill:none;stroke:#B2B2B2;stroke-width:0.25;stroke-miterlimit:10;}
	.st28{clip-path:url(#SVGID_2_);fill:#EDEDED;stroke:#B2B2B2;stroke-width:0.25;stroke-miterlimit:10;}
	.st29{fill:none;stroke:#000000;stroke-width:0.5179;stroke-miterlimit:10;}
	.st30{fill:none;stroke:#000000;stroke-width:0.4288;stroke-miterlimit:10;}
	.st31{fill:#EDEDED;stroke:#000000;stroke-width:0.7342;stroke-miterlimit:10;}
	.st32{fill:#8F756F;stroke:#000000;stroke-width:2.4818;stroke-miterlimit:10;}
</style>
<ellipse class="st0" cx="686.39" cy="151.59" rx="38.05" ry="35.78"/>
<rect x="362.04" y="323.76" class="st1" width="81.09" height="51.52"/>
<polygon class="st1" points="362.04,322.78 279.86,393.95 444.22,393.95 "/>
<rect x="301.08" y="394.67" class="st2" width="124.49" height="78.93"/>
<polygon class="st3" points="503.73,393.44 423.01,393.44 423.53,380.56 423.95,370.25 425.38,334.77 500.41,334.77 "/>
<polygon class="st4" points="500.34,334.77 425.31,334.77 427.29,285.81 497.57,285.81 "/>
<polygon class="st4" points="508.15,472.68 419.74,472.68 422.94,393.44 503.66,393.44 "/>
<rect x="416.89" y="270.75" class="st5" width="89.18" height="14.65"/>
<path class="st6" d="M427.29,318.21"/>
<path class="st7" d="M426.53,298.31"/>
<line class="st7" x1="430.31" y1="271.84" x2="430.31" y2="284.92"/>
<line class="st8" x1="449.88" y1="271.27" x2="449.88" y2="286.44"/>
<line class="st8" x1="474.52" y1="272.04" x2="474.52" y2="287.21"/>
<line class="st8" x1="496.43" y1="272.04" x2="496.43" y2="287.21"/>
<rect x="430.31" y="219.08" class="st9" width="66.12" height="49.35"/>
<polygon class="st10" points="483.8,211.79 436.49,252.95 430.31,252.95 430.31,247.84 471.74,211.79 "/>
<polygon class="st10" points="496.43,235.83 496.43,245.39 470.46,267.63 459.3,267.63 "/>
<line class="st11" x1="443.16" y1="211.79" x2="443.91" y2="268.43"/>
<line class="st11" x1="458.92" y1="211.79" x2="459.68" y2="268.43"/>
<line class="st11" x1="477.49" y1="211.46" x2="478.24" y2="268.09"/>
<g>
	<path class="st12" d="M464.05,180.92c-21.61,0-39.12,15-39.12,33.51h78.24C503.17,195.92,485.66,180.92,464.05,180.92z"/>
</g>
<rect x="456.56" y="160.44" class="st13" width="14.99" height="20.48"/>
<rect x="462.25" y="137.62" class="st13" width="3.6" height="22.81"/>
<path class="st14" d="M505.33,290.54"/>
<path class="st14" d="M505.33,366.68"/>
<path class="st15" d="M363.33,426.56"/>
<path class="st16" d="M362.92,413.65"/>
<path class="st16" d="M363.33,439.48"/>
<line class="st16" x1="362.92" y1="413.65" x2="363.33" y2="439.48"/>
<rect x="335.06" y="413.65" class="st17" width="56.53" height="25.83"/>
<polygon class="st18" points="378.2,414.86 341.88,438.03 337.14,438.03 337.14,435.15 368.94,414.86 "/>
<polygon class="st18" points="389.53,418.41 389.53,424.31 367.77,438.03 358.42,438.03 "/>
<line class="st16" x1="362.92" y1="413.65" x2="363.32" y2="438.99"/>
<path class="st19" d="M485.63,290.54"/>
<line class="st11" x1="167.72" y1="473.6" x2="673.99" y2="473.6"/>
<g>
	<path class="st20" d="M548.18,471.62"/>
	<path class="st20" d="M520.89,471.62"/>
	<path class="st20" d="M552.21,455.66"/>
	<path class="st11" d="M564.09,471.62"/>
	<path class="st11" d="M615.35,471.62"/>
	<path class="st11" d="M564.09,471.62"/>
</g>
<g>
	<path class="st20" d="M638.7,473.6h-65.73c0.76-4.72,2.51-9.11,5.04-12.95c5.95-9.05,16.19-15.02,27.82-15.02
		C622.41,445.63,636.15,457.74,638.7,473.6z"/>
	<path class="st21" d="M578.01,460.65c-2.53,3.84-4.28,8.23-5.04,12.95h-33.04c0.46-11.5,9.91-20.69,21.53-20.69
		C568.11,452.91,574.05,455.92,578.01,460.65z"/>
</g>
<g>
	<path class="st22" d="M195,243.11h-47.25c0.55-3.62,1.8-7,3.62-9.95c4.28-6.95,11.64-11.54,20-11.54
		C183.29,221.63,193.17,230.93,195,243.11z"/>
	<path class="st22" d="M151.37,233.17c-1.82,2.95-3.08,6.32-3.62,9.95H124c0.33-8.83,7.12-15.89,15.48-15.89
		C144.26,227.22,148.53,229.54,151.37,233.17z"/>
</g>
<g>
	<path class="st23" d="M602.45,187.37h65.73c-0.76-4.72-2.51-9.11-5.04-12.95c-5.95-9.05-16.19-15.02-27.82-15.02
		C618.74,159.4,605,171.51,602.45,187.37z"/>
	<path class="st23" d="M663.14,174.42c2.53,3.84,4.28,8.23,5.04,12.95h33.04c-0.46-11.5-9.91-20.69-21.53-20.69
		C673.04,166.68,667.1,169.69,663.14,174.42z"/>
</g>
<path class="st24" d="M193.1,294.33"/>
<path class="st25" d="M477.02,469.43h-28.4v-25.4c0-7.81,6.33-14.13,14.13-14.13h0.13c7.81,0,14.13,6.33,14.13,14.13V469.43z"/>
<path class="st26" d="M466.49,322.63h-10.02v-20.09c0-2.77,2.24-5.01,5.01-5.01l0,0c2.77,0,5.01,2.24,5.01,5.01V322.63z"/>
<g>
	<defs>
		<polygon id="SVGID_1_" points="501.09,391.58 425.49,391.58 424.55,380.78 424.93,370.93 427.39,336.63 497.87,336.63 		"/>
	</defs>
	<clipPath id="SVGID_2_">
		<use xlink:href="#SVGID_1_"  style="overflow:visible;"/>
	</clipPath>
	<path class="st27" d="M416.53,327.3"/>
	<path class="st27" d="M421.07,327.3"/>
	<path class="st27" d="M483.22,345.92"/>
	<rect x="417.85" y="330.76" class="st28" width="14.97" height="5.87"/>
	<rect x="432.82" y="330.76" class="st28" width="14.97" height="5.87"/>
	<rect x="447.79" y="330.76" class="st28" width="14.97" height="5.87"/>
	<rect x="462.76" y="330.76" class="st28" width="14.97" height="5.87"/>
	<rect x="477.73" y="330.76" class="st28" width="14.97" height="5.87"/>
	<rect x="492.69" y="330.76" class="st28" width="14.97" height="5.87"/>
	<path class="st27" d="M422.4,333.7"/>
	<path class="st27" d="M426.95,333.7"/>
	<rect x="423.73" y="337.15" class="st28" width="14.97" height="5.87"/>
	<rect x="438.69" y="337.15" class="st28" width="14.97" height="5.87"/>
	<rect x="453.66" y="337.15" class="st28" width="14.97" height="5.87"/>
	<rect x="468.63" y="337.15" class="st28" width="14.97" height="5.87"/>
	<rect x="483.6" y="337.15" class="st28" width="14.97" height="5.87"/>
	<rect x="498.57" y="337.15" class="st28" width="14.97" height="5.87"/>
	<path class="st27" d="M413.49,340.09"/>
	<path class="st27" d="M418.04,340.09"/>
	<rect x="414.82" y="343.54" class="st28" width="14.97" height="5.87"/>
	<rect x="429.79" y="343.54" class="st28" width="14.97" height="5.87"/>
	<rect x="444.76" y="343.54" class="st28" width="14.97" height="5.87"/>
	<rect x="459.73" y="343.54" class="st28" width="14.97" height="5.87"/>
	<rect x="474.69" y="343.54" class="st28" width="14.97" height="5.87"/>
	<rect x="489.66" y="343.54" class="st28" width="14.97" height="5.87"/>
	<path class="st27" d="M419.75,346.48"/>
	<path class="st27" d="M424.29,346.48"/>
	<rect x="421.07" y="349.94" class="st28" width="14.97" height="5.87"/>
	<rect x="436.04" y="349.94" class="st28" width="14.97" height="5.87"/>
	<rect x="451.01" y="349.94" class="st28" width="14.97" height="5.87"/>
	<rect x="465.98" y="349.94" class="st28" width="14.97" height="5.87"/>
	<rect x="480.95" y="349.94" class="st28" width="14.97" height="5.87"/>
	<rect x="495.92" y="349.94" class="st28" width="14.97" height="5.87"/>
	<path class="st27" d="M412.64,352.87"/>
	<rect x="409.42" y="356.33" class="st28" width="14.97" height="5.87"/>
	<rect x="424.39" y="356.33" class="st28" width="14.97" height="5.87"/>
	<rect x="439.36" y="356.33" class="st28" width="14.97" height="5.87"/>
	<rect x="454.33" y="356.33" class="st28" width="14.97" height="5.87"/>
	<rect x="469.29" y="356.33" class="st28" width="14.97" height="5.87"/>
	<rect x="484.26" y="356.33" class="st28" width="14.97" height="5.87"/>
	<path class="st27" d="M418.04,359.27"/>
	<path class="st27" d="M422.59,359.27"/>
	<rect x="419.37" y="362.72" class="st28" width="14.97" height="5.87"/>
	<rect x="434.34" y="362.72" class="st28" width="14.97" height="5.87"/>
	<rect x="449.3" y="362.72" class="st28" width="14.97" height="5.87"/>
	<rect x="464.27" y="362.72" class="st28" width="14.97" height="5.87"/>
	<rect x="479.24" y="362.72" class="st28" width="14.97" height="5.87"/>
	<rect x="494.21" y="362.72" class="st28" width="14.97" height="5.87"/>
	<path class="st27" d="M412.93,365.66"/>
	<path class="st27" d="M417.47,365.66"/>
	<rect x="414.25" y="369.11" class="st28" width="14.97" height="5.87"/>
	<rect x="429.22" y="369.11" class="st28" width="14.97" height="5.87"/>
	<rect x="444.19" y="369.11" class="st28" width="14.97" height="5.87"/>
	<rect x="459.16" y="369.11" class="st28" width="14.97" height="5.87"/>
	<rect x="474.13" y="369.11" class="st28" width="14.97" height="5.87"/>
	<rect x="489.09" y="369.11" class="st28" width="14.97" height="5.87"/>
	<path class="st27" d="M421.64,372.05"/>
	<path class="st27" d="M426.19,372.05"/>
	<rect x="422.97" y="375.51" class="st28" width="14.97" height="5.87"/>
	<rect x="437.94" y="375.51" class="st28" width="14.97" height="5.87"/>
	<rect x="452.9" y="375.51" class="st28" width="14.97" height="5.87"/>
	<rect x="467.87" y="375.51" class="st28" width="14.97" height="5.87"/>
	<rect x="482.84" y="375.51" class="st28" width="14.97" height="5.87"/>
	<rect x="497.81" y="375.51" class="st28" width="14.97" height="5.87"/>
	<path class="st27" d="M417.19,378.44"/>
	<path class="st27" d="M421.74,378.44"/>
	<rect x="418.52" y="381.9" class="st28" width="14.97" height="5.87"/>
	<rect x="433.48" y="381.9" class="st28" width="14.97" height="5.87"/>
	<rect x="448.45" y="381.9" class="st28" width="14.97" height="5.87"/>
	<rect x="463.42" y="381.9" class="st28" width="14.97" height="5.87"/>
	<rect x="478.39" y="381.9" class="st28" width="14.97" height="5.87"/>
	<rect x="493.36" y="381.9" class="st28" width="14.97" height="5.87"/>
	<path class="st27" d="M412.64,384.84"/>
	<path class="st27" d="M417.19,384.84"/>
	<rect x="413.97" y="388.29" class="st28" width="14.97" height="5.87"/>
	<rect x="428.94" y="388.29" class="st28" width="14.97" height="5.87"/>
	<rect x="443.9" y="388.29" class="st28" width="14.97" height="5.87"/>
	<rect x="458.87" y="388.29" class="st28" width="14.97" height="5.87"/>
	<rect x="473.84" y="388.29" class="st28" width="14.97" height="5.87"/>
	<rect x="488.81" y="388.29" class="st28" width="14.97" height="5.87"/>
	<path class="st27" d="M417.85,391.23"/>
	<path class="st27" d="M422.4,391.23"/>
	<rect x="419.18" y="394.69" class="st28" width="14.97" height="5.87"/>
	<rect x="434.15" y="394.69" class="st28" width="14.97" height="5.87"/>
	<rect x="449.12" y="394.69" class="st28" width="14.97" height="5.87"/>
	<rect x="464.08" y="394.69" class="st28" width="14.97" height="5.87"/>
	<rect x="479.05" y="394.69" class="st28" width="14.97" height="5.87"/>
	<rect x="494.02" y="394.69" class="st28" width="14.97" height="5.87"/>
	<path class="st27" d="M413.3,397.62"/>
	<path class="st27" d="M417.85,397.62"/>
	<rect x="414.63" y="401.08" class="st28" width="14.97" height="5.87"/>
	<rect x="429.6" y="401.08" class="st28" width="14.97" height="5.87"/>
	<rect x="444.57" y="401.08" class="st28" width="14.97" height="5.87"/>
	<rect x="459.54" y="401.08" class="st28" width="14.97" height="5.87"/>
	<rect x="474.5" y="401.08" class="st28" width="14.97" height="5.87"/>
	<rect x="489.47" y="401.08" class="st28" width="14.97" height="5.87"/>
	<path class="st27" d="M408.76,404.01"/>
	<path class="st27" d="M413.3,404.01"/>
	<rect x="410.08" y="407.47" class="st28" width="14.97" height="5.87"/>
	<rect x="425.05" y="407.47" class="st28" width="14.97" height="5.87"/>
	<rect x="440.02" y="407.47" class="st28" width="14.97" height="5.87"/>
	<rect x="454.99" y="407.47" class="st28" width="14.97" height="5.87"/>
	<rect x="469.96" y="407.47" class="st28" width="14.97" height="5.87"/>
	<rect x="484.93" y="407.47" class="st28" width="14.97" height="5.87"/>
	<use xlink:href="#SVGID_1_"  style="overflow:visible;fill:none;stroke:#B2B2B2;stroke-width:0.25;stroke-miterlimit:10;"/>
</g>
<path class="st26" d="M466.49,379.23h-10.02v-20.09c0-2.77,2.24-5.01,5.01-5.01l0,0c2.77,0,5.01,2.24,5.01,5.01V379.23z"/>
<g>
	<path class="st29" d="M183.3,296.08c0.09-4.39-1.84-7.98-4.43-8.13c-2.59-0.15-4.91,3.2-5.32,7.58"/>
	<path class="st29" d="M193.08,296.64c0.26-4.64-1.71-8.52-4.41-8.67s-5.1,3.48-5.36,8.12"/>
</g>
<g>
	<path class="st30" d="M217.96,320.45c-0.45-2.6-3.08-4.42-6.03-4.12c-2.96,0.3-5.17,2.61-5.09,5.24"/>
	<path class="st30" d="M229.12,319.33c-0.28-2.76-3-4.75-6.08-4.44s-5.35,2.8-5.07,5.57"/>
</g>
<g>
	<path class="st30" d="M602.43,281.87c-0.45-2.6-3.08-4.42-6.03-4.12c-2.96,0.3-5.17,2.61-5.09,5.24"/>
	<path class="st30" d="M613.59,280.74c-0.28-2.76-3-4.75-6.08-4.44c-3.08,0.31-5.35,2.8-5.07,5.57"/>
</g>
<rect x="414.41" y="213.42" class="st31" width="99.28" height="8.34"/>
<rect x="301.08" y="445.63" class="st32" width="118.65" height="27.97"/>
</svg>
