<?xml version="1.0" encoding="utf-8"?>
<!-- Generator: Adobe Illustrator 23.0.2, SVG Export Plug-In . SVG Version: 6.00 Build 0)  -->
<svg version="1.1" id="katman_1" xmlns="http://www.w3.org/2000/svg" xmlns:xlink="http://www.w3.org/1999/xlink" x="0px" y="0px"
	 viewBox="0 0 841.89 595.28" style="enable-background:new 0 0 841.89 595.28;" xml:space="preserve">
<style type="text/css">
	.st0{fill:#B8539A;}
	.st1{fill:#BB4A95;}
	.st2{fill:#A84191;}
	.st3{fill:#009FE3;}
	.st4{fill:#F39200;}
	.st5{fill:#E94E1B;stroke:#000000;stroke-width:3;stroke-miterlimit:10;}
	.st6{fill:#354194;}
	.st7{fill:#D7A902;}
	.st8{fill:#52C2EB;}
	.st9{fill:#E94E1B;}
	.st10{fill:#53AF32;}
	.st11{fill:#1C3E8F;}
	.st12{fill:#274395;}
	.st13{fill:none;}
	.st14{fill:#4BB0E4;}
	.st15{fill:#81BB27;}
	.st16{fill:#ECC302;}
	.st17{fill:#D70C3C;}
	.st18{fill:#059B9C;}
	.st19{fill:#B11450;}
	.st20{fill:#1FADE4;}
</style>
<g>
	<path class="st0" d="M779.3,64L779.3,64c-8.68-8.09-22.28-7.61-30.37,1.07l-23.36,25.08c-0.52,0.56-0.99,1.14-1.44,1.73
		c7.83-6.76,19.67-6.69,27.42,0.53l1.37,1.28c7.75,7.22,8.66,19.02,2.47,27.31c0.56-0.49,1.11-1,1.63-1.56l23.36-25.08
		C788.46,85.69,787.98,72.09,779.3,64z"/>
	<path class="st1" d="M716.18,132.13l-1.37-1.28c-7.75-7.22-8.66-19.02-2.47-27.31c-0.56,0.49-1.11,1-1.63,1.56l-24,25.76
		c-7.74,8.3-7.28,21.31,1.03,29.04l1.37,1.28c8.3,7.74,21.31,7.28,29.04-1.03l24-25.76c0.52-0.56,0.99-1.14,1.44-1.73
		C735.76,139.43,723.92,139.35,716.18,132.13z"/>
	<path class="st1" d="M741.13,105.35l-1.37-1.28c-7.75-7.22-19.58-7.29-27.42-0.53c-6.19,8.29-5.28,20.09,2.47,27.31l1.37,1.28
		c7.75,7.22,19.58,7.29,27.42,0.53C749.79,124.37,748.87,112.57,741.13,105.35z"/>
</g>
<g>
	<path class="st2" d="M183.48,86.5c0-29.09-17.39-52.66-38.83-52.66H98.57c-16.58,0-30.03,18.23-30.03,40.73v40.02
		c0-9.7,5.8-17.55,12.94-17.55h63.16c12.7,0,23.98,8.28,31.07,21.07c0,0,0,0,0,0C180.59,109.3,183.48,98.36,183.48,86.5L183.48,86.5
		z"/>
	<path class="st3" d="M165.64,139.17H85.05c-9.12,0-16.51-7.86-16.51-17.55v63.2c0,9.7,7.39,17.55,16.51,17.55h80.59
		c27.36,0,49.54-23.58,49.54-52.66v0c0-11.86-3.69-22.8-9.91-31.6c0,0,0,0,0,0C196.24,130.89,181.85,139.17,165.64,139.17z"/>
	<path class="st4" d="M165.64,97.04h-97.1v42.13h97.1c16.21,0,30.6-8.28,39.63-21.07C196.24,105.31,181.85,97.04,165.64,97.04z"/>
</g>
<path class="st5" d="M419.61,113.43h-58.84c-8.36,0-15.14-6.78-15.14-15.14V94.1c0-7.33,5.94-13.26,13.26-13.26h60.72
	c6.86,0,12.41,5.56,12.41,12.41v7.76C432.02,107.87,426.47,113.43,419.61,113.43z"/>
<path class="st5" d="M399.1,81.22h-36.6c-0.25,0-0.46-0.21-0.46-0.46V58.22c0-8.02,6.5-14.52,14.52-14.52h8.48
	c8.02,0,14.52,6.5,14.52,14.52v22.54C399.56,81.01,399.35,81.22,399.1,81.22z"/>
<path class="st5" d="M425.76,146.02h-63.84c-9,0-16.29-7.3-16.29-16.29v0c0-9,7.3-16.29,16.29-16.29h63.84
	c7.38,0,13.36,5.98,13.36,13.36v5.87C439.12,140.04,433.14,146.02,425.76,146.02z"/>
<path class="st5" d="M417.79,175.2h-54.18c-8.06,0-14.59-6.53-14.59-14.59v0c0-8.06,6.53-14.59,14.59-14.59h54.18
	c6.61,0,11.96,5.35,11.96,11.96v5.26C429.75,169.84,424.4,175.2,417.79,175.2z"/>
<path class="st5" d="M407.77,198.31h-30.59c-6.38,0-21.56-5.17-21.56-11.56v0c0-6.38,5.17-11.56,11.56-11.56h40.59
	c5.23,0,9.47,4.24,9.47,9.47v4.17C417.24,194.07,413,198.31,407.77,198.31z"/>
<path class="st6" d="M717.55,159.14l-2.73,2.46c-8.26,7.45-21,6.78-28.45-1.48l-43.03-47.76c-7.45-8.26-6.78-21,1.48-28.45
	l2.73-2.46c8.26-7.45,21-6.78,28.45,1.48l43.03,47.76C726.48,138.96,725.82,151.7,717.55,159.14z"/>
<path class="st7" d="M624.48,171.02L624.48,171.02c-10.12,9.12-25.72,8.3-34.83-1.82L519.37,91.2c-9.12-10.12-8.3-25.72,1.82-34.83
	v0c10.12-9.12,25.72-8.3,34.83,1.82l70.28,78.01C635.41,146.31,634.6,161.9,624.48,171.02z"/>
<path class="st8" d="M593.21,175.42L593.21,175.42c9.3,7.81,23.16,6.6,30.97-2.7l52.29-62.27c7.81-9.3,6.6-23.16-2.7-30.97v0
	c-9.3-7.81-23.16-6.6-30.97,2.7l-52.29,62.27C582.7,153.75,583.91,167.61,593.21,175.42z"/>
<rect x="363.71" y="91.02" transform="matrix(0.9972 -0.0745 0.0745 0.9972 -9.38 28.1163)" class="st9" width="16.67" height="97.44"/>
<path class="st10" d="M235.7,388.63l-65.08-80.5c-5.87-7.26-13.62-10.73-21.31-10.48c-7.69-0.25-15.44,3.22-21.31,10.48
	l-37.81,46.77c5.25-4.65,11.46-6.9,17.65-6.7c7.69-0.25,15.44,3.22,21.31,10.48l20.09,24.85l0.07-0.09l45.29,56.02
	c11.35,14.04,29.75,14.04,41.1,0h0C247.05,425.43,247.05,402.67,235.7,388.63z"/>
<path class="st11" d="M62.92,439.47c10.19,12.61,26.06,13.85,37.41,3.82l7.51-9.28l0.3,0.37l41.1-50.84l-20.09-24.85
	c-5.87-7.26-13.62-10.73-21.31-10.48c-6.19-0.2-12.4,2.05-17.65,6.7l-27.27,33.73C51.57,402.67,51.57,425.43,62.92,439.47
	L62.92,439.47"/>
<path class="st12" d="M366.88,341.94c0.62-0.62,1.42-1.42,2.41-2.47l-0.13-0.14l0,0l0,0l19.68-20.89v-38.96
	c0-10.72-8.19-19.4-18.28-19.4h-2.8c-10.1,0-18.28,8.69-18.28,19.4v88.24c0,2.4,0.43,4.68,1.18,6.8c0.15-1.1,0.33-2.2,0.56-3.28
	C353.49,360.59,357.45,351.4,366.88,341.94z"/>
<polygon class="st12" points="371.76,347.25 371.76,347.25 390.65,367.32 391.31,368.01 391.31,368.01 390.65,367.31 "/>
<path class="st13" d="M390.65,390.72c0,10.47,7.98,18.95,17.85,18.95c4.93,0,9.39-2.12,12.62-5.55c3.24-3.42,5.23-8.15,5.23-13.4
	c0-5.23-1.99-9.96-5.23-13.4s-7.69-5.55-12.62-5.55c-3.04,0-5.89,0.79-8.39,2.22l-1.58,1.68l-0.36-0.38
	c-0.82,0.6-1.58,1.29-2.28,2.04C392.65,380.76,390.65,385.49,390.65,390.72z"/>
<path class="st14" d="M448.04,432.68c10.11-10.74,16.37-25.57,16.37-41.96c0-16.38-6.26-31.21-16.37-41.96
	c-4.08-4.32-8.78-7.99-13.96-10.82l-33.97,36.05c2.5-1.42,5.35-2.22,8.39-2.22c4.93,0,9.39,2.12,12.62,5.55s5.23,8.17,5.23,13.4
	c0,5.24-1.99,9.97-5.23,13.4c-3.24,3.44-7.69,5.55-12.62,5.55c-9.87,0-17.85-8.47-17.85-18.95c0-5.23,1.99-9.96,5.23-13.4
	c0.7-0.74,1.46-1.44,2.28-2.04l-6.86-7.28l-0.66-0.7l-18.9-20.07c-0.99,1.05-1.79,1.85-2.41,2.47
	c-9.43,9.46-13.39,18.65-15.66,29.31c-0.23,1.08-0.41,2.17-0.56,3.28c-0.37,2.75-0.53,5.57-0.53,8.42
	c0,32.77,25.04,59.34,55.91,59.34"/>
<path class="st14" d="M390.65,367.31l0.66,0.7l6.85,7.28c0.62-0.49,1.27-0.91,1.94-1.29l33.97-36.05l15.09-16
	c3.71-3.95,5.57-9.11,5.57-14.28c0-5.17-1.86-10.33-5.57-14.28c-7.43-7.88-19.48-7.88-26.91,0l-30.94,32.84l-19.68,20.89l0,0l0,0
	l0.13,0.14c0,0,0,0,0,0L390.65,367.31z"/>
<path class="st13" d="M400.11,373.99c-0.68,0.38-1.33,0.81-1.94,1.29l0.36,0.38L400.11,373.99z"/>
<g>
	<path class="st12" d="M366.88,341.94c0.62-0.62,1.42-1.42,2.41-2.47l-0.13-0.14l0,0l0,0l19.68-20.89v-38.96
		c0-10.72-8.19-19.4-18.28-19.4h-2.8c-10.1,0-18.28,8.69-18.28,19.4v88.24c0,2.4,0.43,4.68,1.18,6.8c0.15-1.1,0.33-2.2,0.56-3.28
		C353.49,360.59,357.45,351.4,366.88,341.94z"/>
	<polygon class="st12" points="371.76,347.25 371.76,347.25 390.65,367.32 391.31,368.01 391.31,368.01 390.65,367.31 	"/>
	<path class="st13" d="M390.65,390.72c0,10.47,7.98,18.95,17.85,18.95c4.93,0,9.39-2.12,12.62-5.55c3.24-3.42,5.23-8.15,5.23-13.4
		c0-5.23-1.99-9.96-5.23-13.4s-7.69-5.55-12.62-5.55c-3.04,0-5.89,0.79-8.39,2.22l-1.58,1.68l-0.36-0.38
		c-0.82,0.6-1.58,1.29-2.28,2.04C392.65,380.76,390.65,385.49,390.65,390.72z"/>
	<g>
		<path class="st14" d="M448.04,348.77c-4.08-4.32-8.78-7.99-13.96-10.82l-33.97,36.05c2.5-1.42,5.35-2.22,8.39-2.22
			c4.93,0,9.39,2.12,12.62,5.55s5.23,8.17,5.23,13.4c0,5.24-1.99,9.97-5.23,13.4c-3.24,3.44-7.69,5.55-12.62,5.55
			c-9.87,0-17.85-8.47-17.85-18.95c0-5.23,1.99-9.96,5.23-13.4c0.7-0.74,1.46-1.44,2.28-2.04l-6.86-7.28l-0.66-0.7l-18.9-20.07
			c-0.99,1.05-1.79,1.85-2.41,2.47c-9.43,9.46-13.39,18.65-15.66,29.31c-0.23,1.08-0.41,2.17-0.56,3.28
			c-0.37,2.75-0.53,5.57-0.53,8.42c0,32.77,25.04,59.34,55.91,59.34c15.44,0,29.41-6.64,39.53-17.38
			c10.11-10.74,16.37-25.57,16.37-41.96C464.41,374.34,458.15,359.51,448.04,348.77z"/>
		<path class="st14" d="M390.65,367.31l0.66,0.7l6.85,7.28c0.62-0.49,1.27-0.91,1.94-1.29l33.97-36.05l15.09-16
			c3.71-3.95,5.57-9.11,5.57-14.28c0-5.17-1.86-10.33-5.57-14.28c-7.43-7.88-19.48-7.88-26.91,0l-30.94,32.84l-19.68,20.89l0,0l0,0
			l0.13,0.14c0,0,0,0,0,0L390.65,367.31z"/>
	</g>
	<path class="st13" d="M400.11,373.99c-0.68,0.38-1.33,0.81-1.94,1.29l0.36,0.38L400.11,373.99z"/>
</g>
<path class="st15" d="M661.43,316.64l-43.23,42.5l-43.23-42.5l15.45-15.19c15.34-15.08,40.22-15.08,55.56,0L661.43,316.64z"/>
<path class="st16" d="M635.48,379.36l-38.84,38.18c-1.21,1.19-3.18,1.19-4.39,0l-32.94-32.38c-15.01-14.75-15.01-38.67,0-53.43
	l13.86-13.63c1.21-1.19,3.18-1.19,4.39,0l57.92,56.93C636.69,376.23,636.69,378.17,635.48,379.36z"/>
<path class="st17" d="M660.71,402.33l-24.01,23.6c-10.22,10.05-26.8,10.05-37.02,0l-6.22-6.11c-10.22-10.05-10.22-26.34,0-36.39
	l24.01-23.6c0.39-0.39,1.03-0.39,1.43,0l41.81,41.09C661.11,401.32,661.11,401.95,660.71,402.33z"/>
<path class="st18" d="M661.07,317.71l43.23,42.5l43.23-42.5l-15.45-15.19c-15.34-15.08-40.22-15.08-55.56,0L661.07,317.71z"/>
<path class="st19" d="M687.02,380.44l38.84,38.18c1.21,1.19,3.18,1.19,4.39,0l32.94-32.38c15.01-14.75,15.01-38.67,0-53.43
	l-13.86-13.63c-1.21-1.19-3.18-1.19-4.39,0l-57.92,56.93C685.81,377.31,685.81,379.24,687.02,380.44z"/>
<path class="st20" d="M662.18,402.72l23.22,22.82c10.44,10.26,27.37,10.26,37.81,0l5.42-5.33c10.44-10.26,10.44-26.9,0-37.17
	l-23.22-22.82c-0.61-0.6-1.61-0.6-2.22,0l-41.01,40.31C661.57,401.14,661.57,402.12,662.18,402.72z"/>
</svg>
