<?xml version="1.0" encoding="utf-8"?>
<!-- Generator: Adobe Illustrator 23.0.2, SVG Export Plug-In . SVG Version: 6.00 Build 0)  -->
<svg version="1.1" id="katman_1" xmlns="http://www.w3.org/2000/svg" xmlns:xlink="http://www.w3.org/1999/xlink" x="0px" y="0px"
	 viewBox="0 0 841.89 595.28" style="enable-background:new 0 0 841.89 595.28;" xml:space="preserve">
<style type="text/css">
	.st0{fill:#706F6F;}
	.st1{fill:none;}
	.st2{fill:#70BE92;}
	.st3{fill:#20499A;}
	.st4{fill:#F2E500;}
	.st5{fill:#F39200;}
	.st6{fill:#0072B1;}
	.st7{fill:#9AB020;}
	.st8{fill:#C41345;}
	.st9{fill:#C44693;}
	.st10{fill:#E62055;}
	.st11{fill:#50C0D9;}
	.st12{fill:#95B022;}
	.st13{fill:#BA4392;}
	.st14{fill:#025889;}
	.st15{fill:#69B42D;}
	.st16{fill:#F0E749;}
	.st17{fill:#B04E17;}
	.st18{fill:#6AC6E0;}
	.st19{fill:#9F4493;}
	.st20{fill:#60220B;}
	.st21{fill:#721D5E;}
	.st22{fill:#FEE5D0;}
	.st23{fill:#027F91;}
	.st24{fill:#F1832A;}
	.st25{fill:#418ECC;}
	.st26{fill:#F0C242;}
	.st27{fill:#E73A1F;}
	.st28{fill:#6DA67B;}
	.st29{fill:#F9C5A8;}
	.st30{fill:#B7D7D8;}
	.st31{fill:#BCD2DD;}
	.st32{fill:#0A94A1;}
	.st33{fill:#EA563C;}
	.st34{fill:#F7A813;}
	.st35{fill:#6D4595;}
	.st36{fill:#FFD569;}
	.st37{fill:#13ABBD;}
	.st38{fill:#1B404F;}
	.st39{fill:#EB611C;}
	.st40{fill:#C01818;}
	.st41{fill:#81BB27;}
	.st42{fill:#70B62C;}
	.st43{fill:#13B8D3;}
	.st44{fill:#048072;}
	.st45{fill:#F8ED6D;}
	.st46{fill:#D40954;}
	.st47{fill:#00A8AA;}
</style>
<path class="st0" d="M731.63,227.94h-83.54c-19.26,0-34.88-15.62-34.88-34.88v-77.52c0-19.26,15.62-34.88,34.88-34.88h83.54
	c19.26,0,34.88,15.62,34.88,34.88v77.52C766.51,212.32,750.9,227.94,731.63,227.94z"/>
<g>
	<path class="st1" d="M92.01,56.21c0.24-0.64,0.49-1.27,0.76-1.89C92.5,54.94,92.25,55.57,92.01,56.21z"/>
	<path class="st1" d="M93.06,53.61c0.37-0.84,0.75-1.65,1.16-2.44C93.81,51.96,93.43,52.77,93.06,53.61z"/>
	<path class="st1" d="M94.45,50.75c0.34-0.64,0.68-1.26,1.04-1.87C95.13,49.49,94.78,50.11,94.45,50.75z"/>
	<path class="st1" d="M89.33,66.24c0.17-1.03,0.38-2.05,0.61-3.07C89.71,64.18,89.5,65.21,89.33,66.24z"/>
	<path class="st1" d="M88.8,70.22c0.1-1.03,0.23-2.06,0.39-3.08C89.04,68.16,88.9,69.19,88.8,70.22z"/>
	<path class="st1" d="M90.11,62.42c0.22-0.9,0.45-1.79,0.71-2.66C90.56,60.64,90.32,61.52,90.11,62.42z"/>
	<path class="st1" d="M91.35,58.05c-0.13,0.4-0.25,0.8-0.37,1.19c0.22-0.71,0.45-1.4,0.69-2.08C91.56,57.45,91.45,57.74,91.35,58.05
		z"/>
	<path class="st1" d="M95.94,48.15c0.3-0.49,0.61-0.97,0.93-1.43C96.56,47.18,96.25,47.66,95.94,48.15z"/>
	<path class="st1" d="M97.38,45.98c0.33-0.47,0.68-0.92,1.03-1.36C98.06,45.07,97.72,45.52,97.38,45.98z"/>
	<path class="st1" d="M100.44,42.25c-0.53,0.56-1.05,1.16-1.56,1.78C99.39,43.41,99.91,42.81,100.44,42.25z"/>
	<path class="st1" d="M88.76,70.77c-1.52,17.5,4.9,35.16,16.76,43.07l13.54,9.03l-12.96-8.65C94.24,106.32,87.25,88.59,88.76,70.77z
		"/>
	<path class="st2" d="M136.42,134.46l-4.26-2.84c0,0.18,0.01-0.18,0,0C133.62,132.29,135.03,133.6,136.42,134.46z"/>
	<path class="st3" d="M98.41,44.63c-0.35,0.44-0.69,0.89-1.03,1.36c-0.17,0.24-0.34,0.48-0.51,0.73c-0.32,0.47-0.63,0.95-0.93,1.43
		c-0.15,0.24-0.31,0.48-0.45,0.73c-0.36,0.61-0.71,1.23-1.04,1.87c-0.08,0.14-0.16,0.28-0.23,0.42c-0.4,0.79-0.79,1.6-1.16,2.44
		c-0.1,0.23-0.2,0.47-0.3,0.71c-0.26,0.62-0.52,1.25-0.76,1.89c-0.12,0.31-0.23,0.63-0.34,0.95c-0.24,0.68-0.47,1.37-0.69,2.08
		c-0.05,0.17-0.11,0.34-0.16,0.52c-0.26,0.87-0.49,1.76-0.71,2.66c-0.06,0.25-0.11,0.5-0.17,0.75c-0.23,1.02-0.44,2.05-0.61,3.07
		c-0.05,0.3-0.09,0.6-0.14,0.9c-0.15,1.03-0.29,2.05-0.39,3.08c-0.02,0.18-0.03,0.37-0.04,0.55c-1.51,17.82,5.49,35.55,17.34,43.46
		l12.96,8.65l13.1,8.74c0.44-16.31-0.47-38.15-0.47-44.57c0-24.59-13.96-44.54-31.25-44.79c-0.53,0.56-1.05,1.16-1.56,1.78
		C98.72,44.22,98.57,44.43,98.41,44.63z"/>
	<path class="st4" d="M89.19,67.14c0.05-0.3,0.09-0.6,0.14-0.9C89.28,66.54,89.24,66.84,89.19,67.14z"/>
	<path class="st5" d="M146.74,136.03l-2.63-1.58c-1.55-0.86-3.12-2.16-4.74-2.84l-14.59-8.74l-15.07-9.03
		c-13.2-7.91-20.35-25.57-18.66-43.07c0.02-0.18,0.03-0.37,0.05-0.55c0.11-1.03,0.26-2.06,0.43-3.08c0.05-0.3,0.1-0.6,0.15-0.9
		c0.19-1.03,0.42-2.05,0.68-3.07c0.04-0.14,0.06-0.28,0.09-0.42c0.03-0.11,0.07-0.22,0.1-0.33c0.24-0.89,0.5-1.78,0.79-2.66
		c0.06-0.17,0.12-0.34,0.18-0.52c0.14-0.4,0.27-0.8,0.41-1.19c0.11-0.3,0.24-0.59,0.36-0.89c0.12-0.32,0.25-0.63,0.38-0.95
		c0.27-0.64,0.55-1.27,0.84-1.89c0.11-0.24,0.21-0.48,0.33-0.71c0.41-0.84,0.84-1.65,1.29-2.44c0.08-0.14,0.17-0.28,0.26-0.42
		c0.38-0.64,0.76-1.26,1.16-1.87c0.16-0.25,0.34-0.49,0.5-0.73c0.34-0.49,0.68-0.97,1.04-1.43c0.19-0.25,0.38-0.49,0.57-0.73
		c0.37-0.47,0.75-0.92,1.14-1.36c0.18-0.2,0.35-0.4,0.52-0.6c0.57-0.62,1.14-1.21,1.74-1.78c-0.12,0-0.24-0.01-0.37-0.01
		c-18.87,0-34.27,18.95-35.12,42.74h-0.04v119.31h0.26c2.66,34.84,25.7,62.07,53.74,62.07c29.82,0,54-30.81,54-68.82
		C176.53,170.63,164.4,147.35,146.74,136.03z"/>
	<path class="st4" d="M88.76,70.77c0.02-0.18,0.03-0.37,0.04-0.55C88.78,70.4,88.77,70.59,88.76,70.77z"/>
	<path class="st4" d="M90.02,62.74c-0.03,0.14-0.05,0.28-0.08,0.42c0.06-0.25,0.11-0.5,0.17-0.75
		C90.08,62.53,90.05,62.63,90.02,62.74z"/>
	<path class="st4" d="M96.88,46.71c0.17-0.25,0.34-0.49,0.51-0.73C97.21,46.22,97.04,46.47,96.88,46.71z"/>
	<path class="st4" d="M94.22,51.17c0.07-0.14,0.15-0.28,0.23-0.42C94.37,50.89,94.29,51.03,94.22,51.17z"/>
	<path class="st4" d="M95.49,48.88c0.15-0.25,0.3-0.49,0.45-0.73C95.79,48.39,95.64,48.63,95.49,48.88z"/>
	<path class="st4" d="M98.41,44.63c0.16-0.2,0.31-0.4,0.47-0.6C98.72,44.22,98.57,44.43,98.41,44.63z"/>
	<path class="st4" d="M90.82,59.76c0.05-0.17,0.11-0.34,0.16-0.52C90.92,59.41,90.87,59.58,90.82,59.76z"/>
	<path class="st4" d="M92.76,54.32c0.1-0.24,0.19-0.48,0.3-0.71C92.95,53.84,92.86,54.08,92.76,54.32z"/>
	<path class="st4" d="M91.67,57.16c0.11-0.32,0.22-0.63,0.34-0.95C91.89,56.52,91.78,56.84,91.67,57.16z"/>
</g>
<path class="st3" d="M113.95,233.51h-2.24c-10.06,0-18.21-8.15-18.21-18.21v-51.5c0-10.06,8.15-18.21,18.21-18.21h2.24
	c10.06,0,18.21,8.15,18.21,18.21v51.5C132.16,225.36,124.01,233.51,113.95,233.51z"/>
<path class="st6" d="M450.69,132.2c0,30.21-54.34,88.99-54.34,88.99S342,162.41,342,132.2s24.33-54.7,54.34-54.7
	S450.69,101.99,450.69,132.2z"/>
<path class="st7" d="M497.29,196.95c-21.22,21.36-100.95,24.25-100.95,24.25s2.87-80.24,24.09-101.61
	c21.22-21.36,55.63-21.36,76.86,0C518.52,140.95,518.52,175.58,497.29,196.95z"/>
<path class="st8" d="M372.65,119.59c21.22,21.36,24.09,101.61,24.09,101.61s-79.72-2.89-100.95-24.25s-21.22-56,0-77.36
	S351.43,98.23,372.65,119.59z"/>
<polyline class="st9" points="362.25,254.72 396.42,222.76 428.17,254.72 "/>
<path class="st1" d="M367.91,253.65"/>
<line class="st1" x1="364.7" y1="255.12" x2="425.47" y2="254.34"/>
<g>
	<path class="st10" d="M616.94,186.41c-0.7,0-1.39-0.02-2.08-0.04c-0.9-0.03-1.65,0.67-1.65,1.53v24.92
		c0,8.35,7.04,15.11,15.73,15.11h29.65c0.87,0,1.57-0.68,1.58-1.51c0.29-19.46,6.06-37.64,15.88-53.19
		c0.86-1.36-0.76-2.92-2.18-2.09C657.27,180.82,637.78,186.41,616.94,186.41z"/>
	<path class="st11" d="M766.51,120.82V94.73c0-7.77-6.56-14.07-14.64-14.07h-23.29c-0.87,0-1.57,0.68-1.58,1.51
		c-0.28,19.46-6.06,37.64-15.88,53.2c-0.86,1.37,0.76,2.91,2.18,2.09c15.21-8.85,32.83-14.26,51.69-15.12
		C765.84,122.3,766.51,121.64,766.51,120.82z"/>
	<path class="st12" d="M680.32,166.98c7.25-9.85,16.2-18.45,26.46-25.42c0.15-0.1,0.28-0.23,0.39-0.37
		c12.2-16.75,19.49-37.04,19.83-58.96c0.01-0.86-0.72-1.56-1.61-1.56H706.1c0,49.29-41.59,89.24-92.89,89.24v14.93
		c0,0.83,0.68,1.51,1.54,1.53c0.73,0.02,1.45,0.04,2.18,0.04c23.44,0,45.15-7.06,63-19.06
		C680.09,167.25,680.22,167.12,680.32,166.98z"/>
	<path class="st13" d="M613.21,154.55v12.26c0,0.86,0.73,1.56,1.63,1.55c49.13-0.82,88.79-38.93,89.65-86.13
		c0.02-0.86-0.72-1.56-1.61-1.56h-12.76C690.12,121.47,655.68,154.55,613.21,154.55z"/>
	<path class="st14" d="M686.9,80.66h-14.28c0,31.52-26.6,57.07-59.41,57.07v13.72c0,0.86,0.73,1.56,1.63,1.54
		c40.3-0.82,72.81-32.06,73.67-70.77C688.52,81.36,687.79,80.66,686.9,80.66z"/>
	<path class="st15" d="M613.21,118.83v15.8c0,0.86,0.74,1.57,1.63,1.54c30.63-0.82,55.31-24.52,56.15-53.95
		c0.02-0.86-0.71-1.57-1.61-1.57h-16.45C652.94,101.74,635.15,118.83,613.21,118.83z"/>
	<path class="st16" d="M649.71,80.66h-18.55c-9.91,0-17.95,7.72-17.95,17.25v17.82c0,0.86,0.74,1.58,1.64,1.54
		c19.76-0.8,35.63-16.05,36.46-35.03C651.35,81.37,650.6,80.66,649.71,80.66z"/>
	<path class="st17" d="M766.51,138.7v-14.81c0-0.88-0.77-1.59-1.68-1.54c-21.37,0.99-41.13,7.83-57.6,18.9
		c-0.15,0.1-0.28,0.23-0.39,0.37c-7.25,9.85-16.2,18.46-26.46,25.42c-0.15,0.1-0.28,0.23-0.39,0.37
		c-12.2,16.75-19.49,37.04-19.83,58.96c-0.01,0.86,0.72,1.56,1.61,1.56h11.83C673.62,178.65,715.21,138.7,766.51,138.7z"/>
	<path class="st18" d="M676.84,227.94h12.76c0-40.81,34.43-73.89,76.91-73.89v-12.26c0-0.86-0.73-1.56-1.63-1.55
		c-49.13,0.82-88.79,38.93-89.65,86.13C675.22,227.23,675.95,227.94,676.84,227.94z"/>
	<path class="st19" d="M766.51,170.87v-13.72c0-0.86-0.73-1.56-1.63-1.54c-40.3,0.82-72.81,32.06-73.67,70.77
		c-0.02,0.86,0.71,1.56,1.61,1.56h14.28C707.11,196.42,733.7,170.87,766.51,170.87z"/>
	<path class="st20" d="M710.33,227.94h16.45c0-21.08,17.79-38.17,39.73-38.17v-15.8c0-0.86-0.74-1.57-1.63-1.54
		c-30.63,0.82-55.31,24.52-56.15,53.95C708.7,227.23,709.44,227.94,710.33,227.94z"/>
	<path class="st21" d="M765.32,191.32c-20.12,0.59-36.31,16.15-36.93,35.48c-0.02,0.62,0.52,1.14,1.17,1.14h25.68
		c6.22,0,11.27-4.85,11.27-10.82l0-24.67C766.51,191.82,765.97,191.3,765.32,191.32z"/>
</g>
<g>
	<path class="st22" d="M257.76,342.57h0.8c9,0,16.36,7.36,16.36,16.36v27.97c0,9-7.36,16.36-16.36,16.36h-0.8
		c-9,0-16.36-7.36-16.36-16.36v-27.97C241.4,349.93,248.76,342.57,257.76,342.57z"/>
	<path class="st23" d="M269.03,375.65L269.03,375.65c-6.57,6.16-17.23,6.09-23.7-0.17l-21.17-20.48
		c-6.47-6.26-6.39-16.42,0.18-22.59l0,0c6.57-6.16,17.23-6.09,23.7,0.17l21.17,20.48C275.67,359.33,275.59,369.49,269.03,375.65z"/>
	<path class="st24" d="M247.7,375.5L247.7,375.5c-6.47-6.26-6.39-16.42,0.18-22.59l21.49-20.18c6.57-6.16,17.23-6.09,23.7,0.17l0,0
		c6.47,6.26,6.39,16.42-0.18,22.59l-21.49,20.18C264.83,381.84,254.16,381.76,247.7,375.5z"/>
</g>
<g>
	<path class="st25" d="M175.99,387.79L175.99,387.79c4.61-7.61,14.91-10.24,22.89-5.85L225,396.31c7.98,4.39,10.74,14.21,6.13,21.82
		l0,0c-4.61,7.61-14.91,10.24-22.89,5.85l-26.12-14.37C174.14,405.21,171.38,395.39,175.99,387.79z"/>
	<path class="st26" d="M211.48,395.36L211.48,395.36c2.32,8.5-3.08,17.27-12,19.48l-29.19,7.23c-8.92,2.21-18.12-2.94-20.43-11.44
		l0,0c-2.32-8.5,3.08-17.27,12-19.48l29.19-7.23C199.97,381.71,209.16,386.86,211.48,395.36z"/>
	<path class="st27" d="M200.68,412.89L200.68,412.89c-8.92,2.21-18.12-2.94-20.43-11.44l-7.59-27.82c-2.32-8.5,3.08-17.27,12-19.48
		l0,0c8.92-2.21,18.12,2.94,20.43,11.44l7.59,27.82C215,401.91,209.6,410.68,200.68,412.89z"/>
</g>
<g>
	<path class="st28" d="M175.99,478.22L175.99,478.22c-4.61-7.61-1.85-17.43,6.13-21.82l26.12-14.37c7.98-4.39,18.28-1.76,22.89,5.85
		l0,0c4.61,7.61,1.85,17.43-6.13,21.82l-26.12,14.37C190.9,488.45,180.6,485.82,175.99,478.22z"/>
	<path class="st29" d="M200.62,452.7L200.62,452.7c8.88,2.34,14.15,11.18,11.7,19.64l-8.03,27.71
		c-2.45,8.47-11.73,13.48-20.61,11.15h0c-8.88-2.34-14.15-11.18-11.7-19.64l8.03-27.71C182.46,455.38,191.73,450.37,200.62,452.7z"
		/>
	<path class="st30" d="M211.14,471.12L211.14,471.12c-2.45,8.47-11.73,13.48-20.61,11.15l-29.08-7.65
		c-8.88-2.34-14.15-11.18-11.7-19.64l0,0c2.45-8.47,11.73-13.48,20.61-11.15l29.08,7.65C208.33,453.81,213.59,462.65,211.14,471.12z
		"/>
</g>
<g>
	<path class="st31" d="M258.56,523.43h-0.8c-9,0-16.36-7.36-16.36-16.36V479.1c0-9,7.36-16.36,16.36-16.36h0.8
		c9,0,16.36,7.36,16.36,16.36v27.97C274.92,516.07,267.55,523.43,258.56,523.43z"/>
	<path class="st32" d="M247.29,490.35L247.29,490.35c6.57-6.16,17.23-6.09,23.7,0.17L292.16,511c6.47,6.26,6.39,16.42-0.18,22.59
		l0,0c-6.57,6.16-17.23,6.09-23.7-0.17l-21.17-20.48C240.65,506.68,240.73,496.51,247.29,490.35z"/>
	<path class="st33" d="M268.62,490.5L268.62,490.5c6.47,6.26,6.39,16.42-0.18,22.59l-21.49,20.18c-6.57,6.16-17.23,6.09-23.7-0.17
		l0,0c-6.47-6.26-6.39-16.42,0.18-22.59l21.49-20.18C251.49,484.17,262.15,484.24,268.62,490.5z"/>
</g>
<g>
	<path class="st34" d="M340.33,478.22L340.33,478.22c-4.61,7.61-14.91,10.24-22.89,5.85l-26.12-14.37
		c-7.98-4.39-10.74-14.21-6.13-21.82l0,0c4.61-7.61,14.91-10.24,22.89-5.85l26.12,14.37C342.18,460.79,344.94,470.61,340.33,478.22z
		"/>
	<path class="st35" d="M304.83,470.64L304.83,470.64c-2.32-8.5,3.08-17.27,12-19.48l29.19-7.23c8.92-2.21,18.12,2.94,20.43,11.44
		l0,0c2.32,8.5-3.08,17.27-12,19.48l-29.19,7.23C316.35,484.29,307.15,479.14,304.83,470.64z"/>
	<path class="st36" d="M315.64,453.11L315.64,453.11c8.92-2.21,18.12,2.94,20.43,11.44l7.59,27.82c2.32,8.5-3.08,17.27-12,19.48h0
		c-8.92,2.21-18.12-2.94-20.43-11.44l-7.59-27.82C301.32,464.09,306.72,455.32,315.64,453.11z"/>
</g>
<g>
	<path class="st37" d="M340.33,387.79L340.33,387.79c4.61,7.61,1.85,17.43-6.13,21.82l-26.12,14.37
		c-7.98,4.39-18.28,1.76-22.89-5.85l0,0c-4.61-7.61-1.85-17.43,6.13-21.82l26.12-14.37C325.42,377.55,335.72,380.18,340.33,387.79z"
		/>
	<path class="st38" d="M315.7,413.3L315.7,413.3c-8.88-2.34-14.15-11.18-11.7-19.64l8.03-27.71c2.45-8.47,11.73-13.48,20.61-11.15
		l0,0c8.88,2.34,14.15,11.18,11.7,19.64l-8.03,27.71C333.86,410.62,324.59,415.63,315.7,413.3z"/>
	<path class="st39" d="M305.17,395.62L305.17,395.62c2.45-8.47,11.73-13.48,20.61-11.15l29.08,7.65
		c8.88,2.34,14.15,11.18,11.7,19.64v0c-2.45,8.47-11.73,13.48-20.61,11.15l-29.08-7.65C307.99,412.92,302.72,404.08,305.17,395.62z"
		/>
</g>
<g>
	<path class="st40" d="M585.94,384.07l-1.65,1.63c-8.61,8.52-22.7,8.52-31.31,0l-31.31-30.96c-8.61-8.52-8.61-22.45,0-30.96
		l1.65-1.63c8.61-8.52,22.7-8.52,31.31,0l31.31,30.96C594.55,361.62,594.55,375.56,585.94,384.07z"/>
	<path class="st41" d="M556.28,385.7l-1.65-1.63c-8.61-8.52-8.61-22.45,0-30.96l31.31-30.96c8.61-8.52,22.7-8.52,31.31,0l1.65,1.63
		c8.61,8.52,8.61,22.45,0,30.96l-31.31,30.96C578.98,394.22,564.89,394.22,556.28,385.7z"/>
</g>
<g>
	<path class="st42" d="M532.82,408.55l1.65,1.63c8.61,8.52,8.61,22.45,0,30.96l-31.31,30.96c-8.61,8.52-22.7,8.52-31.31,0
		l-1.65-1.63c-8.61-8.52-8.61-22.45,0-30.96l31.31-30.96C510.12,400.03,524.21,400.03,532.82,408.55z"/>
	<path class="st43" d="M534.47,437.88l-1.65,1.63c-8.61,8.52-22.7,8.52-31.31,0l-31.31-30.96c-8.61-8.52-8.61-22.45,0-30.96
		l1.65-1.63c8.61-8.52,22.7-8.52,31.31,0l31.31,30.96C543.08,415.43,543.08,429.37,534.47,437.88z"/>
</g>
<g>
	<path class="st44" d="M557.57,461.09l1.65-1.63c8.61-8.52,22.7-8.52,31.31,0l31.31,30.96c8.61,8.52,8.61,22.45,0,30.96l-1.65,1.63
		c-8.61,8.52-22.7,8.52-31.31,0l-31.31-30.96C548.95,483.53,548.95,469.6,557.57,461.09z"/>
	<path class="st45" d="M587.23,459.46l1.65,1.63c8.61,8.52,8.61,22.45,0,30.96l-31.31,30.96c-8.61,8.52-22.7,8.52-31.31,0
		l-1.65-1.63c-8.61-8.52-8.61-22.45,0-30.96l31.31-30.96C564.53,450.94,578.62,450.94,587.23,459.46z"/>
</g>
<g>
	<path class="st46" d="M610.69,436.61l-1.65-1.63c-8.61-8.52-8.61-22.45,0-30.96l31.31-30.96c8.61-8.52,22.7-8.52,31.31,0l1.65,1.63
		c8.61,8.52,8.61,22.45,0,30.96L642,436.61C633.39,445.13,619.3,445.13,610.69,436.61z"/>
	<path class="st47" d="M609.04,407.28l1.65-1.63c8.61-8.52,22.7-8.52,31.31,0l31.31,30.96c8.61,8.52,8.61,22.45,0,30.96l-1.65,1.63
		c-8.61,8.52-22.7,8.52-31.31,0l-31.31-30.96C600.43,429.73,600.43,415.79,609.04,407.28z"/>
</g>
</svg>
