<?xml version="1.0" encoding="utf-8"?>
<!-- Generator: Adobe Illustrator 23.0.2, SVG Export Plug-In . SVG Version: 6.00 Build 0)  -->
<svg version="1.1" id="katman_1" xmlns="http://www.w3.org/2000/svg" xmlns:xlink="http://www.w3.org/1999/xlink" x="0px" y="0px"
	 viewBox="0 0 841.89 595.28" style="enable-background:new 0 0 841.89 595.28;" xml:space="preserve">
<style type="text/css">
	.st0{fill:#683C11;}
	.st1{fill:#7D4E24;stroke:#000000;stroke-width:0.9733;stroke-miterlimit:10;}
	.st2{fill:#432918;stroke:#000000;stroke-width:0.9733;stroke-miterlimit:10;}
	.st3{fill:#683C11;stroke:#000000;stroke-width:1.0181;stroke-miterlimit:10;}
	.st4{fill:#CA9E67;}
	.st5{fill:#FFFFFF;stroke:#000000;stroke-width:0.9733;stroke-miterlimit:10;}
	.st6{stroke:#000000;stroke-width:0.9733;stroke-miterlimit:10;}
	.st7{fill:#A3195B;stroke:#000000;stroke-width:0.9733;stroke-miterlimit:10;}
	.st8{fill:#951B81;stroke:#000000;stroke-width:0.9733;stroke-miterlimit:10;}
	.st9{fill:#683C11;stroke:#000000;stroke-width:0.9733;stroke-miterlimit:10;}
	.st10{fill:#432918;}
	.st11{fill:#B17F4A;}
	.st12{fill:#936037;}
</style>
<g>
	<path class="st0" d="M475.2,354.95C473.78,354.94,474.14,354.96,475.2,354.95c-1.89-6.21,0.01-11.01,9.36-13.39
		c35.16-8.94,47.37-24.62,47.14-56.09c-0.06-8.37,4.76-11.19,12.26-11.04c0.04-1.18-0.03-0.88,0,0c7.49,0.14,8.93,0.7,8.73,10.69
		c-0.75,37.55-21.95,64.11-63.98,74.64C477.52,362.55,477.09,361.16,475.2,354.95z"/>
</g>
<ellipse class="st0" cx="414.4" cy="353.42" rx="84.83" ry="77.7"/>
<ellipse class="st1" cx="506.5" cy="224.88" rx="32.18" ry="42.85"/>
<ellipse class="st2" cx="506.5" cy="222.15" rx="17.61" ry="23.6"/>
<ellipse class="st1" cx="322.91" cy="224.88" rx="32.18" ry="42.85"/>
<ellipse class="st2" cx="322.91" cy="222.15" rx="17.61" ry="23.6"/>
<ellipse class="st3" cx="412.07" cy="248.21" rx="81.66" ry="85.61"/>
<ellipse class="st4" cx="376.01" cy="227.58" rx="35.49" ry="32.48"/>
<ellipse class="st4" cx="447" cy="227.58" rx="35.49" ry="32.48"/>
<ellipse class="st4" cx="412.07" cy="288.82" rx="38.21" ry="45"/>
<ellipse class="st4" cx="409.02" cy="245.04" rx="33.01" ry="14.35"/>
<ellipse class="st5" cx="376.84" cy="224.88" rx="18.73" ry="18.15"/>
<ellipse class="st6" cx="376.84" cy="224.88" rx="6.74" ry="6.54"/>
<ellipse class="st5" cx="449.52" cy="224.88" rx="18.73" ry="18.15"/>
<ellipse class="st6" cx="449.52" cy="224.88" rx="6.74" ry="6.54"/>
<ellipse class="st7" cx="400.81" cy="259.74" rx="5.24" ry="5.08"/>
<ellipse class="st8" cx="425.55" cy="259.4" rx="5.24" ry="5.08"/>
<ellipse class="st9" cx="425.55" cy="309.59" rx="11.15" ry="10.81"/>
<path class="st10" d="M322.91,431.87L322.91,431.87c-11.79,0-21.35-9.56-21.35-21.35v-80.69c0-11.79,9.56-21.35,21.35-21.35h0
	c11.79,0,21.35,9.56,21.35,21.35v80.69C344.26,422.31,334.7,431.87,322.91,431.87z"/>
<path class="st10" d="M499.23,431.87L499.23,431.87c-11.79,0-21.35-9.56-21.35-21.35v-80.69c0-11.79,9.56-21.35,21.35-21.35h0
	c11.79,0,21.35,9.56,21.35,21.35v80.69C520.58,422.31,511.02,431.87,499.23,431.87z"/>
<ellipse class="st11" cx="376.01" cy="407.54" rx="24.72" ry="21.43"/>
<ellipse class="st11" cx="447" cy="410.45" rx="24.72" ry="21.43"/>
<path class="st12" d="M463.38,431.87L463.38,431.87c-11.79,0-21.35-9.56-21.35-21.35v-74.37c0-11.79,9.56-21.35,21.35-21.35h0
	c11.79,0,21.35,9.56,21.35,21.35v74.37C484.73,422.31,475.18,431.87,463.38,431.87z"/>
<path class="st12" d="M358.12,431.87L358.12,431.87c-11.79,0-21.35-9.56-21.35-21.35v-74.37c0-11.79,9.56-21.35,21.35-21.35h0
	c11.79,0,21.35,9.56,21.35,21.35v74.37C379.47,422.31,369.91,431.87,358.12,431.87z"/>
</svg>
