<?xml version="1.0" encoding="utf-8"?>
<!-- Generator: Adobe Illustrator 23.0.2, SVG Export Plug-In . SVG Version: 6.00 Build 0)  -->
<svg version="1.1" id="katman_1" xmlns="http://www.w3.org/2000/svg" xmlns:xlink="http://www.w3.org/1999/xlink" x="0px" y="0px"
	 viewBox="0 0 841.89 595.28" style="enable-background:new 0 0 841.89 595.28;" xml:space="preserve">
<style type="text/css">
	.st0{fill:#575756;}
	.st1{fill:#36A9E1;}
	.st2{fill:#706F6F;}
	.st3{fill:#C6C6C6;}
	.st4{fill:#FFFFFF;}
	.st5{fill:#9D9D9C;}
</style>
<ellipse class="st0" cx="472.98" cy="433.32" rx="48.02" ry="41.07"/>
<ellipse class="st0" cx="370.39" cy="435.74" rx="48.02" ry="41.07"/>
<path class="st1" d="M368.05,306.27c22.18,0,40.16,11.21,40.16,25.05s-17.98,25.05-40.16,25.05"/>
<path class="st2" d="M470.13,477.97h72.44v-5.56c0-19.27-15.62-34.88-34.88-34.88h-5.44c-17.74,0-32.12,14.38-32.12,32.12V477.97z"
	/>
<path class="st2" d="M373.25,480.4h-72.44v-5.56c0-19.27,15.62-34.88,34.88-34.88h5.44c17.74,0,32.12,14.38,32.12,32.12V480.4z"/>
<path class="st3" d="M425.47,480.4L425.47,480.4c-31.83,0-59.14-7.42-59.14-40.86V305.96c0-33.43,25.81-60.53,57.64-60.53h3
	c31.83,0,57.64,27.1,57.64,60.53v133.58C484.61,472.97,457.3,480.4,425.47,480.4z"/>
<path class="st3" d="M386.64,113.77h1.64c7.53,0,13.64,6.11,13.64,13.64v126.92c0,7.53-6.11,13.64-13.64,13.64h-1.64
	c-7.53,0-13.64-6.11-13.64-13.64V127.41C373,119.87,379.1,113.77,386.64,113.77z"/>
<path class="st2" d="M387.66,130.13h0.92c4.26,0,7.7,3.45,7.7,7.7v92.48c0,4.26-3.45,7.7-7.7,7.7h-0.92c-4.26,0-7.7-3.45-7.7-7.7
	v-92.48C379.96,133.58,383.41,130.13,387.66,130.13z"/>
<path class="st3" d="M463.08,113.77h1.63c7.53,0,13.64,6.11,13.64,13.64v126.92c0,7.53-6.11,13.64-13.64,13.64h-1.63
	c-7.53,0-13.64-6.11-13.64-13.64V127.41C449.44,119.87,455.55,113.77,463.08,113.77z"/>
<path class="st2" d="M464.11,130.13h0.92c4.26,0,7.7,3.45,7.7,7.7v92.48c0,4.26-3.45,7.7-7.7,7.7h-0.92c-4.26,0-7.7-3.45-7.7-7.7
	v-92.48C456.41,133.58,459.86,130.13,464.11,130.13z"/>
<ellipse cx="394.14" cy="286.09" rx="11.74" ry="10.05"/>
<ellipse cx="452.16" cy="286.09" rx="11.74" ry="10.05"/>
<path class="st4" d="M426.31,343.9h0.91c1.91,0,3.46-1.55,3.46-3.46v-37.49c0-0.01-0.01-0.02-0.02-0.02h-7.79
	c-0.01,0-0.02,0.01-0.02,0.02v37.49C422.85,342.35,424.4,343.9,426.31,343.9z"/>
<path class="st4" d="M417.43,343.9h0.91c1.91,0,3.46-1.55,3.46-3.46v-37.49c0-0.01-0.01-0.02-0.02-0.02h-7.79
	c-0.01,0-0.02,0.01-0.02,0.02v37.49C413.97,342.35,415.52,343.9,417.43,343.9z"/>
<path d="M422.34,301.98h-0.04c-4.05,0-7.33-3.28-7.33-7.33v-4.32c0-0.02,0.02-0.04,0.04-0.04h14.62c0.02,0,0.04,0.02,0.04,0.04v4.32
	C429.67,298.7,426.39,301.98,422.34,301.98z"/>
<ellipse class="st5" cx="373.39" cy="336.41" rx="29" ry="31.5"/>
<ellipse class="st5" cx="471.25" cy="336.41" rx="29" ry="31.5"/>
<path class="st2" d="M441.61,414.45l-0.04-0.03c-4.84-4.14-4.84-10.86,0-15l37.92-32.44c4.84-4.14,12.69-4.14,17.54,0l0.04,0.03
	c4.84,4.14,4.84,10.86,0,15l-37.92,32.44C454.3,418.59,446.45,418.59,441.61,414.45z"/>
<path class="st2" d="M405.94,414.2l2.06-1.76c5.15-4.4,5.15-11.55,0-15.95l-34.2-29.25c-5.15-4.4-13.5-4.4-18.65,0l-2.06,1.76
	c-5.15,4.4-5.15,11.55,0,15.95l34.2,29.25C392.44,418.6,400.79,418.6,405.94,414.2z"/>
</svg>
