<?xml version="1.0" encoding="utf-8"?>
<!-- Generator: Adobe Illustrator 23.0.2, SVG Export Plug-In . SVG Version: 6.00 Build 0)  -->
<svg version="1.1" id="katman_1" xmlns="http://www.w3.org/2000/svg" xmlns:xlink="http://www.w3.org/1999/xlink" x="0px" y="0px"
	 viewBox="0 0 841.89 595.28" style="enable-background:new 0 0 841.89 595.28;" xml:space="preserve">
<style type="text/css">
	.st0{fill:#191325;}
	.st1{fill:#B02171;}
	.st2{fill:#F9C5A8;}
	.st3{fill:#EB593B;}
	.st4{fill:#F9C5A8;stroke:#000000;stroke-miterlimit:10;}
	.st5{fill:#F18786;stroke:#000000;stroke-miterlimit:10;}
	.st6{fill:#F3D0B4;stroke:#000000;stroke-width:1.5094;stroke-miterlimit:10;}
	.st7{fill:#191325;stroke:#000000;stroke-miterlimit:10;}
	.st8{fill:#EA563C;stroke:#000000;stroke-miterlimit:10;}
	.st9{fill:#FFFFFF;stroke:#000000;stroke-width:1.3932;stroke-miterlimit:10;}
	.st10{fill:#191325;stroke:#000000;stroke-width:1.3932;stroke-miterlimit:10;}
	.st11{fill:#C7133B;stroke:#000000;stroke-width:1.3932;stroke-miterlimit:10;}
	.st12{fill:#F18786;stroke:#000000;stroke-width:0.8227;stroke-miterlimit:10;}
	.st13{fill:none;stroke:#36A9E1;stroke-width:3.6812;stroke-linecap:round;stroke-miterlimit:10;}
	.st14{fill:#EA563C;}
	.st15{fill:#F6B8CB;}
	.st16{fill:#E8385D;}
	.st17{fill:#EFB704;}
	.st18{fill:#F9C5A8;stroke:#000000;stroke-width:1.0762;stroke-miterlimit:10;}
	.st19{fill:#F9C5A8;stroke:#000000;stroke-width:1.0595;stroke-miterlimit:10;}
	.st20{fill:#191325;stroke:#000000;stroke-width:0.894;stroke-miterlimit:10;}
	.st21{fill:#EA563C;stroke:#000000;stroke-width:1.7124;stroke-miterlimit:10;}
	.st22{fill:#9D9D9C;stroke:#000000;stroke-width:1.7124;stroke-miterlimit:10;}
	.st23{fill:#B2B2B2;stroke:#000000;stroke-width:2.6101;stroke-miterlimit:10;}
	.st24{fill:#C7133B;stroke:#000000;stroke-width:1.7035;stroke-miterlimit:10;}
	.st25{fill:#F18786;stroke:#000000;stroke-width:1.0337;stroke-miterlimit:10;}
	.st26{fill:#F2F9FC;}
	.st27{fill:#193257;}
	.st28{fill:#F0817D;}
	.st29{fill:#FBCEA9;}
	.st30{fill:#29363B;}
	.st31{fill:#EFC0A0;}
	.st32{fill:#C7133B;}
</style>
<path class="st0" d="M656.5,157.63L656.5,157.63c-8.6,0-15.58-6.97-15.58-15.58V96.94c0-8.6,6.97-15.58,15.58-15.58h0
	c8.6,0,15.58,6.97,15.58,15.58v45.12C672.08,150.66,665.1,157.63,656.5,157.63z"/>
<path class="st0" d="M654.11,228.15L654.11,228.15c-5.07,0-9.19-4.11-9.19-9.19v-36.06c0-5.07,4.11-9.19,9.19-9.19l0,0
	c5.07,0,9.19,4.11,9.19,9.19v36.06C663.29,224.04,659.18,228.15,654.11,228.15z"/>
<path class="st1" d="M658.91,173.72h-4.81c-5.07,0-9.18-4.11-9.18-9.18v-0.82c0-5.07,4.11-9.18,9.18-9.18h4.81
	c5.07,0,9.18,4.11,9.18,9.18v0.82C668.08,169.61,663.98,173.72,658.91,173.72z"/>
<path class="st0" d="M727.74,154.76L727.74,154.76c-8.6,0-15.58-6.97-15.58-15.58V94.06c0-8.6,6.97-15.58,15.58-15.58h0
	c8.6,0,15.58,6.97,15.58,15.58v45.12C743.32,147.78,736.35,154.76,727.74,154.76z"/>
<path class="st0" d="M725.35,225.28L725.35,225.28c-5.07,0-9.19-4.11-9.19-9.19v-36.06c0-5.07,4.11-9.19,9.19-9.19l0,0
	c5.07,0,9.19,4.11,9.19,9.19v36.06C734.53,221.17,730.42,225.28,725.35,225.28z"/>
<path class="st1" d="M730.15,170.85h-4.81c-5.07,0-9.18-4.11-9.18-9.18v-0.82c0-5.07,4.11-9.18,9.18-9.18h4.81
	c5.07,0,9.18,4.11,9.18,9.18v0.82C739.33,166.74,735.22,170.85,730.15,170.85z"/>
<ellipse class="st2" cx="364.27" cy="131.46" rx="12.85" ry="13.83"/>
<ellipse class="st3" cx="364.27" cy="131.46" rx="5.49" ry="5.91"/>
<ellipse class="st2" cx="467.74" cy="131.46" rx="12.85" ry="13.83"/>
<ellipse class="st3" cx="467.74" cy="131.46" rx="5.49" ry="5.91"/>
<circle class="st4" cx="191.46" cy="113.23" r="16.04"/>
<circle class="st5" cx="191.46" cy="113.23" r="8.79"/>
<circle class="st4" cx="73.34" cy="114.37" r="16.04"/>
<circle class="st5" cx="73.34" cy="114.37" r="8.79"/>
<path class="st6" d="M134.32,211.43h-4.54c-29.97,0-54.26-24.29-54.26-54.26V102.3c0-29.97,24.29-54.26,54.26-54.26h4.54
	c29.97,0,54.26,24.29,54.26,54.26v54.87C188.58,187.14,164.29,211.43,134.32,211.43z"/>
<circle class="st7" cx="101.41" cy="107.18" r="6.05"/>
<circle class="st7" cx="162.68" cy="107.18" r="6.05"/>
<path class="st8" d="M107.62,95.66H95.2c-3.61,0-6.54-2.93-6.54-6.54v0c0-3.61,2.93-6.54,6.54-6.54h12.42
	c3.61,0,6.54,2.93,6.54,6.54v0C114.15,92.73,111.23,95.66,107.62,95.66z"/>
<g>
	<path class="st9" d="M132.04,133.9c-9.82,0-18.01,7.53-19.96,17.56h39.92C150.05,141.43,141.86,133.9,132.04,133.9z"/>
	<path class="st10" d="M115.93,169.65c4.02-4.69,9.74-7.65,16.11-7.65c6.37,0,12.09,2.95,16.11,7.65c2.68-3.75,4.3-8.45,4.3-13.58
		c0-1.58-0.16-3.12-0.45-4.61h-39.92c-0.29,1.49-0.45,3.03-0.45,4.61C111.63,161.2,113.25,165.9,115.93,169.65z"/>
	<path class="st11" d="M132.04,162.58c-6.37,0-12.09,2.95-16.11,7.65c3.73,5.22,9.55,8.59,16.11,8.59c6.56,0,12.38-3.37,16.11-8.59
		C144.13,165.54,138.41,162.58,132.04,162.58z"/>
</g>
<path class="st8" d="M168.89,95.66h-12.42c-3.61,0-6.54-2.93-6.54-6.54v0c0-3.61,2.93-6.54,6.54-6.54h12.42
	c3.61,0,6.54,2.93,6.54,6.54v0C175.43,92.73,172.5,95.66,168.89,95.66z"/>
<path class="st8" d="M86.56,170.11L86.56,170.11c3.96,3.96,10.37,3.96,14.33,0l28.19-28.19c3.96-3.96,3.96-10.37,0-14.33l0,0
	c-3.96-3.96-10.37-3.96-14.33,0l-28.19,28.19C82.6,159.74,82.6,166.15,86.56,170.11z"/>
<path class="st8" d="M177.9,172.72L177.9,172.72c-3.96,3.96-10.37,3.96-14.33,0l-28.19-28.19c-3.96-3.96-3.96-10.37,0-14.33l0,0
	c3.96-3.96,10.37-3.96,14.33,0l28.19,28.19C181.85,162.35,181.85,168.77,177.9,172.72z"/>
<path class="st12" d="M132.91,138.27h-1.74c-7.25,0-13.13-5.88-13.13-13.13V103.6c0-7.25,5.88-13.13,13.13-13.13h1.74
	c7.25,0,13.13,5.88,13.13,13.13v21.55C146.04,132.4,140.16,138.27,132.91,138.27z"/>
<path class="st2" d="M467.74,82.76c0-10.43-8.43-18.97-18.74-18.97h-66c-10.31,0-18.74,8.54-18.74,18.97v83.36
	c0,4.99,1.94,9.53,5.08,12.93c0.5,1.84,1.45,3.58,2.87,5.02l28.46,28.81c8.43,8.53,22.22,8.53,30.64,0l28.46-28.81
	c1.42-1.44,2.37-3.18,2.87-5.02c3.14-3.4,5.08-7.94,5.08-12.93V82.76z"/>
<path class="st0" d="M466.29,98.57H407.3c-10.2,0-18.46-8.27-18.46-18.46v-5.63c0-10.2,8.27-18.46,18.46-18.46h58.99
	c10.2,0,18.46,8.27,18.46,18.46v5.63C484.75,90.3,476.48,98.57,466.29,98.57z"/>
<ellipse class="st0" cx="379.63" cy="87.06" rx="28.74" ry="23.81"/>
<ellipse class="st0" cx="393.52" cy="133.45" rx="6.52" ry="7.02"/>
<ellipse class="st0" cx="438.49" cy="134.64" rx="6.52" ry="7.02"/>
<path class="st0" d="M402.76,122.46h-18.49c-2.57,0-4.65-2.08-4.65-4.65v-0.35c0-2.57,2.08-4.65,4.65-4.65h18.49
	c2.57,0,4.65,2.08,4.65,4.65v0.35C407.41,120.38,405.33,122.46,402.76,122.46z"/>
<path class="st0" d="M447.73,122.46h-18.49c-2.57,0-4.65-2.08-4.65-4.65v-0.35c0-2.57,2.08-4.65,4.65-4.65h18.49
	c2.57,0,4.65,2.08,4.65,4.65v0.35C452.38,120.38,450.3,122.46,447.73,122.46z"/>
<path class="st13" d="M421.44,63.8h32.01c8.36,0,15.14,7.3,15.14,16.3v0"/>
<ellipse class="st3" cx="409.92" cy="162.39" rx="2.61" ry="2.81"/>
<ellipse class="st3" cx="422.1" cy="162.39" rx="2.61" ry="2.81"/>
<path class="st14" d="M431.51,178.02L431.51,178.02c-8.56,9.22-22.45,9.22-31.01,0l0,0"/>
<path class="st2" d="M693.18,207.26h-0.8c-19.09,0-34.56-15.47-34.56-34.56V93.5c0-19.09,15.47-34.56,34.56-34.56h0.8
	c19.09,0,34.56,15.47,34.56,34.56v79.2C727.74,191.79,712.27,207.26,693.18,207.26z"/>
<path class="st0" d="M734.53,90.74v0.8c0,17.56-14.24,31.8-31.8,31.8h-61.31c-17.56,0-31.8-14.24-31.8-31.8v-0.8
	c0-17.56,14.24-31.8,31.8-31.8h61.31C720.3,58.93,734.53,73.17,734.53,90.74z"/>
<path class="st0" d="M676.48,150.47h-0.73c-2.03,0-3.67-1.64-3.67-3.67v-7.12c0-2.03,1.64-3.67,3.67-3.67h0.73
	c2.03,0,3.67,1.64,3.67,3.67v7.12C680.16,148.83,678.51,150.47,676.48,150.47z"/>
<path class="st0" d="M706.99,150.47h-0.73c-2.03,0-3.67-1.64-3.67-3.67v-7.12c0-2.03,1.64-3.67,3.67-3.67h0.73
	c2.03,0,3.67,1.64,3.67,3.67v7.12C710.66,148.83,709.02,150.47,706.99,150.47z"/>
<path class="st14" d="M684.33,166.73L684.33,166.73c-0.84,0-1.52-0.68-1.52-1.52v-2.15c0-0.84,0.68-1.52,1.52-1.52l0,0
	c0.84,0,1.52,0.68,1.52,1.52v2.15C685.85,166.05,685.17,166.73,684.33,166.73z"/>
<path class="st14" d="M695.8,166.73L695.8,166.73c-0.84,0-1.52-0.68-1.52-1.52v-2.15c0-0.84,0.68-1.52,1.52-1.52l0,0
	c0.84,0,1.52,0.68,1.52,1.52v2.15C697.32,166.05,696.64,166.73,695.8,166.73z"/>
<ellipse class="st15" cx="671.65" cy="168.84" rx="8.18" ry="11.21"/>
<ellipse class="st15" cx="708.6" cy="168.84" rx="8.18" ry="11.21"/>
<path class="st16" d="M694.13,179.83c-1.04,0-1.99,2.01-2.83,2.42c-0.84-0.42-1.79-2.42-2.83-2.42c-3.13,0-5.66,2.17-5.66,4.85
	c0,2.68,2.53,4.85,5.66,4.85c1.04,0,1.99,1.34,2.83,0.92c0.84,0.42,1.79-0.92,2.83-0.92c3.13,0,5.66-2.17,5.66-4.85
	C699.79,182,697.26,179.83,694.13,179.83z"/>
<path class="st1" d="M706.86,94.35L706.86,94.35c-4.01-1.53-6.04-6.1-4.55-10.21l0.54-1.49c1.49-4.11,5.95-6.2,9.96-4.66v0
	c4.01,1.53,6.04,6.1,4.55,10.21l-0.54,1.49C715.33,93.8,710.87,95.88,706.86,94.35z"/>
<path class="st1" d="M693.77,104.28L693.77,104.28c-4.01-1.53-6.04-6.1-4.55-10.21l0.54-1.49c1.49-4.11,5.95-6.2,9.96-4.66v0
	c4.01,1.53,6.04,6.1,4.55,10.21l-0.54,1.49C702.23,103.73,697.78,105.82,693.77,104.28z"/>
<path class="st17" d="M702.23,94.51L702.23,94.51c-1.63-0.62-2.46-2.48-1.85-4.15l0.22-0.61c0.61-1.67,2.42-2.52,4.05-1.9v0
	c1.63,0.62,2.46,2.48,1.85,4.15l-0.22,0.61C705.67,94.28,703.86,95.13,702.23,94.51z"/>
<ellipse class="st18" cx="198.71" cy="339.49" rx="16.04" ry="18.57"/>
<circle class="st5" cx="198.71" cy="336.95" r="8.79"/>
<ellipse class="st19" cx="80.59" cy="340.06" rx="16.04" ry="18"/>
<circle class="st5" cx="80.59" cy="338.1" r="8.79"/>
<path class="st6" d="M141.57,435.15h-4.54c-29.97,0-54.26-24.29-54.26-54.26v-54.87c0-29.97,24.29-54.26,54.26-54.26h4.54
	c29.97,0,54.26,24.29,54.26,54.26v54.87C195.83,410.86,171.53,435.15,141.57,435.15z"/>
<ellipse class="st20" cx="108.66" cy="340.91" rx="6.05" ry="4.83"/>
<ellipse class="st20" cx="169.93" cy="340.91" rx="6.05" ry="4.83"/>
<path class="st21" d="M105.82,323.77H75.17c-4.25,0-7.69-3.44-7.69-7.69v-5.83c0-4.25,3.44-7.69,7.69-7.69h30.65
	c4.25,0,7.69,3.44,7.69,7.69v5.83C113.51,320.32,110.07,323.77,105.82,323.77z"/>
<path class="st22" d="M105.82,322.82H75.17c-4.25,0-7.69-3.45-7.69-7.69v-5.83c0-4.25,3.44-7.69,7.69-7.69h30.65
	c4.25,0,7.69,3.44,7.69,7.69v5.83C113.51,319.38,110.07,322.82,105.82,322.82z"/>
<path class="st22" d="M203.59,320.92h-30.65c-4.25,0-7.69-3.44-7.69-7.69v-5.83c0-4.25,3.44-7.69,7.69-7.69h30.65
	c4.25,0,7.69,3.44,7.69,7.69v5.83C211.28,317.47,207.84,320.92,203.59,320.92z"/>
<g>
	<path class="st10" d="M123.18,393.37c4.02-4.69,9.74-7.65,16.11-7.65s12.09,2.95,16.11,7.65c2.68-3.75,4.3-8.45,4.3-13.58
		c0-1.58-0.16-3.12-0.45-4.61h-39.92c-0.29,1.49-0.45,3.03-0.45,4.61C118.88,384.92,120.5,389.62,123.18,393.37z"/>
	<path class="st23" d="M139.29,347.26c-18.04,0-33.09,14.38-36.68,33.54h73.37C172.39,361.64,157.33,347.26,139.29,347.26z"/>
	<path class="st24" d="M139.29,382.28c-6.37,0-12.09,4.42-16.11,11.44c3.73,7.81,9.55,12.85,16.11,12.85
		c6.56,0,12.38-5.04,16.11-12.85C151.38,386.7,145.66,382.28,139.29,382.28z"/>
</g>
<path class="st25" d="M141.2,361.47h-3.82c-7.84,0-14.2-6.36-14.2-14.2v-37.15c0-7.84,6.36-14.2,14.2-14.2h3.82
	c7.84,0,14.2,6.36,14.2,14.2v37.15C155.41,355.11,149.05,361.47,141.2,361.47z"/>
<g>
	<path class="st26" d="M210.86,404.72c8.37,0,15.16-6.79,15.16-15.16H195.7C195.7,397.93,202.48,404.72,210.86,404.72z"/>
</g>
<ellipse class="st27" cx="415.85" cy="321.54" rx="56.81" ry="56.17"/>
<path class="st28" d="M418.61,437.43h-5.53c-13.12,0-23.76-10.64-23.76-23.76v-71.92c0-13.12,10.64-23.76,23.76-23.76h5.53
	c13.12,0,23.76,10.64,23.76,23.76v71.92C442.38,426.79,431.74,437.43,418.61,437.43z"/>
<path class="st28" d="M358.38,350v-3.88c0-5.45,4.42-9.87,9.87-9.87h11.51c5.45,0,9.87,4.42,9.87,9.87V350
	c0,5.45-4.42,9.87-9.87,9.87h-11.51C362.8,359.88,358.38,355.46,358.38,350z"/>
<path class="st28" d="M442.38,350v-3.88c0-5.45,4.42-9.87,9.87-9.87h11.51c5.45,0,9.87,4.42,9.87,9.87V350
	c0,5.45-4.42,9.87-9.87,9.87h-11.51C446.8,359.88,442.38,355.46,442.38,350z"/>
<path class="st29" d="M420.82,413.12h-9.94c-23.61,0-42.75-19.14-42.75-42.75v-44.62c0-23.61,19.14-42.75,42.75-42.75h9.94
	c23.61,0,42.75,19.14,42.75,42.75v44.62C463.57,393.98,444.43,413.12,420.82,413.12z"/>
<path class="st28" d="M416.54,328.98h1.16c2.75,0,4.97,2.23,4.97,4.97v16.94c0,2.75-2.23,4.97-4.97,4.97h-1.16
	c-2.75,0-4.97-2.23-4.97-4.97v-16.94C411.57,331.21,413.79,328.98,416.54,328.98z"/>
<path class="st30" d="M446.42,339.36h-0.76c-1.81,0-3.28-1.47-3.28-3.28v-6.17c0-1.81,1.47-3.28,3.28-3.28h0.76
	c1.81,0,3.28,1.47,3.28,3.28v6.17C449.7,337.89,448.23,339.36,446.42,339.36z"/>
<path class="st30" d="M389.21,339.36h-0.76c-1.81,0-3.28-1.47-3.28-3.28v-6.17c0-1.81,1.47-3.28,3.28-3.28h0.76
	c1.81,0,3.28,1.47,3.28,3.28v6.17C392.49,337.89,391.02,339.36,389.21,339.36z"/>
<g>
	<path class="st26" d="M415.85,391.83c10.76,0,19.48-8.34,19.48-18.62h-38.95C396.37,383.49,405.09,391.83,415.85,391.83z"/>
</g>
<g>
	<path class="st27" d="M442.97,317.36c10.7,0,20.49-3.97,28.05-10.52c-6.54-23.89-28.6-41.47-54.83-41.47
		c-5.64,0-11.08,0.82-16.22,2.34c-0.21,1.78-0.34,3.59-0.34,5.44C399.63,297.56,419.04,317.36,442.97,317.36z"/>
</g>
<ellipse class="st31" cx="648.77" cy="363.95" rx="9.16" ry="9.29"/>
<ellipse class="st31" cx="736.8" cy="362.13" rx="9.16" ry="9.29"/>
<path class="st30" d="M693.87,419.03h-2.18c-23.71,0-42.93-19.22-42.93-42.93v-60.39c0-23.71,19.22-42.93,42.93-42.93h2.18
	c23.71,0,42.93,19.22,42.93,42.93v60.39C736.8,399.81,717.58,419.03,693.87,419.03z"/>
<path class="st29" d="M695.53,410.65h-5.49c-19.61,0-35.51-15.9-35.51-35.51v-35.42c0-19.61,15.9-35.51,35.51-35.51h5.49
	c19.61,0,35.51,15.9,35.51,35.51v35.42C731.04,394.75,715.14,410.65,695.53,410.65z"/>
<path class="st30" d="M678.45,443.61c-18.08,0-32.73-14.65-32.73-32.73v-0.46c0-18.08,14.65-32.73,32.73-32.73h28.66
	c18.08,0,32.73,14.65,32.73,32.73v0.46c0,18.08-14.65,32.73-32.73,32.73"/>
<path class="st29" d="M667.39,400.97v-1.45c0-9.97,8.09-18.06,18.06-18.06h14.66c9.97,0,18.06,8.09,18.06,18.06v1.45
	c0,9.97-8.09,18.06-18.06,18.06h-14.66C675.47,419.03,667.39,410.94,667.39,400.97z"/>
<ellipse class="st0" cx="671.85" cy="354.66" rx="4.45" ry="3.78"/>
<ellipse class="st0" cx="713.73" cy="354.66" rx="4.45" ry="3.78"/>
<path class="st0" d="M679.33,400.24c2.94-3.16,7.11-5.15,11.76-5.15s8.82,1.99,11.76,5.15c1.96-2.53,3.14-5.7,3.14-9.15
	c0-1.07-0.12-2.1-0.33-3.11h-29.14c-0.21,1-0.33,2.04-0.33,3.11C676.19,394.54,677.37,397.71,679.33,400.24z"/>
<path class="st32" d="M691.09,394.77c-4.65,0-8.82,1.99-11.76,5.15c2.73,3.52,6.97,5.79,11.76,5.79s9.03-2.27,11.76-5.79
	C699.91,396.76,695.74,394.77,691.09,394.77z"/>
<path class="st30" d="M733.8,336.91L733.8,336.91c-5.24,6.68-14.82,7.78-21.41,2.47l-31.79-25.66c-6.58-5.31-7.67-15.03-2.43-21.71
	v0c5.24-6.68,14.82-7.78,21.41-2.47l31.79,25.66C737.95,320.51,739.04,330.23,733.8,336.91z"/>
<ellipse class="st29" cx="691.09" cy="373.25" rx="6.77" ry="6.87"/>
</svg>
